*
%FSLAX36Y36*%
%MOIN*%
%ADD10C,1.0000*%
G36*
X24774Y907094D02*
G01X24840Y907093D01*
X24930Y907089D01*
X25020Y907082D01*
X25109Y907072D01*
X25198Y907059D01*
X25286Y907042D01*
X25374Y907023D01*
X25461Y907001D01*
X25548Y906975D01*
X25633Y906947D01*
X25717Y906915D01*
X25800Y906881D01*
X25882Y906844D01*
X25962Y906803D01*
X26042Y906761D01*
X26119Y906715D01*
X26195Y906667D01*
X26269Y906616D01*
X26341Y906562D01*
X26412Y906506D01*
X26480Y906448D01*
X26546Y906387D01*
X26611Y906324D01*
X26673Y906259D01*
X26732Y906192D01*
X26789Y906122D01*
X26844Y906051D01*
X26896Y905978D01*
X26946Y905903D01*
X26993Y905826D01*
X27037Y905748D01*
X27079Y905668D01*
X27118Y905587D01*
X27154Y905505D01*
X27187Y905421D01*
X27217Y905336D01*
X27244Y905251D01*
X27268Y905164D01*
X27289Y905077D01*
X27307Y904988D01*
X36107Y857632D01*
X36115Y857589D01*
X36135Y857502D01*
X36157Y857414D01*
X36183Y857328D01*
X36211Y857243D01*
X36243Y857159D01*
X36277Y857076D01*
X36315Y856994D01*
X36355Y856913D01*
X36398Y856834D01*
X36443Y856757D01*
X36492Y856681D01*
X36543Y856607D01*
X36596Y856535D01*
X36652Y856464D01*
X36710Y856396D01*
X36771Y856330D01*
X36834Y856265D01*
X36899Y856204D01*
X36967Y856144D01*
X37036Y856087D01*
X37107Y856032D01*
X37181Y855980D01*
X37256Y855930D01*
X37332Y855883D01*
X37411Y855839D01*
X37490Y855797D01*
X37571Y855759D01*
X37654Y855723D01*
X76244Y839738D01*
X76284Y839722D01*
X76368Y839691D01*
X76454Y839662D01*
X76540Y839636D01*
X76627Y839614D01*
X76715Y839594D01*
X76803Y839578D01*
X76892Y839565D01*
X76981Y839554D01*
X77071Y839547D01*
X77161Y839543D01*
X77251Y839542D01*
X77341Y839545D01*
X77430Y839550D01*
X77520Y839559D01*
X77609Y839570D01*
X77698Y839585D01*
X77786Y839603D01*
X77873Y839624D01*
X77960Y839648D01*
X78046Y839675D01*
X78131Y839705D01*
X78214Y839738D01*
X78297Y839774D01*
X78378Y839812D01*
X78458Y839854D01*
X78536Y839898D01*
X78613Y839945D01*
X78688Y839995D01*
X118396Y867258D01*
X118451Y867295D01*
X118528Y867342D01*
X118606Y867387D01*
X118685Y867430D01*
X118766Y867469D01*
X118848Y867506D01*
X118931Y867539D01*
X119016Y867570D01*
X119101Y867598D01*
X119188Y867623D01*
X119275Y867644D01*
X119363Y867663D01*
X119451Y867679D01*
X119541Y867691D01*
X119630Y867701D01*
X119720Y867707D01*
X119810Y867710D01*
X119899D01*
X119989Y867707D01*
X120079Y867701D01*
X120168Y867691D01*
X120257Y867679D01*
X120346Y867663D01*
X120434Y867644D01*
X120521Y867623D01*
X120608Y867598D01*
X120693Y867570D01*
X120778Y867539D01*
X120861Y867506D01*
X120943Y867469D01*
X121024Y867430D01*
X121103Y867387D01*
X121181Y867342D01*
X121258Y867295D01*
X121332Y867244D01*
X121405Y867192D01*
X121476Y867136D01*
X121545Y867078D01*
X121611Y867018D01*
X121676Y866956D01*
X156712Y831920D01*
X156758Y831873D01*
X156819Y831806D01*
X156877Y831738D01*
X156933Y831668D01*
X156987Y831595D01*
X157038Y831521D01*
X157086Y831446D01*
X157132Y831368D01*
X157175Y831289D01*
X157215Y831209D01*
X157252Y831127D01*
X157287Y831044D01*
X157318Y830960D01*
X157347Y830874D01*
X157372Y830788D01*
X157395Y830701D01*
X157414Y830613D01*
X157431Y830525D01*
X157444Y830436D01*
X157454Y830347D01*
X157461Y830257D01*
X157465Y830167D01*
X157466Y830077D01*
X157464Y829987D01*
X157458Y829898D01*
X157450Y829808D01*
X157438Y829719D01*
X157423Y829630D01*
X157406Y829542D01*
X157385Y829455D01*
X157361Y829368D01*
X157334Y829282D01*
X157304Y829197D01*
X157271Y829114D01*
X157235Y829031D01*
X157196Y828950D01*
X157155Y828870D01*
X157111Y828792D01*
X157064Y828715D01*
X157014Y828640D01*
X129751Y788932D01*
X129726Y788895D01*
X129678Y788820D01*
X129632Y788742D01*
X129589Y788663D01*
X129549Y788583D01*
X129512Y788501D01*
X129478Y788418D01*
X129446Y788334D01*
X129418Y788248D01*
X129392Y788162D01*
X129370Y788075D01*
X129350Y787987D01*
X129334Y787899D01*
X129320Y787810D01*
X129310Y787720D01*
X129303Y787631D01*
X129299Y787541D01*
X129298Y787451D01*
X129301Y787361D01*
X129306Y787271D01*
X129315Y787182D01*
X129327Y787093D01*
X129342Y787004D01*
X129359Y786916D01*
X129380Y786829D01*
X129404Y786742D01*
X129432Y786656D01*
X129462Y786571D01*
X129494Y786488D01*
X145479Y747898D01*
X145496Y747858D01*
X145533Y747776D01*
X145573Y747695D01*
X145616Y747616D01*
X145662Y747539D01*
X145710Y747463D01*
X145761Y747389D01*
X145814Y747317D01*
X145870Y747246D01*
X145929Y747178D01*
X145989Y747111D01*
X146052Y747047D01*
X146118Y746985D01*
X146185Y746926D01*
X146254Y746868D01*
X146326Y746814D01*
X146399Y746761D01*
X146474Y746712D01*
X146550Y746665D01*
X146629Y746620D01*
X146708Y746579D01*
X146790Y746540D01*
X146872Y746504D01*
X146956Y746471D01*
X147040Y746441D01*
X147126Y746414D01*
X147213Y746390D01*
X147300Y746369D01*
X147388Y746351D01*
X194744Y737551D01*
X194809Y737538D01*
X194897Y737518D01*
X194984Y737494D01*
X195070Y737468D01*
X195155Y737439D01*
X195239Y737407D01*
X195322Y737371D01*
X195403Y737333D01*
X195483Y737293D01*
X195562Y737249D01*
X195639Y737203D01*
X195714Y737154D01*
X195788Y737102D01*
X195860Y737048D01*
X195930Y736991D01*
X195998Y736932D01*
X196063Y736871D01*
X196127Y736808D01*
X196188Y736742D01*
X196247Y736674D01*
X196304Y736604D01*
X196358Y736532D01*
X196410Y736459D01*
X196459Y736383D01*
X196505Y736306D01*
X196548Y736227D01*
X196589Y736147D01*
X196627Y736066D01*
X196662Y735983D01*
X196695Y735899D01*
X196724Y735814D01*
X196750Y735728D01*
X196773Y735641D01*
X196794Y735554D01*
X196811Y735465D01*
X196825Y735377D01*
X196836Y735287D01*
X196844Y735198D01*
X196848Y735108D01*
X196850Y735018D01*
Y685470D01*
X196849Y685404D01*
X196845Y685314D01*
X196838Y685224D01*
X196828Y685135D01*
X196815Y685046D01*
X196798Y684958D01*
X196779Y684870D01*
X196757Y684783D01*
X196731Y684696D01*
X196703Y684611D01*
X196671Y684527D01*
X196637Y684444D01*
X196600Y684362D01*
X196559Y684282D01*
X196517Y684202D01*
X196471Y684125D01*
X196423Y684049D01*
X196372Y683975D01*
X196318Y683903D01*
X196262Y683832D01*
X196204Y683764D01*
X196143Y683698D01*
X196080Y683633D01*
X196015Y683571D01*
X195948Y683512D01*
X195878Y683455D01*
X195807Y683400D01*
X195734Y683348D01*
X195659Y683298D01*
X195582Y683251D01*
X195504Y683207D01*
X195424Y683165D01*
X195343Y683126D01*
X195261Y683090D01*
X195177Y683057D01*
X195092Y683027D01*
X195007Y683000D01*
X194920Y682976D01*
X194833Y682955D01*
X194744Y682937D01*
X147388Y674137D01*
X147345Y674129D01*
X147258Y674109D01*
X147170Y674087D01*
X147084Y674061D01*
X146999Y674033D01*
X146915Y674001D01*
X146832Y673967D01*
X146750Y673929D01*
X146669Y673889D01*
X146590Y673846D01*
X146513Y673801D01*
X146437Y673752D01*
X146363Y673701D01*
X146291Y673648D01*
X146220Y673592D01*
X146152Y673534D01*
X146086Y673473D01*
X146021Y673410D01*
X145960Y673345D01*
X145900Y673277D01*
X145843Y673208D01*
X145788Y673137D01*
X145736Y673063D01*
X145686Y672988D01*
X145639Y672912D01*
X145595Y672833D01*
X145553Y672754D01*
X145515Y672672D01*
X145479Y672590D01*
X129494Y634000D01*
X129478Y633960D01*
X129447Y633875D01*
X129418Y633790D01*
X129392Y633704D01*
X129370Y633617D01*
X129350Y633529D01*
X129334Y633441D01*
X129321Y633352D01*
X129310Y633263D01*
X129303Y633173D01*
X129299Y633083D01*
X129298Y632993D01*
X129301Y632903D01*
X129306Y632814D01*
X129315Y632724D01*
X129327Y632635D01*
X129341Y632546D01*
X129359Y632458D01*
X129380Y632371D01*
X129404Y632284D01*
X129431Y632198D01*
X129461Y632113D01*
X129494Y632030D01*
X129530Y631947D01*
X129568Y631866D01*
X129610Y631786D01*
X129654Y631708D01*
X129701Y631631D01*
X129751Y631556D01*
X157014Y591848D01*
X157051Y591793D01*
X157098Y591716D01*
X157143Y591638D01*
X157186Y591559D01*
X157225Y591478D01*
X157262Y591396D01*
X157295Y591313D01*
X157326Y591228D01*
X157354Y591143D01*
X157379Y591056D01*
X157400Y590969D01*
X157419Y590881D01*
X157435Y590793D01*
X157447Y590703D01*
X157457Y590614D01*
X157463Y590524D01*
X157466Y590434D01*
Y590345D01*
X157463Y590255D01*
X157457Y590165D01*
X157447Y590076D01*
X157435Y589987D01*
X157419Y589898D01*
X157400Y589810D01*
X157379Y589723D01*
X157354Y589636D01*
X157326Y589551D01*
X157295Y589466D01*
X157262Y589383D01*
X157225Y589301D01*
X157186Y589220D01*
X157143Y589141D01*
X157098Y589063D01*
X157051Y588986D01*
X157000Y588912D01*
X156948Y588839D01*
X156892Y588768D01*
X156834Y588699D01*
X156774Y588633D01*
X156712Y588568D01*
X121676Y553532D01*
X121629Y553486D01*
X121562Y553425D01*
X121494Y553367D01*
X121424Y553311D01*
X121351Y553257D01*
X121277Y553206D01*
X121202Y553158D01*
X121124Y553112D01*
X121045Y553069D01*
X120965Y553029D01*
X120883Y552992D01*
X120800Y552957D01*
X120716Y552926D01*
X120630Y552897D01*
X120544Y552872D01*
X120457Y552849D01*
X120369Y552830D01*
X120281Y552813D01*
X120192Y552800D01*
X120103Y552790D01*
X120013Y552783D01*
X119923Y552779D01*
X119833Y552778D01*
X119743Y552780D01*
X119654Y552785D01*
X119564Y552794D01*
X119475Y552806D01*
X119386Y552821D01*
X119298Y552838D01*
X119211Y552859D01*
X119124Y552883D01*
X119038Y552910D01*
X118953Y552940D01*
X118870Y552973D01*
X118787Y553009D01*
X118706Y553048D01*
X118626Y553089D01*
X118548Y553133D01*
X118471Y553180D01*
X118396Y553230D01*
X80151Y579488D01*
X80120Y579510D01*
X80012Y579579D01*
X79902Y579645D01*
X79789Y579707D01*
X79675Y579765D01*
X79558Y579820D01*
X79440Y579869D01*
X79320Y579915D01*
X79198Y579957D01*
X79075Y579994D01*
X78951Y580027D01*
X78826Y580056D01*
X78700Y580080D01*
X78573Y580100D01*
X78445Y580115D01*
X78317Y580126D01*
X78189Y580133D01*
X78061Y580135D01*
X77932Y580132D01*
X77804Y580125D01*
X77676Y580114D01*
X77549Y580098D01*
X77422Y580077D01*
X77296Y580053D01*
X77171Y580023D01*
X77047Y579990D01*
X76924Y579952D01*
X76802Y579910D01*
X76683Y579864D01*
X76564Y579813D01*
X76448Y579759D01*
X76334Y579700D01*
X59276Y570586D01*
X59229Y570561D01*
X59172Y570534D01*
X59113Y570508D01*
X59053Y570485D01*
X58992Y570463D01*
X58931Y570444D01*
X58869Y570427D01*
X58807Y570412D01*
X58744Y570399D01*
X58680Y570388D01*
X58617Y570380D01*
X58553Y570374D01*
X58489Y570370D01*
X58424Y570368D01*
X58360Y570369D01*
X58296Y570372D01*
X58232Y570377D01*
X58168Y570384D01*
X58105Y570394D01*
X58042Y570405D01*
X57979Y570419D01*
X57917Y570435D01*
X57855Y570454D01*
X57794Y570474D01*
X57734Y570497D01*
X57675Y570521D01*
X57616Y570548D01*
X57559Y570577D01*
X57502Y570607D01*
X57447Y570640D01*
X57393Y570674D01*
X57340Y570711D01*
X57288Y570749D01*
X57238Y570789D01*
X57189Y570831D01*
X57142Y570874D01*
X57096Y570919D01*
X57052Y570966D01*
X57009Y571014D01*
X56969Y571063D01*
X56929Y571114D01*
X56892Y571167D01*
X56857Y571220D01*
X56823Y571275D01*
X56792Y571331D01*
X56762Y571388D01*
X56734Y571446D01*
X56709Y571505D01*
X21754Y655971D01*
X21722Y656053D01*
X21692Y656137D01*
X21665Y656223D01*
X21641Y656310D01*
X21620Y656397D01*
X21602Y656485D01*
X21587Y656574D01*
X21575Y656663D01*
X21566Y656753D01*
X21561Y656842D01*
X21558Y656932D01*
X21559Y657022D01*
X21563Y657112D01*
X21570Y657202D01*
X21580Y657291D01*
X21593Y657380D01*
X21609Y657468D01*
X21629Y657556D01*
X21651Y657643D01*
X21677Y657729D01*
X21705Y657815D01*
X21737Y657899D01*
X21771Y657982D01*
X21808Y658064D01*
X21848Y658144D01*
X21891Y658224D01*
X21937Y658301D01*
X21985Y658377D01*
X22036Y658451D01*
X22089Y658523D01*
X22145Y658594D01*
X22204Y658662D01*
X22264Y658728D01*
X22327Y658793D01*
X22393Y658855D01*
X22460Y658914D01*
X22529Y658971D01*
X22601Y659026D01*
X22674Y659079D01*
X22749Y659128D01*
X22825Y659175D01*
X22904Y659220D01*
X22983Y659261D01*
X23064Y659300D01*
X23880Y659680D01*
X25615Y660544D01*
X27319Y661468D01*
X28990Y662451D01*
X30626Y663491D01*
X32225Y664588D01*
X33784Y665741D01*
X35302Y666947D01*
X36777Y668205D01*
X38207Y669513D01*
X39590Y670871D01*
X40926Y672277D01*
X42211Y673728D01*
X43445Y675223D01*
X44626Y676760D01*
X45753Y678338D01*
X46824Y679954D01*
X47838Y681606D01*
X48794Y683293D01*
X49690Y685012D01*
X50526Y686761D01*
X51300Y688539D01*
X52012Y690342D01*
X52660Y692169D01*
X53244Y694018D01*
X53763Y695885D01*
X54217Y697770D01*
X54605Y699670D01*
X54926Y701582D01*
X55180Y703504D01*
X55367Y705433D01*
X55487Y707368D01*
X55539Y709306D01*
X55523Y711245D01*
X55440Y713182D01*
X55289Y715114D01*
X55071Y717041D01*
X54785Y718958D01*
X54433Y720865D01*
X54015Y722758D01*
X53531Y724635D01*
X52981Y726494D01*
X52367Y728333D01*
X51689Y730149D01*
X50949Y731941D01*
X50146Y733705D01*
X49282Y735441D01*
X48358Y737145D01*
X47375Y738816D01*
X46334Y740452D01*
X45237Y742050D01*
X44085Y743609D01*
X42879Y745127D01*
X41621Y746602D01*
X40312Y748033D01*
X38954Y749416D01*
X37549Y750752D01*
X36098Y752037D01*
X34603Y753271D01*
X33065Y754452D01*
X31488Y755579D01*
X29872Y756650D01*
X28219Y757664D01*
X26533Y758620D01*
X24814Y759516D01*
X23064Y760352D01*
X21287Y761126D01*
X19484Y761838D01*
X17657Y762486D01*
X15808Y763070D01*
X13940Y763589D01*
X12055Y764043D01*
X10156Y764431D01*
X8244Y764752D01*
X6322Y765006D01*
X4393Y765193D01*
X2458Y765313D01*
X520Y765365D01*
X-1419Y765349D01*
X-3356Y765266D01*
X-5289Y765115D01*
X-7215Y764897D01*
X-9132Y764611D01*
X-11039Y764259D01*
X-12932Y763841D01*
X-14809Y763356D01*
X-16668Y762807D01*
X-18507Y762193D01*
X-20323Y761515D01*
X-22115Y760774D01*
X-23880Y759972D01*
X-25615Y759108D01*
X-27319Y758184D01*
X-28990Y757201D01*
X-30626Y756160D01*
X-32225Y755063D01*
X-33784Y753911D01*
X-35302Y752705D01*
X-36777Y751447D01*
X-38207Y750138D01*
X-39590Y748780D01*
X-40926Y747375D01*
X-42211Y745924D01*
X-43445Y744428D01*
X-44626Y742891D01*
X-45753Y741314D01*
X-46824Y739698D01*
X-47838Y738045D01*
X-48794Y736359D01*
X-49690Y734640D01*
X-50526Y732890D01*
X-51300Y731113D01*
X-52012Y729310D01*
X-52660Y727482D01*
X-53244Y725634D01*
X-53763Y723766D01*
X-54217Y721881D01*
X-54605Y719982D01*
X-54926Y718070D01*
X-55180Y716148D01*
X-55367Y714218D01*
X-55487Y712283D01*
X-55539Y710345D01*
X-55523Y708407D01*
X-55440Y706470D01*
X-55289Y704537D01*
X-55071Y702611D01*
X-54785Y700693D01*
X-54433Y698787D01*
X-54015Y696894D01*
X-53531Y695017D01*
X-52981Y693158D01*
X-52367Y691319D01*
X-51689Y689502D01*
X-50949Y687711D01*
X-50146Y685946D01*
X-49282Y684211D01*
X-48358Y682506D01*
X-47375Y680835D01*
X-46334Y679200D01*
X-45237Y677601D01*
X-44085Y676042D01*
X-42879Y674524D01*
X-41621Y673049D01*
X-40312Y671619D01*
X-38954Y670235D01*
X-37549Y668900D01*
X-36098Y667615D01*
X-34603Y666381D01*
X-33065Y665199D01*
X-31488Y664073D01*
X-29872Y663002D01*
X-28219Y661988D01*
X-26533Y661032D01*
X-24814Y660136D01*
X-23064Y659300D01*
X-22986Y659262D01*
X-22906Y659221D01*
X-22827Y659176D01*
X-22751Y659130D01*
X-22676Y659080D01*
X-22603Y659028D01*
X-22531Y658973D01*
X-22462Y658916D01*
X-22394Y658856D01*
X-22329Y658794D01*
X-22266Y658730D01*
X-22205Y658664D01*
X-22147Y658596D01*
X-22091Y658525D01*
X-22037Y658453D01*
X-21986Y658379D01*
X-21938Y658303D01*
X-21892Y658226D01*
X-21850Y658147D01*
X-21809Y658066D01*
X-21772Y657984D01*
X-21738Y657901D01*
X-21706Y657817D01*
X-21678Y657732D01*
X-21652Y657646D01*
X-21629Y657559D01*
X-21610Y657471D01*
X-21594Y657382D01*
X-21580Y657293D01*
X-21570Y657204D01*
X-21563Y657114D01*
X-21559Y657025D01*
X-21558Y656935D01*
X-21561Y656845D01*
X-21566Y656755D01*
X-21575Y656666D01*
X-21586Y656576D01*
X-21601Y656488D01*
X-21619Y656400D01*
X-21640Y656312D01*
X-21664Y656226D01*
X-21691Y656140D01*
X-21721Y656055D01*
X-21754Y655971D01*
X-56709Y571505D01*
X-56730Y571457D01*
X-56757Y571398D01*
X-56786Y571341D01*
X-56817Y571285D01*
X-56851Y571230D01*
X-56886Y571176D01*
X-56923Y571124D01*
X-56961Y571073D01*
X-57002Y571023D01*
X-57044Y570974D01*
X-57088Y570927D01*
X-57133Y570882D01*
X-57181Y570838D01*
X-57229Y570796D01*
X-57279Y570756D01*
X-57330Y570718D01*
X-57383Y570681D01*
X-57437Y570646D01*
X-57492Y570613D01*
X-57548Y570582D01*
X-57606Y570553D01*
X-57664Y570526D01*
X-57723Y570501D01*
X-57783Y570478D01*
X-57844Y570457D01*
X-57905Y570439D01*
X-57968Y570422D01*
X-58030Y570408D01*
X-58093Y570396D01*
X-58157Y570386D01*
X-58220Y570378D01*
X-58284Y570373D01*
X-58349Y570369D01*
X-58413Y570368D01*
X-58477Y570370D01*
X-58541Y570373D01*
X-58605Y570379D01*
X-58669Y570387D01*
X-58732Y570397D01*
X-58795Y570409D01*
X-58858Y570424D01*
X-58920Y570441D01*
X-58981Y570460D01*
X-59042Y570481D01*
X-59102Y570504D01*
X-59161Y570529D01*
X-59219Y570556D01*
X-59276Y570586D01*
X-76334Y579700D01*
X-76367Y579718D01*
X-76482Y579775D01*
X-76599Y579829D01*
X-76718Y579878D01*
X-76838Y579923D01*
X-76960Y579964D01*
X-77083Y580000D01*
X-77207Y580033D01*
X-77333Y580060D01*
X-77459Y580084D01*
X-77586Y580103D01*
X-77714Y580118D01*
X-77842Y580128D01*
X-77970Y580133D01*
X-78099Y580135D01*
X-78227Y580131D01*
X-78355Y580123D01*
X-78483Y580111D01*
X-78610Y580094D01*
X-78737Y580073D01*
X-78863Y580048D01*
X-78988Y580018D01*
X-79112Y579984D01*
X-79234Y579945D01*
X-79355Y579902D01*
X-79475Y579855D01*
X-79593Y579804D01*
X-79709Y579749D01*
X-79823Y579689D01*
X-79935Y579626D01*
X-80044Y579559D01*
X-80151Y579488D01*
X-118396Y553230D01*
X-118451Y553193D01*
X-118528Y553146D01*
X-118606Y553101D01*
X-118685Y553058D01*
X-118766Y553019D01*
X-118848Y552982D01*
X-118931Y552949D01*
X-119016Y552918D01*
X-119101Y552890D01*
X-119188Y552865D01*
X-119275Y552844D01*
X-119363Y552825D01*
X-119451Y552809D01*
X-119541Y552797D01*
X-119630Y552787D01*
X-119720Y552781D01*
X-119810Y552778D01*
X-119899D01*
X-119989Y552781D01*
X-120079Y552787D01*
X-120168Y552797D01*
X-120257Y552809D01*
X-120346Y552825D01*
X-120434Y552844D01*
X-120521Y552865D01*
X-120608Y552890D01*
X-120693Y552918D01*
X-120778Y552949D01*
X-120861Y552982D01*
X-120943Y553019D01*
X-121024Y553058D01*
X-121103Y553101D01*
X-121181Y553146D01*
X-121258Y553193D01*
X-121332Y553244D01*
X-121405Y553296D01*
X-121476Y553352D01*
X-121545Y553410D01*
X-121611Y553470D01*
X-121676Y553532D01*
X-156712Y588568D01*
X-156758Y588615D01*
X-156819Y588682D01*
X-156877Y588750D01*
X-156933Y588820D01*
X-156987Y588893D01*
X-157038Y588967D01*
X-157086Y589042D01*
X-157132Y589120D01*
X-157175Y589199D01*
X-157215Y589279D01*
X-157252Y589361D01*
X-157287Y589444D01*
X-157318Y589528D01*
X-157347Y589614D01*
X-157372Y589700D01*
X-157395Y589787D01*
X-157414Y589875D01*
X-157431Y589963D01*
X-157444Y590052D01*
X-157454Y590141D01*
X-157461Y590231D01*
X-157465Y590321D01*
X-157466Y590411D01*
X-157464Y590501D01*
X-157458Y590590D01*
X-157450Y590680D01*
X-157438Y590769D01*
X-157423Y590858D01*
X-157406Y590946D01*
X-157385Y591033D01*
X-157361Y591120D01*
X-157334Y591206D01*
X-157304Y591291D01*
X-157271Y591374D01*
X-157235Y591457D01*
X-157196Y591538D01*
X-157155Y591618D01*
X-157111Y591696D01*
X-157064Y591773D01*
X-157014Y591848D01*
X-129751Y631556D01*
X-129726Y631593D01*
X-129678Y631668D01*
X-129632Y631746D01*
X-129589Y631825D01*
X-129549Y631905D01*
X-129512Y631987D01*
X-129478Y632070D01*
X-129446Y632154D01*
X-129418Y632240D01*
X-129392Y632326D01*
X-129370Y632413D01*
X-129350Y632501D01*
X-129334Y632589D01*
X-129320Y632678D01*
X-129310Y632768D01*
X-129303Y632857D01*
X-129299Y632947D01*
X-129298Y633037D01*
X-129301Y633127D01*
X-129306Y633217D01*
X-129315Y633306D01*
X-129327Y633395D01*
X-129342Y633484D01*
X-129359Y633572D01*
X-129380Y633659D01*
X-129404Y633746D01*
X-129432Y633832D01*
X-129462Y633917D01*
X-129494Y634000D01*
X-145479Y672590D01*
X-145496Y672630D01*
X-145533Y672712D01*
X-145573Y672793D01*
X-145616Y672872D01*
X-145662Y672949D01*
X-145710Y673025D01*
X-145761Y673099D01*
X-145814Y673171D01*
X-145870Y673242D01*
X-145929Y673310D01*
X-145989Y673377D01*
X-146052Y673441D01*
X-146118Y673503D01*
X-146185Y673562D01*
X-146254Y673620D01*
X-146326Y673674D01*
X-146399Y673727D01*
X-146474Y673776D01*
X-146550Y673823D01*
X-146629Y673868D01*
X-146708Y673909D01*
X-146790Y673948D01*
X-146872Y673984D01*
X-146956Y674017D01*
X-147040Y674047D01*
X-147126Y674074D01*
X-147213Y674098D01*
X-147300Y674119D01*
X-147388Y674137D01*
X-194744Y682937D01*
X-194809Y682950D01*
X-194897Y682970D01*
X-194984Y682994D01*
X-195070Y683020D01*
X-195155Y683049D01*
X-195239Y683081D01*
X-195322Y683117D01*
X-195403Y683155D01*
X-195483Y683195D01*
X-195562Y683239D01*
X-195639Y683285D01*
X-195714Y683334D01*
X-195788Y683386D01*
X-195860Y683440D01*
X-195930Y683497D01*
X-195998Y683556D01*
X-196063Y683617D01*
X-196127Y683680D01*
X-196188Y683746D01*
X-196247Y683814D01*
X-196304Y683884D01*
X-196358Y683956D01*
X-196410Y684029D01*
X-196459Y684105D01*
X-196505Y684182D01*
X-196548Y684261D01*
X-196589Y684341D01*
X-196627Y684422D01*
X-196662Y684505D01*
X-196695Y684589D01*
X-196724Y684674D01*
X-196750Y684760D01*
X-196773Y684847D01*
X-196794Y684934D01*
X-196811Y685023D01*
X-196825Y685111D01*
X-196836Y685201D01*
X-196844Y685290D01*
X-196848Y685380D01*
X-196850Y685470D01*
Y735018D01*
X-196849Y735084D01*
X-196845Y735174D01*
X-196838Y735264D01*
X-196828Y735353D01*
X-196815Y735442D01*
X-196798Y735530D01*
X-196779Y735618D01*
X-196757Y735705D01*
X-196731Y735792D01*
X-196703Y735877D01*
X-196671Y735961D01*
X-196637Y736044D01*
X-196600Y736126D01*
X-196559Y736206D01*
X-196517Y736285D01*
X-196471Y736363D01*
X-196423Y736439D01*
X-196372Y736513D01*
X-196318Y736585D01*
X-196262Y736656D01*
X-196204Y736724D01*
X-196143Y736790D01*
X-196080Y736855D01*
X-196015Y736917D01*
X-195948Y736976D01*
X-195878Y737033D01*
X-195807Y737088D01*
X-195734Y737140D01*
X-195659Y737190D01*
X-195582Y737237D01*
X-195504Y737281D01*
X-195424Y737323D01*
X-195343Y737362D01*
X-195261Y737398D01*
X-195177Y737431D01*
X-195092Y737461D01*
X-195007Y737488D01*
X-194920Y737512D01*
X-194833Y737533D01*
X-194744Y737551D01*
X-147388Y746351D01*
X-147345Y746359D01*
X-147258Y746379D01*
X-147170Y746401D01*
X-147084Y746427D01*
X-146999Y746455D01*
X-146915Y746487D01*
X-146832Y746521D01*
X-146750Y746559D01*
X-146669Y746599D01*
X-146590Y746642D01*
X-146513Y746687D01*
X-146437Y746736D01*
X-146363Y746787D01*
X-146291Y746840D01*
X-146220Y746896D01*
X-146152Y746954D01*
X-146086Y747015D01*
X-146021Y747078D01*
X-145960Y747143D01*
X-145900Y747211D01*
X-145843Y747280D01*
X-145788Y747351D01*
X-145736Y747425D01*
X-145686Y747500D01*
X-145639Y747576D01*
X-145595Y747655D01*
X-145553Y747734D01*
X-145515Y747815D01*
X-145479Y747898D01*
X-129494Y786488D01*
X-129478Y786528D01*
X-129447Y786612D01*
X-129418Y786698D01*
X-129392Y786784D01*
X-129370Y786871D01*
X-129350Y786959D01*
X-129334Y787047D01*
X-129321Y787136D01*
X-129310Y787225D01*
X-129303Y787315D01*
X-129299Y787405D01*
X-129298Y787495D01*
X-129301Y787585D01*
X-129306Y787674D01*
X-129315Y787764D01*
X-129327Y787853D01*
X-129341Y787942D01*
X-129359Y788030D01*
X-129380Y788117D01*
X-129404Y788204D01*
X-129431Y788290D01*
X-129461Y788375D01*
X-129494Y788458D01*
X-129530Y788541D01*
X-129568Y788622D01*
X-129610Y788702D01*
X-129654Y788780D01*
X-129701Y788857D01*
X-129751Y788932D01*
X-157014Y828640D01*
X-157051Y828695D01*
X-157098Y828772D01*
X-157143Y828850D01*
X-157186Y828929D01*
X-157225Y829010D01*
X-157262Y829092D01*
X-157295Y829175D01*
X-157326Y829260D01*
X-157354Y829345D01*
X-157379Y829432D01*
X-157400Y829519D01*
X-157419Y829607D01*
X-157435Y829695D01*
X-157447Y829785D01*
X-157457Y829874D01*
X-157463Y829964D01*
X-157466Y830053D01*
Y830143D01*
X-157463Y830233D01*
X-157457Y830323D01*
X-157447Y830412D01*
X-157435Y830501D01*
X-157419Y830590D01*
X-157400Y830678D01*
X-157379Y830765D01*
X-157354Y830852D01*
X-157326Y830937D01*
X-157295Y831022D01*
X-157262Y831105D01*
X-157225Y831187D01*
X-157186Y831268D01*
X-157143Y831347D01*
X-157098Y831425D01*
X-157051Y831502D01*
X-157000Y831576D01*
X-156948Y831649D01*
X-156892Y831720D01*
X-156834Y831789D01*
X-156774Y831855D01*
X-156712Y831920D01*
X-121676Y866956D01*
X-121629Y867002D01*
X-121562Y867063D01*
X-121494Y867121D01*
X-121424Y867177D01*
X-121351Y867231D01*
X-121277Y867282D01*
X-121202Y867330D01*
X-121124Y867376D01*
X-121045Y867419D01*
X-120965Y867459D01*
X-120883Y867496D01*
X-120800Y867531D01*
X-120716Y867562D01*
X-120630Y867591D01*
X-120544Y867616D01*
X-120457Y867639D01*
X-120369Y867658D01*
X-120281Y867675D01*
X-120192Y867688D01*
X-120103Y867698D01*
X-120013Y867705D01*
X-119923Y867709D01*
X-119833Y867710D01*
X-119743Y867708D01*
X-119654Y867702D01*
X-119564Y867694D01*
X-119475Y867682D01*
X-119386Y867667D01*
X-119298Y867650D01*
X-119211Y867629D01*
X-119124Y867605D01*
X-119038Y867578D01*
X-118953Y867548D01*
X-118870Y867515D01*
X-118787Y867479D01*
X-118706Y867440D01*
X-118626Y867399D01*
X-118548Y867355D01*
X-118471Y867308D01*
X-118396Y867258D01*
X-78688Y839995D01*
X-78651Y839970D01*
X-78576Y839922D01*
X-78498Y839876D01*
X-78419Y839833D01*
X-78339Y839793D01*
X-78257Y839756D01*
X-78174Y839722D01*
X-78090Y839690D01*
X-78004Y839662D01*
X-77918Y839636D01*
X-77831Y839614D01*
X-77743Y839594D01*
X-77655Y839578D01*
X-77566Y839564D01*
X-77476Y839554D01*
X-77387Y839547D01*
X-77297Y839543D01*
X-77207Y839542D01*
X-77117Y839545D01*
X-77027Y839550D01*
X-76938Y839559D01*
X-76849Y839571D01*
X-76760Y839586D01*
X-76672Y839603D01*
X-76585Y839624D01*
X-76498Y839648D01*
X-76412Y839676D01*
X-76327Y839706D01*
X-76244Y839738D01*
X-37654Y855723D01*
X-37614Y855740D01*
X-37532Y855777D01*
X-37451Y855817D01*
X-37372Y855860D01*
X-37295Y855906D01*
X-37219Y855954D01*
X-37145Y856005D01*
X-37073Y856058D01*
X-37002Y856114D01*
X-36934Y856173D01*
X-36867Y856233D01*
X-36803Y856296D01*
X-36741Y856362D01*
X-36682Y856429D01*
X-36624Y856498D01*
X-36570Y856570D01*
X-36517Y856643D01*
X-36468Y856718D01*
X-36421Y856794D01*
X-36376Y856873D01*
X-36335Y856952D01*
X-36296Y857033D01*
X-36260Y857116D01*
X-36227Y857200D01*
X-36197Y857284D01*
X-36170Y857370D01*
X-36146Y857457D01*
X-36125Y857544D01*
X-36107Y857632D01*
X-27307Y904988D01*
X-27294Y905053D01*
X-27274Y905141D01*
X-27250Y905228D01*
X-27224Y905314D01*
X-27195Y905399D01*
X-27163Y905483D01*
X-27127Y905566D01*
X-27089Y905647D01*
X-27049Y905727D01*
X-27005Y905806D01*
X-26959Y905883D01*
X-26910Y905958D01*
X-26858Y906032D01*
X-26804Y906104D01*
X-26747Y906174D01*
X-26688Y906242D01*
X-26627Y906307D01*
X-26564Y906371D01*
X-26498Y906432D01*
X-26430Y906491D01*
X-26360Y906548D01*
X-26288Y906602D01*
X-26215Y906654D01*
X-26139Y906703D01*
X-26062Y906749D01*
X-25983Y906792D01*
X-25903Y906833D01*
X-25822Y906871D01*
X-25739Y906906D01*
X-25655Y906939D01*
X-25570Y906968D01*
X-25484Y906994D01*
X-25397Y907017D01*
X-25310Y907038D01*
X-25221Y907055D01*
X-25133Y907069D01*
X-25043Y907080D01*
X-24954Y907088D01*
X-24864Y907092D01*
X-24774Y907094D01*
X24774D01*
G37*
G36*
X247486Y-67909D02*
X263061D01*
X255273Y-48900D01*
Y-33421D01*
X261051D01*
X286174Y-92476D01*
X273027D01*
X267667Y-79307D01*
X247486D01*
Y-67909D01*
X224039Y-92476D02*
X249161Y-33421D01*
X255273D01*
Y-48900D01*
X247486Y-67909D01*
Y-79307D01*
X242880D01*
X237521Y-92476D01*
X224039D01*
G37*
G36*
X215811Y-248578D02*
X228567D01*
Y-293460D01*
X215811D01*
Y-248578D01*
G37*
G36*
X215457Y-232338D02*
X228922D01*
Y-243618D01*
X215457D01*
Y-232338D01*
G37*
G36*
X213293Y-386582D02*
X220579Y-380134D01*
X222347Y-381605D01*
X224078Y-382777D01*
X225771Y-383651D01*
X227520Y-384256D01*
X229418Y-384619D01*
X231465Y-384740D01*
X233514Y-384601D01*
X235390Y-384185D01*
X237094Y-383491D01*
X238625Y-382519D01*
X239947Y-381275D01*
X241022Y-379764D01*
X241852Y-377986D01*
X242435Y-375941D01*
X223426D01*
Y-367968D01*
X242602D01*
X242118Y-365909D01*
X241420Y-364069D01*
X240507Y-362448D01*
X239379Y-361046D01*
X238046Y-359915D01*
X236521Y-359107D01*
X234801Y-358622D01*
X232889Y-358460D01*
Y-348244D01*
X234830Y-348317D01*
X236701Y-348538D01*
X238501Y-348907D01*
X240231Y-349422D01*
X241891Y-350085D01*
X243470Y-350876D01*
X244959Y-351773D01*
X246357Y-352778D01*
X247665Y-353889D01*
X248883Y-355108D01*
X250003Y-356424D01*
X251020Y-357827D01*
X251933Y-359318D01*
X252742Y-360895D01*
X253447Y-362559D01*
X254034Y-364287D01*
X254492Y-366055D01*
X254818Y-367863D01*
X255014Y-369711D01*
X255079Y-371600D01*
Y-371767D01*
X255009Y-373805D01*
X254798Y-375765D01*
X254446Y-377649D01*
X253954Y-379455D01*
X253321Y-381185D01*
X252563Y-382831D01*
X251693Y-384386D01*
X250714Y-385851D01*
X249623Y-387226D01*
X248422Y-388510D01*
X247119Y-389692D01*
X245722Y-390760D01*
X244232Y-391715D01*
X242647Y-392555D01*
X240969Y-393282D01*
X239216Y-393885D01*
X237406Y-394354D01*
X235538Y-394688D01*
X233614Y-394889D01*
X231633Y-394956D01*
X229639Y-394895D01*
X227734Y-394710D01*
X225917Y-394401D01*
X224189Y-393970D01*
X222549Y-393415D01*
X220998Y-392737D01*
X219242Y-391781D01*
X217594Y-390687D01*
X216054Y-389456D01*
X214620Y-388088D01*
X213293Y-386582D01*
X211033Y-372594D02*
X211084Y-370701D01*
X211240Y-368838D01*
X211500Y-367006D01*
X211863Y-365203D01*
X212330Y-363431D01*
X212906Y-361714D01*
X213596Y-360077D01*
X214400Y-358521D01*
X215318Y-357045D01*
X216350Y-355649D01*
X217494Y-354349D01*
X218748Y-353159D01*
X220113Y-352080D01*
X221589Y-351111D01*
X223175Y-350252D01*
X224876Y-349529D01*
X226699Y-348967D01*
X228641Y-348565D01*
X230705Y-348324D01*
X232889Y-348244D01*
Y-358460D01*
X230978Y-358624D01*
X229267Y-359117D01*
X227754Y-359938D01*
X226440Y-361087D01*
X225341Y-362502D01*
X224472Y-364121D01*
X223834Y-365943D01*
X223426Y-367968D01*
Y-375941D01*
X211200D01*
X211127Y-375041D01*
X211075Y-374183D01*
X211043Y-373368D01*
X211033Y-372594D01*
G37*
G36*
X203026Y-31354D02*
X215782D01*
Y-92476D01*
X203026D01*
Y-31354D01*
G37*
G36*
X177750D02*
X190506D01*
Y-92476D01*
X177750D01*
Y-31354D01*
G37*
G36*
X212454Y-449563D02*
X194868Y-494587D01*
X195737Y-495999D01*
X196669Y-496888D01*
X197810Y-497358D01*
X199306Y-497515D01*
X200615Y-497390D01*
X202028Y-497013D01*
X203441Y-496448D01*
X204750Y-495757D01*
X209020Y-504982D01*
X207373Y-505868D01*
X205670Y-506623D01*
X203912Y-507247D01*
X202032Y-507713D01*
X199967Y-507993D01*
X197716Y-508086D01*
X195892Y-508012D01*
X194217Y-507788D01*
X192691Y-507416D01*
X191291Y-506877D01*
X189993Y-506151D01*
X188797Y-505240D01*
X187685Y-504137D01*
X186638Y-502840D01*
X185657Y-501347D01*
X184726Y-499639D01*
X183833Y-497700D01*
X182977Y-495528D01*
X165726Y-449563D01*
X178957D01*
X188755Y-480127D01*
X198971Y-449563D01*
X212454D01*
G37*
G36*
X183172Y-366675D02*
X183989Y-366607D01*
X186180Y-366551D01*
X188145Y-366606D01*
X190021Y-366771D01*
X191808Y-367045D01*
X193507Y-367430D01*
X195609Y-368114D01*
X197507Y-368994D01*
X199200Y-370069D01*
X200675Y-371344D01*
X201917Y-372824D01*
X202926Y-374508D01*
X203513Y-375912D01*
X203931Y-377440D01*
X204182Y-379094D01*
X204266Y-380874D01*
Y-381041D01*
X204131Y-383187D01*
X203726Y-385156D01*
X203052Y-386947D01*
X202145Y-388562D01*
X201042Y-390000D01*
X199744Y-391261D01*
X198270Y-392336D01*
X196637Y-393216D01*
X194846Y-393900D01*
X192935Y-394388D01*
X190939Y-394681D01*
X188859Y-394779D01*
X186604Y-394682D01*
X185019Y-394460D01*
Y-385980D01*
X186958Y-385822D01*
X188636Y-385347D01*
X190053Y-384556D01*
X191125Y-383476D01*
X191768Y-382136D01*
X191983Y-380535D01*
Y-380368D01*
X191722Y-378516D01*
X190939Y-376980D01*
X189633Y-375761D01*
X188349Y-375064D01*
X186844Y-374567D01*
X185118Y-374268D01*
X183172Y-374169D01*
Y-366675D01*
X162987Y-367894D02*
X163060Y-365687D01*
X163280Y-363589D01*
X163646Y-361602D01*
X164159Y-359724D01*
X164829Y-357973D01*
X165666Y-356362D01*
X166671Y-354893D01*
X167843Y-353566D01*
X169138Y-352422D01*
X170595Y-351419D01*
X172215Y-350558D01*
X173997Y-349838D01*
X175550Y-349370D01*
X177226Y-349006D01*
X179027Y-348747D01*
X180951Y-348591D01*
X182999Y-348539D01*
X185210Y-348579D01*
X187286Y-348699D01*
X189229Y-348900D01*
X191038Y-349181D01*
X192713Y-349542D01*
X194701Y-350080D01*
X196648Y-350691D01*
X198553Y-351376D01*
X200416Y-352133D01*
X197235Y-361834D01*
X195202Y-361112D01*
X193234Y-360512D01*
X191331Y-360033D01*
X189874Y-359758D01*
X188306Y-359562D01*
X186628Y-359444D01*
X184841Y-359405D01*
X182601Y-359536D01*
X180654Y-359930D01*
X179000Y-360586D01*
X177640Y-361505D01*
X176577Y-362675D01*
X175818Y-364088D01*
X175363Y-365741D01*
X175211Y-367637D01*
Y-368393D01*
X176844Y-367872D01*
X178505Y-367425D01*
X180193Y-367053D01*
X181993Y-366774D01*
X183172Y-366675D01*
Y-374169D01*
X181639Y-374220D01*
X180171Y-374374D01*
X178768Y-374630D01*
X176807Y-375164D01*
X175034Y-375845D01*
Y-378106D01*
X175204Y-379781D01*
X175716Y-381289D01*
X176568Y-382629D01*
X177761Y-383802D01*
X179237Y-384755D01*
X180938Y-385435D01*
X182866Y-385844D01*
X185019Y-385980D01*
Y-394460D01*
X184527Y-394392D01*
X182627Y-393907D01*
X180905Y-393229D01*
X179330Y-392388D01*
X177870Y-391417D01*
X176525Y-390314D01*
X175295Y-389080D01*
X175270Y-393952D01*
X162987D01*
Y-367894D01*
G37*
G36*
X177999Y-247752D02*
X179559Y-247817D01*
X181009Y-248013D01*
X182347Y-248339D01*
X184186Y-249031D01*
X185858Y-249932D01*
X187374Y-251012D01*
X188743Y-252239D01*
X189987Y-253570D01*
X191126Y-254965D01*
Y-248578D01*
X203882D01*
Y-293460D01*
X191126D01*
Y-268446D01*
X190994Y-266325D01*
X190595Y-264482D01*
X189931Y-262916D01*
X189000Y-261627D01*
X187841Y-260621D01*
X186489Y-259902D01*
X184944Y-259470D01*
X183206Y-259326D01*
X181476Y-259470D01*
X179954Y-259902D01*
X178641Y-260621D01*
X177537Y-261627D01*
X176661Y-262916D01*
X176036Y-264482D01*
X175661Y-266325D01*
X175536Y-268446D01*
Y-293460D01*
X162780D01*
Y-264411D01*
X162861Y-262255D01*
X163104Y-260235D01*
X163509Y-258353D01*
X164077Y-256607D01*
X164806Y-254997D01*
X165698Y-253525D01*
X166752Y-252189D01*
X168168Y-250833D01*
X169767Y-249724D01*
X171549Y-248861D01*
X173516Y-248245D01*
X175665Y-247875D01*
X177999Y-247752D01*
G37*
G36*
X147809Y-136629D02*
X160565D01*
Y-148086D01*
X165925D01*
Y-158952D01*
X160565D01*
Y-180242D01*
X160505Y-182125D01*
X160324Y-183835D01*
X160022Y-185373D01*
X159600Y-186737D01*
X158873Y-188334D01*
X157978Y-189717D01*
X156915Y-190886D01*
X155693Y-191840D01*
X154322Y-192581D01*
X152802Y-193107D01*
X151147Y-193456D01*
X149371Y-193666D01*
X147474Y-193736D01*
X145437Y-193657D01*
X143566Y-193419D01*
X141864Y-193024D01*
X140292Y-192498D01*
X138812Y-191870D01*
X137426Y-191140D01*
Y-180925D01*
X138917Y-181646D01*
X140461Y-182162D01*
X142057Y-182471D01*
X143706Y-182574D01*
X145501Y-182301D01*
X146784Y-181482D01*
X147553Y-180116D01*
X147809Y-178203D01*
Y-158952D01*
X137258D01*
Y-148086D01*
X147809D01*
Y-136629D01*
G37*
G36*
X155076Y218804D02*
X170398D01*
Y231737D01*
X155494D01*
Y242725D01*
X156472Y242576D01*
X158498Y242485D01*
X170398D01*
Y254886D01*
X157661D01*
Y266166D01*
X182977D01*
Y207524D01*
X155115D01*
X155076Y207525D01*
Y218804D01*
X133193Y223785D02*
X133310Y226030D01*
X133660Y228070D01*
X134243Y229906D01*
X135060Y231537D01*
X136110Y232963D01*
X137363Y234233D01*
X138790Y235391D01*
X140391Y236439D01*
X142164Y237376D01*
X144111Y238202D01*
X142579Y239123D01*
X141151Y240212D01*
X139859Y241478D01*
X138734Y242933D01*
X137796Y244576D01*
X137066Y246407D01*
X136719Y247756D01*
X136511Y249235D01*
X136441Y250845D01*
Y251012D01*
X136553Y252940D01*
X136888Y254761D01*
X137446Y256475D01*
X138227Y258082D01*
X139231Y259582D01*
X140459Y260975D01*
X141833Y262192D01*
X143362Y263246D01*
X145045Y264138D01*
X146883Y264868D01*
X148875Y265436D01*
X151021Y265841D01*
X153321Y266085D01*
X155775Y266166D01*
X157661D01*
Y254886D01*
X155728Y254789D01*
X154036Y254499D01*
X152586Y254014D01*
X151376Y253336D01*
X150166Y252149D01*
X149439Y250655D01*
X149197Y248853D01*
Y248685D01*
X149477Y246707D01*
X150315Y245129D01*
X151711Y243951D01*
X153078Y243309D01*
X154665Y242851D01*
X155494Y242725D01*
Y231737D01*
X153155Y231629D01*
X151161Y231306D01*
X149513Y230768D01*
X148210Y230015D01*
X146954Y228732D01*
X146200Y227178D01*
X145949Y225354D01*
Y225186D01*
X146219Y223194D01*
X147028Y221584D01*
X148377Y220357D01*
X149707Y219677D01*
X151266Y219192D01*
X153056Y218901D01*
X155076Y218804D01*
Y207525D01*
X153175Y207564D01*
X151306Y207685D01*
X149507Y207886D01*
X147779Y208168D01*
X146120Y208530D01*
X144165Y209096D01*
X142355Y209787D01*
X140692Y210604D01*
X139176Y211547D01*
X137816Y212616D01*
X136624Y213810D01*
X135599Y215131D01*
X134741Y216577D01*
X134064Y218148D01*
X133580Y219846D01*
X133290Y221669D01*
X133193Y223617D01*
Y223785D01*
G37*
G36*
X145871Y152859D02*
X156170D01*
X154078Y165083D01*
X165131D01*
X167225Y152859D01*
X176435D01*
Y142111D01*
X169067D01*
X171160Y129709D01*
X179367D01*
Y118961D01*
X173003D01*
X175180Y106441D01*
X164126D01*
X161949Y118961D01*
X149806D01*
X151984Y106441D01*
X147964D01*
Y129709D01*
X160107D01*
X158013Y142111D01*
X145871D01*
Y152859D01*
X126611D02*
X132975D01*
X130881Y165083D01*
X141935D01*
X144028Y152859D01*
X145871D01*
Y142111D01*
X147964Y129709D01*
Y106441D01*
X140930D01*
X138753Y118961D01*
X129541D01*
Y129709D01*
X136910D01*
X134817Y142111D01*
X126611D01*
Y152859D01*
G37*
G36*
X124986Y-348221D02*
X127169Y-348241D01*
X129166Y-348502D01*
X130975Y-349005D01*
X132596Y-349748D01*
X134029Y-350733D01*
X135312Y-351912D01*
X136481Y-353239D01*
X137537Y-354713D01*
X138478Y-356334D01*
X139306Y-358102D01*
Y-349070D01*
X152061D01*
Y-393952D01*
X139306D01*
Y-377364D01*
X139231Y-375130D01*
X139008Y-373070D01*
X138636Y-371184D01*
X138116Y-369473D01*
X137447Y-367936D01*
X136629Y-366573D01*
X135663Y-365385D01*
X134373Y-364207D01*
X132932Y-363244D01*
X131339Y-362495D01*
X129596Y-361959D01*
X127701Y-361638D01*
X125655Y-361531D01*
X124986D01*
Y-348221D01*
G37*
G36*
X136580Y-247929D02*
X138267Y-247986D01*
X139897Y-248159D01*
X141469Y-248446D01*
X142983Y-248849D01*
X144879Y-249564D01*
X146607Y-250484D01*
X148168Y-251609D01*
X149544Y-252924D01*
X150715Y-254416D01*
X151681Y-256084D01*
X152401Y-257929D01*
X152833Y-259951D01*
X152977Y-262149D01*
Y-262317D01*
X152842Y-264380D01*
X152436Y-266220D01*
X151760Y-267837D01*
X150870Y-269264D01*
X149821Y-270533D01*
X148614Y-271643D01*
X147276Y-272610D01*
X145836Y-273447D01*
X144293Y-274153D01*
X142704Y-274762D01*
X141124Y-275306D01*
X139553Y-275784D01*
X137749Y-276349D01*
X136029Y-276872D01*
X134446Y-277384D01*
X133051Y-277917D01*
X131887Y-278513D01*
X130996Y-279214D01*
X130429Y-280030D01*
X130241Y-280971D01*
Y-281138D01*
X130565Y-282497D01*
X131539Y-283564D01*
X132567Y-284075D01*
X133921Y-284382D01*
X135600Y-284484D01*
X137220Y-284400D01*
X138897Y-284149D01*
X140632Y-283730D01*
X142425Y-283144D01*
X144249Y-282390D01*
X146078Y-281468D01*
X147913Y-280380D01*
X149753Y-279124D01*
X155195Y-287500D01*
X153675Y-288621D01*
X152129Y-289637D01*
X150558Y-290548D01*
X148961Y-291355D01*
X147339Y-292056D01*
X145691Y-292653D01*
X143706Y-293241D01*
X141738Y-293699D01*
X139787Y-294026D01*
X137852Y-294222D01*
X135935Y-294287D01*
X134163Y-294232D01*
X132450Y-294067D01*
X130795Y-293793D01*
X129197Y-293409D01*
X127194Y-292725D01*
X125367Y-291847D01*
X123718Y-290774D01*
X122273Y-289496D01*
X121060Y-288004D01*
X120080Y-286298D01*
X119513Y-284874D01*
X119108Y-283318D01*
X118865Y-281632D01*
X118784Y-279816D01*
Y-279648D01*
X118924Y-277687D01*
X119343Y-275930D01*
X120042Y-274378D01*
X120956Y-273002D01*
X122019Y-271776D01*
X123231Y-270698D01*
X124573Y-269745D01*
X126027Y-268895D01*
X127593Y-268146D01*
X129206Y-267482D01*
X130800Y-266882D01*
X132375Y-266347D01*
X134169Y-265762D01*
X135857Y-265177D01*
X137399Y-264581D01*
X138751Y-263964D01*
X139884Y-263316D01*
X140765Y-262626D01*
X141331Y-261862D01*
X141520Y-260995D01*
Y-260827D01*
X141227Y-259604D01*
X140348Y-258610D01*
X138882Y-257951D01*
X136831Y-257732D01*
X135128Y-257857D01*
X133258Y-258234D01*
X131220Y-258862D01*
X129619Y-259477D01*
X127996Y-260191D01*
X126353Y-261005D01*
X124688Y-261918D01*
X119831Y-253124D01*
X121333Y-252194D01*
X122893Y-251348D01*
X124509Y-250585D01*
X126182Y-249906D01*
X127912Y-249311D01*
X129666Y-248814D01*
X131409Y-248426D01*
X133143Y-248150D01*
X134866Y-247984D01*
X136580Y-247929D01*
G37*
G36*
X135974Y-484464D02*
X137695Y-484353D01*
X139296Y-484018D01*
X140776Y-483461D01*
X142136Y-482713D01*
X143375Y-481808D01*
X144493Y-480744D01*
X145468Y-479546D01*
X146275Y-478236D01*
X146915Y-476815D01*
X147379Y-475306D01*
X147658Y-473732D01*
X147750Y-472092D01*
Y-471925D01*
X147662Y-470286D01*
X147398Y-468711D01*
X146957Y-467202D01*
X146349Y-465785D01*
X145583Y-464489D01*
X144660Y-463315D01*
X143588Y-462279D01*
X142377Y-461401D01*
X141027Y-460682D01*
X139537Y-460147D01*
X137909Y-459827D01*
X136141Y-459720D01*
Y-448742D01*
X138049Y-448809D01*
X140058Y-449030D01*
X142000Y-449399D01*
X143875Y-449915D01*
X145683Y-450578D01*
X147410Y-451368D01*
X149044Y-452265D01*
X150584Y-453270D01*
X152030Y-454382D01*
X153382Y-455600D01*
X154631Y-456915D01*
X155766Y-458313D01*
X156787Y-459795D01*
X157694Y-461360D01*
X158488Y-463009D01*
X159151Y-464725D01*
X159666Y-466492D01*
X160035Y-468308D01*
X160255Y-470175D01*
X160329Y-472092D01*
Y-472259D01*
X160255Y-474176D01*
X160035Y-476043D01*
X159666Y-477860D01*
X159151Y-479626D01*
X158488Y-481343D01*
X157696Y-482990D01*
X156794Y-484551D01*
X155781Y-486024D01*
X154658Y-487410D01*
X153424Y-488710D01*
X152087Y-489912D01*
X150652Y-491007D01*
X149121Y-491994D01*
X147492Y-492875D01*
X145766Y-493649D01*
X143962Y-494297D01*
X142097Y-494800D01*
X140172Y-495160D01*
X138187Y-495376D01*
X136141Y-495448D01*
X135974Y-495442D01*
Y-484464D01*
X111786Y-471925D02*
X111859Y-470008D01*
X112080Y-468141D01*
X112449Y-466324D01*
X112964Y-464558D01*
X113627Y-462842D01*
X114419Y-461194D01*
X115321Y-459633D01*
X116334Y-458160D01*
X117457Y-456774D01*
X118691Y-455475D01*
X120028Y-454272D01*
X121463Y-453178D01*
X122994Y-452190D01*
X124623Y-451309D01*
X126349Y-450536D01*
X128153Y-449888D01*
X130018Y-449384D01*
X131943Y-449024D01*
X133928Y-448808D01*
X135974Y-448736D01*
X136141Y-448742D01*
Y-459720D01*
X134462Y-459831D01*
X132875Y-460166D01*
X131381Y-460723D01*
X129998Y-461471D01*
X128745Y-462376D01*
X127622Y-463440D01*
X126647Y-464638D01*
X125840Y-465948D01*
X125200Y-467369D01*
X124736Y-468878D01*
X124457Y-470453D01*
X124365Y-472092D01*
Y-472259D01*
X124453Y-473899D01*
X124717Y-475473D01*
X125158Y-476983D01*
X125766Y-478399D01*
X126532Y-479695D01*
X127455Y-480870D01*
X128527Y-481905D01*
X129738Y-482783D01*
X131088Y-483503D01*
X132578Y-484037D01*
X134206Y-484357D01*
X135974Y-484464D01*
Y-495442D01*
X134066Y-495375D01*
X132057Y-495154D01*
X130115Y-494785D01*
X128240Y-494270D01*
X126432Y-493607D01*
X124705Y-492816D01*
X123071Y-491919D01*
X121531Y-490914D01*
X120085Y-489803D01*
X118733Y-488584D01*
X117484Y-487269D01*
X116349Y-485871D01*
X115328Y-484390D01*
X114421Y-482824D01*
X113627Y-481175D01*
X112964Y-479459D01*
X112449Y-477693D01*
X112080Y-475876D01*
X111859Y-474009D01*
X111786Y-472092D01*
Y-471925D01*
G37*
G36*
X96343Y-248578D02*
X109099D01*
Y-293460D01*
X96343D01*
Y-248578D01*
G37*
G36*
X95989Y-232338D02*
X109453D01*
Y-243618D01*
X95989D01*
Y-232338D01*
G37*
G36*
X117260Y-47031D02*
X117735Y-47096D01*
X119403Y-47506D01*
X120933Y-48081D01*
X122326Y-48820D01*
X123921Y-49917D01*
X125396Y-51155D01*
X126750Y-52535D01*
X127984Y-54056D01*
X127967Y-31354D01*
X140723D01*
Y-92476D01*
X127967D01*
Y-86601D01*
X126771Y-87899D01*
X125443Y-89114D01*
X123985Y-90245D01*
X122396Y-91292D01*
X121001Y-92016D01*
X119461Y-92579D01*
X117777Y-92981D01*
X117260Y-93049D01*
Y-82496D01*
X118735Y-82398D01*
X120144Y-82105D01*
X121488Y-81618D01*
X123330Y-80551D01*
X124921Y-79109D01*
X125833Y-77947D01*
X126614Y-76637D01*
X127265Y-75178D01*
X127753Y-73594D01*
X128046Y-71907D01*
X128144Y-70119D01*
Y-69951D01*
X128046Y-68163D01*
X127753Y-66476D01*
X127265Y-64892D01*
X126614Y-63433D01*
X125833Y-62123D01*
X124921Y-60961D01*
X123330Y-59519D01*
X121488Y-58452D01*
X120144Y-57965D01*
X118735Y-57672D01*
X117260Y-57574D01*
Y-47031D01*
X93538Y-69951D02*
X93607Y-67760D01*
X93813Y-65673D01*
X94156Y-63689D01*
X94637Y-61809D01*
X95256Y-60033D01*
X95988Y-58362D01*
X96811Y-56799D01*
X97725Y-55342D01*
X98729Y-53993D01*
X99823Y-52751D01*
X101301Y-51357D01*
X102882Y-50146D01*
X104569Y-49118D01*
X106361Y-48274D01*
X108220Y-47615D01*
X110111Y-47144D01*
X112034Y-46861D01*
X113987Y-46767D01*
X115930Y-46849D01*
X117260Y-47031D01*
Y-57574D01*
X115786Y-57672D01*
X114377Y-57965D01*
X113033Y-58452D01*
X111772Y-59121D01*
X110614Y-59958D01*
X109558Y-60961D01*
X108624Y-62123D01*
X107828Y-63433D01*
X107173Y-64892D01*
X106684Y-66476D01*
X106391Y-68163D01*
X106294Y-69951D01*
Y-70119D01*
X106391Y-71949D01*
X106684Y-73650D01*
X107173Y-75220D01*
X107828Y-76655D01*
X108624Y-77952D01*
X109558Y-79109D01*
X110614Y-80112D01*
X111772Y-80949D01*
X113033Y-81618D01*
X114377Y-82105D01*
X115786Y-82398D01*
X117260Y-82496D01*
Y-93049D01*
X115949Y-93222D01*
X113977Y-93303D01*
X111988Y-93209D01*
X110041Y-92926D01*
X108135Y-92455D01*
X106271Y-91796D01*
X104483Y-90952D01*
X102805Y-89924D01*
X101237Y-88713D01*
X99779Y-87319D01*
X98700Y-86077D01*
X97708Y-84728D01*
X96803Y-83271D01*
X95985Y-81708D01*
X95255Y-80037D01*
X94637Y-78261D01*
X94156Y-76381D01*
X93813Y-74397D01*
X93606Y-72310D01*
X93538Y-70119D01*
Y-69951D01*
G37*
G36*
X101885Y-348421D02*
X103573Y-348478D01*
X105202Y-348651D01*
X106774Y-348938D01*
X108288Y-349341D01*
X110184Y-350056D01*
X111912Y-350976D01*
X113474Y-352101D01*
X114849Y-353416D01*
X116020Y-354908D01*
X116986Y-356576D01*
X117706Y-358421D01*
X118138Y-360443D01*
X118282Y-362641D01*
Y-362809D01*
X118147Y-364872D01*
X117741Y-366712D01*
X117065Y-368329D01*
X116175Y-369756D01*
X115126Y-371025D01*
X113919Y-372136D01*
X112582Y-373102D01*
X111141Y-373939D01*
X109598Y-374645D01*
X108009Y-375254D01*
X106429Y-375798D01*
X104858Y-376276D01*
X103054Y-376841D01*
X101334Y-377364D01*
X99751Y-377876D01*
X98356Y-378409D01*
X97192Y-379005D01*
X96301Y-379706D01*
X95734Y-380522D01*
X95546Y-381463D01*
Y-381630D01*
X95870Y-382990D01*
X96844Y-384056D01*
X97872Y-384567D01*
X99226Y-384874D01*
X100905Y-384976D01*
X102525Y-384892D01*
X104202Y-384641D01*
X105937Y-384222D01*
X107730Y-383636D01*
X109554Y-382882D01*
X111383Y-381961D01*
X113218Y-380872D01*
X115058Y-379616D01*
X120500Y-387992D01*
X118980Y-389113D01*
X117435Y-390129D01*
X115863Y-391040D01*
X114267Y-391847D01*
X112644Y-392548D01*
X110996Y-393145D01*
X109011Y-393734D01*
X107043Y-394191D01*
X105092Y-394518D01*
X103158Y-394714D01*
X101240Y-394779D01*
X99469Y-394724D01*
X97755Y-394559D01*
X96100Y-394285D01*
X94502Y-393901D01*
X92499Y-393217D01*
X90672Y-392339D01*
X89023Y-391266D01*
X87578Y-389988D01*
X86365Y-388496D01*
X85385Y-386791D01*
X84818Y-385366D01*
X84413Y-383810D01*
X84170Y-382124D01*
X84089Y-380308D01*
Y-380140D01*
X84229Y-378179D01*
X84648Y-376422D01*
X85348Y-374870D01*
X86261Y-373495D01*
X87324Y-372268D01*
X88536Y-371190D01*
X89878Y-370237D01*
X91332Y-369387D01*
X92898Y-368638D01*
X94511Y-367974D01*
X96105Y-367374D01*
X97680Y-366840D01*
X99474Y-366254D01*
X101162Y-365669D01*
X102704Y-365073D01*
X104057Y-364456D01*
X105189Y-363808D01*
X106070Y-363118D01*
X106636Y-362354D01*
X106825Y-361487D01*
Y-361319D01*
X106532Y-360096D01*
X105653Y-359102D01*
X104187Y-358444D01*
X102136Y-358224D01*
X100433Y-358350D01*
X98563Y-358726D01*
X96525Y-359354D01*
X94924Y-359969D01*
X93301Y-360684D01*
X91658Y-361497D01*
X89994Y-362410D01*
X85136Y-353616D01*
X86639Y-352686D01*
X88198Y-351840D01*
X89814Y-351077D01*
X91487Y-350399D01*
X93217Y-349804D01*
X94971Y-349306D01*
X96714Y-348919D01*
X98448Y-348642D01*
X100171Y-348476D01*
X101885Y-348421D01*
G37*
G36*
X124158Y252406D02*
Y223356D01*
X124077Y221200D01*
X123834Y219181D01*
X123428Y217298D01*
X122861Y215552D01*
X122131Y213943D01*
X121240Y212470D01*
X120186Y211134D01*
X118770Y209779D01*
X117171Y208669D01*
X115388Y207807D01*
X113422Y207190D01*
X111272Y206821D01*
X108939Y206697D01*
X107378Y206763D01*
X105929Y206958D01*
X104591Y207285D01*
X102752Y207977D01*
X101079Y208878D01*
X99564Y209958D01*
X98194Y211185D01*
X96951Y212516D01*
X95811Y213910D01*
Y207524D01*
X83056D01*
Y252406D01*
X95811D01*
Y227391D01*
X95944Y225271D01*
X96343Y223428D01*
X97007Y221862D01*
X97937Y220573D01*
X99097Y219566D01*
X100449Y218847D01*
X101994Y218416D01*
X103732Y218272D01*
X105462Y218416D01*
X106983Y218847D01*
X108296Y219566D01*
X109401Y220573D01*
X110276Y221862D01*
X110902Y223428D01*
X111277Y225271D01*
X111402Y227391D01*
Y252406D01*
X124158D01*
G37*
G36*
X105737Y-182988D02*
X107459Y-182876D01*
X109060Y-182542D01*
X110540Y-181985D01*
X111900Y-181237D01*
X113139Y-180331D01*
X114257Y-179268D01*
X115231Y-178069D01*
X116039Y-176760D01*
X116679Y-175339D01*
X117143Y-173829D01*
X117421Y-172255D01*
X117514Y-170616D01*
Y-170449D01*
X117426Y-168809D01*
X117161Y-167235D01*
X116721Y-165725D01*
X116113Y-164309D01*
X115347Y-163013D01*
X114424Y-161838D01*
X113352Y-160803D01*
X112141Y-159925D01*
X110791Y-159205D01*
X109301Y-158671D01*
X107673Y-158350D01*
X105905Y-158244D01*
Y-147265D01*
X107813Y-147333D01*
X109822Y-147554D01*
X111764Y-147922D01*
X113639Y-148438D01*
X115446Y-149101D01*
X117174Y-149891D01*
X118807Y-150789D01*
X120347Y-151793D01*
X121794Y-152905D01*
X123146Y-154124D01*
X124395Y-155438D01*
X125530Y-156836D01*
X126551Y-158318D01*
X127458Y-159884D01*
X128252Y-161533D01*
X128914Y-163249D01*
X129430Y-165015D01*
X129798Y-166832D01*
X130019Y-168699D01*
X130093Y-170616D01*
Y-170783D01*
X130019Y-172700D01*
X129798Y-174567D01*
X129430Y-176383D01*
X128914Y-178150D01*
X128252Y-179866D01*
X127460Y-181514D01*
X126558Y-183074D01*
X125545Y-184548D01*
X124422Y-185934D01*
X123188Y-187233D01*
X121851Y-188435D01*
X120416Y-189530D01*
X118884Y-190518D01*
X117256Y-191399D01*
X115530Y-192172D01*
X113725Y-192820D01*
X111861Y-193324D01*
X109936Y-193684D01*
X107951Y-193900D01*
X105905Y-193972D01*
X105737Y-193966D01*
Y-182988D01*
X81550Y-170449D02*
X81623Y-168532D01*
X81844Y-166665D01*
X82212Y-164848D01*
X82728Y-163082D01*
X83391Y-161365D01*
X84183Y-159718D01*
X85085Y-158157D01*
X86098Y-156684D01*
X87221Y-155297D01*
X88454Y-153998D01*
X89792Y-152796D01*
X91226Y-151701D01*
X92758Y-150713D01*
X94387Y-149833D01*
X96113Y-149059D01*
X97917Y-148411D01*
X99782Y-147907D01*
X101707Y-147547D01*
X103692Y-147331D01*
X105737Y-147259D01*
X105905Y-147265D01*
Y-158244D01*
X104225Y-158355D01*
X102639Y-158689D01*
X101144Y-159247D01*
X99762Y-159994D01*
X98509Y-160900D01*
X97386Y-161964D01*
X96411Y-163162D01*
X95604Y-164472D01*
X94963Y-165893D01*
X94499Y-167402D01*
X94221Y-168976D01*
X94128Y-170616D01*
Y-170783D01*
X94217Y-172422D01*
X94481Y-173997D01*
X94922Y-175506D01*
X95530Y-176923D01*
X96295Y-178218D01*
X97219Y-179393D01*
X98290Y-180429D01*
X99501Y-181306D01*
X100852Y-182026D01*
X102341Y-182560D01*
X103970Y-182881D01*
X105737Y-182988D01*
Y-193966D01*
X103829Y-193898D01*
X101821Y-193677D01*
X99879Y-193309D01*
X98004Y-192793D01*
X96196Y-192130D01*
X94469Y-191340D01*
X92835Y-190443D01*
X91295Y-189438D01*
X89849Y-188326D01*
X88496Y-187107D01*
X87248Y-185793D01*
X86113Y-184395D01*
X85092Y-182913D01*
X84184Y-181348D01*
X83391Y-179699D01*
X82728Y-177983D01*
X82212Y-176216D01*
X81844Y-174400D01*
X81623Y-172533D01*
X81550Y-170616D01*
Y-170449D01*
G37*
G36*
X93011Y117071D02*
X94901Y117230D01*
X96669Y117705D01*
X98318Y118496D01*
X99826Y119562D01*
X101177Y120861D01*
X102371Y122394D01*
X103159Y123690D01*
X103854Y125107D01*
X104455Y126645D01*
X104961Y128303D01*
X105363Y130058D01*
X105651Y131886D01*
X105823Y133787D01*
X105880Y135762D01*
Y135930D01*
X105823Y137902D01*
X105651Y139796D01*
X105363Y141611D01*
X104961Y143348D01*
X104270Y145508D01*
X103420Y147464D01*
X102413Y149214D01*
X101247Y150742D01*
X99924Y152027D01*
X98443Y153070D01*
X96818Y153838D01*
X95063Y154300D01*
X93179Y154453D01*
Y166081D01*
X94934Y166022D01*
X96798Y165826D01*
X98605Y165501D01*
X100354Y165045D01*
X102044Y164458D01*
X103676Y163741D01*
X105545Y162733D01*
X107303Y161584D01*
X108951Y160293D01*
X110489Y158863D01*
X111915Y157291D01*
X113016Y155883D01*
X114030Y154396D01*
X114958Y152830D01*
X115800Y151185D01*
X116556Y149461D01*
X117227Y147658D01*
X117802Y145792D01*
X118272Y143879D01*
X118638Y141920D01*
X118900Y139914D01*
X119056Y137861D01*
X119109Y135762D01*
Y135594D01*
X119058Y133496D01*
X118904Y131443D01*
X118649Y129438D01*
X118291Y127478D01*
X117831Y125566D01*
X117268Y123699D01*
X116612Y121897D01*
X115869Y120176D01*
X115041Y118537D01*
X114127Y116979D01*
X113127Y115502D01*
X112041Y114107D01*
X110629Y112553D01*
X109103Y111139D01*
X107464Y109865D01*
X105710Y108733D01*
X103843Y107741D01*
X102211Y107037D01*
X100521Y106461D01*
X98772Y106013D01*
X96966Y105693D01*
X95101Y105501D01*
X93179Y105437D01*
X93011Y105443D01*
Y117071D01*
X67081Y135930D02*
X67133Y138029D01*
X67290Y140081D01*
X67552Y142087D01*
X67918Y144046D01*
X68388Y145959D01*
X68963Y147825D01*
X69632Y149627D01*
X70385Y151348D01*
X71221Y152988D01*
X72142Y154546D01*
X73145Y156022D01*
X74233Y157417D01*
X75645Y158972D01*
X77171Y160386D01*
X78810Y161659D01*
X80563Y162792D01*
X82430Y163783D01*
X84060Y164487D01*
X85744Y165063D01*
X87480Y165511D01*
X89271Y165831D01*
X91114Y166023D01*
X93011Y166087D01*
X93179Y166081D01*
Y154453D01*
X91335Y154295D01*
X89594Y153820D01*
X87955Y153028D01*
X86442Y151958D01*
X85077Y150645D01*
X83861Y149089D01*
X83054Y147777D01*
X82346Y146355D01*
X81738Y144822D01*
X81228Y143180D01*
X80826Y141443D01*
X80539Y139628D01*
X80367Y137735D01*
X80309Y135762D01*
Y135594D01*
X80364Y133622D01*
X80529Y131728D01*
X80803Y129913D01*
X81187Y128177D01*
X81860Y126016D01*
X82710Y124061D01*
X83736Y122310D01*
X84924Y120783D01*
X86261Y119498D01*
X87747Y118454D01*
X89372Y117686D01*
X91126Y117225D01*
X93011Y117071D01*
Y105443D01*
X91256Y105503D01*
X89391Y105698D01*
X87585Y106024D01*
X85836Y106480D01*
X84146Y107066D01*
X82513Y107783D01*
X80645Y108792D01*
X78886Y109941D01*
X77239Y111231D01*
X75701Y112662D01*
X74274Y114233D01*
X73174Y115641D01*
X72160Y117128D01*
X71232Y118694D01*
X70390Y120339D01*
X69633Y122063D01*
X68963Y123867D01*
X68388Y125733D01*
X67918Y127646D01*
X67552Y129605D01*
X67290Y131611D01*
X67133Y133663D01*
X67081Y135762D01*
Y135930D01*
G37*
G36*
X102869Y-449563D02*
Y-478612D01*
X102787Y-480768D01*
X102544Y-482787D01*
X102139Y-484670D01*
X101572Y-486416D01*
X100842Y-488026D01*
X99950Y-489498D01*
X98897Y-490834D01*
X97481Y-492190D01*
X95882Y-493299D01*
X94099Y-494162D01*
X92133Y-494778D01*
X89983Y-495148D01*
X87650Y-495271D01*
X86089Y-495206D01*
X84640Y-495010D01*
X83302Y-494684D01*
X81462Y-493992D01*
X79790Y-493090D01*
X78274Y-492011D01*
X76905Y-490784D01*
X75661Y-489452D01*
X74522Y-488058D01*
Y-494444D01*
X61766D01*
Y-449563D01*
X74522D01*
Y-474577D01*
X74655Y-476697D01*
X75054Y-478541D01*
X75718Y-480107D01*
X76648Y-481396D01*
X77807Y-482402D01*
X79160Y-483121D01*
X80705Y-483553D01*
X82443Y-483696D01*
X84173Y-483553D01*
X85694Y-483121D01*
X87007Y-482402D01*
X88112Y-481396D01*
X88987Y-480107D01*
X89612Y-478541D01*
X89988Y-476697D01*
X90113Y-474577D01*
Y-449563D01*
X102869D01*
G37*
G36*
X84502Y-47594D02*
Y-76644D01*
X84421Y-78800D01*
X84178Y-80819D01*
X83773Y-82702D01*
X83205Y-84448D01*
X82476Y-86057D01*
X81584Y-87530D01*
X80530Y-88866D01*
X79115Y-90221D01*
X77516Y-91331D01*
X75733Y-92193D01*
X73767Y-92810D01*
X71617Y-93179D01*
X69284Y-93303D01*
X67723Y-93237D01*
X66274Y-93042D01*
X64936Y-92715D01*
X63096Y-92023D01*
X61424Y-91122D01*
X59908Y-90042D01*
X58539Y-88815D01*
X57295Y-87484D01*
X56156Y-86090D01*
Y-92476D01*
X43400D01*
Y-47594D01*
X56156D01*
Y-72609D01*
X56289Y-74729D01*
X56687Y-76572D01*
X57352Y-78138D01*
X58282Y-79427D01*
X59441Y-80434D01*
X60794Y-81153D01*
X62339Y-81584D01*
X64077Y-81728D01*
X65806Y-81584D01*
X67328Y-81153D01*
X68641Y-80434D01*
X69746Y-79427D01*
X70621Y-78138D01*
X71246Y-76572D01*
X71621Y-74729D01*
X71746Y-72609D01*
Y-47594D01*
X84502D01*
G37*
G36*
X62699Y-248005D02*
X64010Y-247832D01*
X65982Y-247752D01*
X67971Y-247846D01*
X69919Y-248128D01*
X71825Y-248599D01*
X73688Y-249258D01*
X75476Y-250103D01*
X77154Y-251130D01*
X78723Y-252341D01*
X80181Y-253735D01*
X81260Y-254978D01*
X82252Y-256327D01*
X83156Y-257783D01*
X83974Y-259347D01*
X84704Y-261017D01*
X85323Y-262793D01*
X85803Y-264673D01*
X86147Y-266657D01*
X86353Y-268744D01*
X86422Y-270935D01*
Y-271103D01*
X86353Y-273294D01*
X86147Y-275382D01*
X85803Y-277365D01*
X85322Y-279245D01*
X84704Y-281021D01*
X83971Y-282692D01*
X83148Y-284255D01*
X82235Y-285712D01*
X81230Y-287061D01*
X80136Y-288303D01*
X78659Y-289697D01*
X77077Y-290908D01*
X75390Y-291936D01*
X73599Y-292781D01*
X71739Y-293440D01*
X69848Y-293910D01*
X67926Y-294193D01*
X65972Y-294287D01*
X64029Y-294205D01*
X62699Y-294023D01*
Y-283480D01*
X64173Y-283382D01*
X65582Y-283090D01*
X66927Y-282602D01*
X68187Y-281933D01*
X69345Y-281097D01*
X70401Y-280093D01*
X71336Y-278931D01*
X72131Y-277621D01*
X72787Y-276162D01*
X73275Y-274578D01*
X73568Y-272892D01*
X73666Y-271103D01*
Y-270935D01*
X73568Y-269105D01*
X73275Y-267405D01*
X72787Y-265834D01*
X72131Y-264399D01*
X71336Y-263102D01*
X70401Y-261946D01*
X69345Y-260942D01*
X68187Y-260106D01*
X66927Y-259437D01*
X65582Y-258949D01*
X64173Y-258656D01*
X62699Y-258559D01*
Y-248005D01*
X39237Y-232338D02*
X51993D01*
Y-254453D01*
X53189Y-253155D01*
X54516Y-251940D01*
X55974Y-250809D01*
X57563Y-249762D01*
X58959Y-249038D01*
X60498Y-248475D01*
X62182Y-248073D01*
X62699Y-248005D01*
Y-258559D01*
X61224Y-258656D01*
X59815Y-258949D01*
X58471Y-259437D01*
X56629Y-260503D01*
X55038Y-261946D01*
X54127Y-263107D01*
X53345Y-264417D01*
X52694Y-265876D01*
X52206Y-267461D01*
X51913Y-269147D01*
X51815Y-270935D01*
Y-271103D01*
X51913Y-272892D01*
X52206Y-274578D01*
X52694Y-276162D01*
X53345Y-277621D01*
X54127Y-278931D01*
X55038Y-280093D01*
X56629Y-281536D01*
X58471Y-282602D01*
X59815Y-283090D01*
X61224Y-283382D01*
X62699Y-283480D01*
Y-294023D01*
X62224Y-293959D01*
X60557Y-293548D01*
X59026Y-292973D01*
X57633Y-292234D01*
X56038Y-291137D01*
X54563Y-289899D01*
X53209Y-288519D01*
X51976Y-286998D01*
X51993Y-293460D01*
X39237D01*
Y-232338D01*
G37*
G36*
X50085Y252944D02*
X51784Y253156D01*
X53788Y253233D01*
X55699Y253146D01*
X57579Y252887D01*
X59427Y252455D01*
X61243Y251850D01*
X62992Y251078D01*
X64636Y250144D01*
X66175Y249047D01*
X67610Y247788D01*
X68924Y246372D01*
X70102Y244804D01*
X71144Y243085D01*
X72050Y241213D01*
X72653Y239610D01*
X73122Y237916D01*
X73457Y236132D01*
X73658Y234258D01*
X73725Y232293D01*
Y232125D01*
X73659Y230160D01*
X73463Y228286D01*
X73137Y226502D01*
X72679Y224808D01*
X72091Y223205D01*
X71203Y221334D01*
X70174Y219614D01*
X69003Y218046D01*
X67691Y216630D01*
X66257Y215371D01*
X64717Y214274D01*
X63073Y213340D01*
X61324Y212568D01*
X59501Y211963D01*
X57637Y211531D01*
X55731Y211272D01*
X53783Y211185D01*
X51808Y211263D01*
X50085Y211480D01*
Y221756D01*
X51897Y221870D01*
X53581Y222211D01*
X55139Y222780D01*
X56569Y223576D01*
X57871Y224599D01*
X59226Y226136D01*
X60194Y227902D01*
X60775Y229899D01*
X60969Y232125D01*
Y232293D01*
X60760Y234467D01*
X60132Y236474D01*
X59137Y238261D01*
X57829Y239777D01*
X56239Y241000D01*
X54397Y241909D01*
X53044Y242327D01*
X51606Y242578D01*
X50085Y242662D01*
Y252944D01*
X26540Y252406D02*
X39296D01*
Y246521D01*
X40641Y247889D01*
X42081Y249142D01*
X43615Y250280D01*
X45243Y251303D01*
X46657Y251998D01*
X48219Y252538D01*
X49928Y252924D01*
X50085Y252944D01*
Y242662D01*
X48560Y242578D01*
X47109Y242327D01*
X45732Y241909D01*
X43859Y241000D01*
X42258Y239777D01*
X40950Y238261D01*
X39956Y236474D01*
X39328Y234467D01*
X39119Y232293D01*
Y232125D01*
X39328Y229952D01*
X39956Y227945D01*
X40950Y226157D01*
X42258Y224641D01*
X43859Y223418D01*
X45732Y222509D01*
X47109Y222091D01*
X48560Y221840D01*
X50085Y221756D01*
Y211480D01*
X49975Y211494D01*
X48282Y211880D01*
X46730Y212420D01*
X45319Y213115D01*
X43674Y214174D01*
X42093Y215422D01*
X40574Y216859D01*
X39119Y218484D01*
Y216309D01*
X39244Y214018D01*
X39621Y211960D01*
X40249Y210137D01*
X41128Y208548D01*
X42259Y207193D01*
X43651Y206079D01*
X45314Y205213D01*
X47248Y204594D01*
X49454Y204223D01*
X51931Y204099D01*
X54132Y204167D01*
X56212Y204371D01*
X58172Y204711D01*
X60012Y205188D01*
X61789Y205784D01*
X63561Y206486D01*
X65327Y207292D01*
X67088Y208202D01*
X71443Y198643D01*
X69704Y197778D01*
X67905Y196997D01*
X66046Y196300D01*
X64127Y195687D01*
X62147Y195158D01*
X60117Y194720D01*
X58047Y194380D01*
X55937Y194136D01*
X53787Y193990D01*
X51596Y193941D01*
X49466Y193981D01*
X47432Y194100D01*
X45493Y194297D01*
X43649Y194574D01*
X41900Y194930D01*
X40247Y195365D01*
X38385Y196005D01*
X36653Y196786D01*
X35052Y197707D01*
X33582Y198769D01*
X32242Y199972D01*
X31159Y201174D01*
X30189Y202502D01*
X29334Y203955D01*
X28593Y205534D01*
X27965Y207238D01*
X27452Y209068D01*
X27053Y211024D01*
X26768Y213106D01*
X26597Y215313D01*
X26540Y217646D01*
Y252406D01*
G37*
G36*
X23352Y-448713D02*
X25536Y-448733D01*
X27532Y-448994D01*
X29341Y-449497D01*
X30962Y-450240D01*
X32395Y-451225D01*
X33678Y-452404D01*
X34847Y-453731D01*
X35903Y-455205D01*
X36844Y-456826D01*
X37672Y-458594D01*
Y-449563D01*
X50428D01*
Y-494444D01*
X37672D01*
Y-477856D01*
X37597Y-475622D01*
X37374Y-473562D01*
X37003Y-471676D01*
X36482Y-469965D01*
X35813Y-468428D01*
X34995Y-467065D01*
X34029Y-465877D01*
X32739Y-464699D01*
X31298Y-463736D01*
X29705Y-462987D01*
X27962Y-462451D01*
X26067Y-462130D01*
X24022Y-462023D01*
X23352D01*
Y-448713D01*
G37*
G36*
X31460Y-366675D02*
X32276Y-366607D01*
X34467Y-366551D01*
X36432Y-366606D01*
X38308Y-366771D01*
X40096Y-367045D01*
X41794Y-367430D01*
X43897Y-368114D01*
X45795Y-368994D01*
X47488Y-370069D01*
X48962Y-371344D01*
X50204Y-372824D01*
X51214Y-374508D01*
X51800Y-375912D01*
X52219Y-377440D01*
X52470Y-379094D01*
X52554Y-380874D01*
Y-381041D01*
X52419Y-383187D01*
X52014Y-385156D01*
X51339Y-386947D01*
X50432Y-388562D01*
X49330Y-390000D01*
X48032Y-391261D01*
X46557Y-392336D01*
X44925Y-393216D01*
X43134Y-393900D01*
X41222Y-394388D01*
X39226Y-394681D01*
X37147Y-394779D01*
X34891Y-394682D01*
X33306Y-394460D01*
Y-385980D01*
X35245Y-385822D01*
X36923Y-385347D01*
X38340Y-384556D01*
X39412Y-383476D01*
X40056Y-382136D01*
X40270Y-380535D01*
Y-380368D01*
X40009Y-378516D01*
X39226Y-376980D01*
X37921Y-375761D01*
X36636Y-375064D01*
X35131Y-374567D01*
X33406Y-374268D01*
X31460Y-374169D01*
Y-366675D01*
X11274Y-367894D02*
X11347Y-365687D01*
X11567Y-363589D01*
X11933Y-361602D01*
X12446Y-359724D01*
X13116Y-357973D01*
X13954Y-356362D01*
X14958Y-354893D01*
X16130Y-353566D01*
X17425Y-352422D01*
X18883Y-351419D01*
X20503Y-350558D01*
X22285Y-349838D01*
X23837Y-349370D01*
X25514Y-349006D01*
X27314Y-348747D01*
X29238Y-348591D01*
X31286Y-348539D01*
X33497Y-348579D01*
X35574Y-348699D01*
X37516Y-348900D01*
X39325Y-349181D01*
X41000Y-349542D01*
X42989Y-350080D01*
X44936Y-350691D01*
X46841Y-351376D01*
X48704Y-352133D01*
X45522Y-361834D01*
X43489Y-361112D01*
X41521Y-360512D01*
X39619Y-360033D01*
X38161Y-359758D01*
X36593Y-359562D01*
X34916Y-359444D01*
X33128Y-359405D01*
X30888Y-359536D01*
X28942Y-359930D01*
X27288Y-360586D01*
X25927Y-361505D01*
X24865Y-362675D01*
X24106Y-364088D01*
X23650Y-365741D01*
X23498Y-367637D01*
Y-368393D01*
X25131Y-367872D01*
X26792Y-367425D01*
X28481Y-367053D01*
X30281Y-366774D01*
X31460Y-366675D01*
Y-374169D01*
X29926Y-374220D01*
X28458Y-374374D01*
X27055Y-374630D01*
X25094Y-375164D01*
X23321Y-375845D01*
Y-378106D01*
X23492Y-379781D01*
X24003Y-381289D01*
X24855Y-382629D01*
X26048Y-383802D01*
X27524Y-384755D01*
X29226Y-385435D01*
X31153Y-385844D01*
X33306Y-385980D01*
Y-394460D01*
X32814Y-394392D01*
X30914Y-393907D01*
X29193Y-393229D01*
X27617Y-392388D01*
X26157Y-391417D01*
X24812Y-390314D01*
X23582Y-389080D01*
X23557Y-393952D01*
X11274D01*
Y-367894D01*
G37*
G36*
X25874Y-147259D02*
X27916Y-147333D01*
X29888Y-147554D01*
X31789Y-147922D01*
X33620Y-148438D01*
X35381Y-149101D01*
X37059Y-149891D01*
X38639Y-150789D01*
X40123Y-151793D01*
X41509Y-152905D01*
X42799Y-154124D01*
X43986Y-155440D01*
X45066Y-156843D01*
X46039Y-158333D01*
X46905Y-159910D01*
X47663Y-161575D01*
X48297Y-163303D01*
X48790Y-165071D01*
X49142Y-166879D01*
X49353Y-168727D01*
X49424Y-170616D01*
Y-170783D01*
X49353Y-172670D01*
X49142Y-174513D01*
X48790Y-176313D01*
X48297Y-178070D01*
X47663Y-179783D01*
X46905Y-181430D01*
X46039Y-182991D01*
X45066Y-184464D01*
X43986Y-185850D01*
X42799Y-187149D01*
X41509Y-188353D01*
X40123Y-189453D01*
X38639Y-190449D01*
X37059Y-191342D01*
X35381Y-192130D01*
X33627Y-192793D01*
X31816Y-193309D01*
X29948Y-193677D01*
X28024Y-193898D01*
X26042Y-193972D01*
X23879Y-193908D01*
X21855Y-193716D01*
X19971Y-193396D01*
X18226Y-192947D01*
X16621Y-192371D01*
X15156Y-191666D01*
X13518Y-190692D01*
X11953Y-189613D01*
X10463Y-188431D01*
X9046Y-187145D01*
X7703Y-185755D01*
X15156Y-178214D01*
X16724Y-179568D01*
X18301Y-180726D01*
X19887Y-181689D01*
X21567Y-182411D01*
X23423Y-182844D01*
X25456Y-182988D01*
X27131Y-182881D01*
X28694Y-182560D01*
X30145Y-182026D01*
X31476Y-181306D01*
X32676Y-180429D01*
X33746Y-179393D01*
X34672Y-178214D01*
X35439Y-176904D01*
X36049Y-175464D01*
X36491Y-173922D01*
X36756Y-172306D01*
X36845Y-170616D01*
Y-170449D01*
X36756Y-168809D01*
X36491Y-167235D01*
X36049Y-165725D01*
X35444Y-164309D01*
X34690Y-163013D01*
X33788Y-161838D01*
X32755Y-160803D01*
X31611Y-159925D01*
X30355Y-159205D01*
X28992Y-158671D01*
X27526Y-158350D01*
X25958Y-158244D01*
X23795Y-158393D01*
X21883Y-158839D01*
X20222Y-159583D01*
X18701Y-160579D01*
X17208Y-161779D01*
X15742Y-163184D01*
X7954Y-154806D01*
X9267Y-153457D01*
X10661Y-152230D01*
X12135Y-151123D01*
X13689Y-150137D01*
X15323Y-149272D01*
X16780Y-148657D01*
X18357Y-148154D01*
X20055Y-147763D01*
X21874Y-147483D01*
X23814Y-147315D01*
X25874Y-147259D01*
G37*
G36*
X10430Y-47056D02*
X12129Y-46844D01*
X14133Y-46767D01*
X16044Y-46854D01*
X17923Y-47113D01*
X19771Y-47545D01*
X21588Y-48150D01*
X23337Y-48922D01*
X24980Y-49856D01*
X26520Y-50953D01*
X27954Y-52212D01*
X29269Y-53628D01*
X30447Y-55196D01*
X31488Y-56915D01*
X32394Y-58787D01*
X32997Y-60390D01*
X33466Y-62084D01*
X33801Y-63868D01*
X34002Y-65742D01*
X34069Y-67707D01*
Y-67875D01*
X34004Y-69840D01*
X33808Y-71714D01*
X33481Y-73498D01*
X33023Y-75192D01*
X32435Y-76795D01*
X31547Y-78666D01*
X30518Y-80386D01*
X29348Y-81954D01*
X28036Y-83370D01*
X26601Y-84629D01*
X25062Y-85726D01*
X23417Y-86660D01*
X21668Y-87432D01*
X19846Y-88037D01*
X17982Y-88469D01*
X16075Y-88728D01*
X14127Y-88815D01*
X12153Y-88737D01*
X10430Y-88520D01*
Y-78244D01*
X12241Y-78130D01*
X13926Y-77789D01*
X15483Y-77220D01*
X16913Y-76424D01*
X18216Y-75401D01*
X19571Y-73864D01*
X20539Y-72098D01*
X21120Y-70101D01*
X21313Y-67875D01*
Y-67707D01*
X21104Y-65533D01*
X20476Y-63526D01*
X19482Y-61739D01*
X18174Y-60223D01*
X16583Y-59000D01*
X14742Y-58091D01*
X13388Y-57673D01*
X11951Y-57422D01*
X10430Y-57338D01*
Y-47056D01*
X-13116Y-47594D02*
X-360D01*
Y-53479D01*
X986Y-52111D01*
X2425Y-50858D01*
X3959Y-49720D01*
X5588Y-48697D01*
X7002Y-48002D01*
X8563Y-47462D01*
X10272Y-47076D01*
X10430Y-47056D01*
Y-57338D01*
X8904Y-57422D01*
X7453Y-57673D01*
X6077Y-58091D01*
X4204Y-59000D01*
X2603Y-60223D01*
X1295Y-61739D01*
X300Y-63526D01*
X-328Y-65533D01*
X-537Y-67707D01*
Y-67875D01*
X-328Y-70048D01*
X300Y-72055D01*
X1295Y-73843D01*
X2603Y-75359D01*
X4204Y-76582D01*
X6077Y-77491D01*
X7453Y-77909D01*
X8904Y-78160D01*
X10430Y-78244D01*
Y-88520D01*
X10319Y-88506D01*
X8626Y-88120D01*
X7074Y-87580D01*
X5663Y-86885D01*
X4019Y-85826D01*
X2437Y-84578D01*
X919Y-83141D01*
X-537Y-81516D01*
Y-83691D01*
X-411Y-85982D01*
X-35Y-88040D01*
X594Y-89863D01*
X1473Y-91452D01*
X2604Y-92807D01*
X3995Y-93921D01*
X5658Y-94787D01*
X7593Y-95406D01*
X9798Y-95777D01*
X12275Y-95901D01*
X14476Y-95833D01*
X16557Y-95629D01*
X18517Y-95289D01*
X20357Y-94812D01*
X22133Y-94216D01*
X23905Y-93514D01*
X25672Y-92708D01*
X27433Y-91798D01*
X31787Y-101357D01*
X30049Y-102222D01*
X28250Y-103003D01*
X26391Y-103700D01*
X24471Y-104313D01*
X22492Y-104842D01*
X20462Y-105280D01*
X18392Y-105620D01*
X16282Y-105864D01*
X14131Y-106010D01*
X11940Y-106059D01*
X9811Y-106019D01*
X7776Y-105900D01*
X5837Y-105703D01*
X3993Y-105426D01*
X2245Y-105070D01*
X591Y-104635D01*
X-1271Y-103995D01*
X-3002Y-103214D01*
X-4603Y-102293D01*
X-6073Y-101231D01*
X-7413Y-100028D01*
X-8497Y-98826D01*
X-9466Y-97498D01*
X-10322Y-96045D01*
X-11063Y-94466D01*
X-11690Y-92762D01*
X-12203Y-90932D01*
X-12603Y-88976D01*
X-12888Y-86894D01*
X-13059Y-84687D01*
X-13116Y-82354D01*
Y-47594D01*
G37*
G36*
X-11736Y-286090D02*
X-4450Y-279642D01*
X-2683Y-281112D01*
X-952Y-282285D01*
X741Y-283159D01*
X2491Y-283764D01*
X4389Y-284127D01*
X6435Y-284248D01*
X8484Y-284109D01*
X10361Y-283692D01*
X12065Y-282999D01*
X13596Y-282027D01*
X14917Y-280783D01*
X15993Y-279272D01*
X16822Y-277494D01*
X17406Y-275448D01*
X-1604D01*
Y-267476D01*
X17573D01*
X17089Y-265417D01*
X16390Y-263577D01*
X15477Y-261956D01*
X14349Y-260554D01*
X13017Y-259422D01*
X11491Y-258614D01*
X9772Y-258130D01*
X7859Y-257968D01*
Y-247752D01*
X9800Y-247825D01*
X11671Y-248046D01*
X13472Y-248415D01*
X15202Y-248930D01*
X16861Y-249593D01*
X18440Y-250384D01*
X19929Y-251281D01*
X21328Y-252286D01*
X22636Y-253397D01*
X23853Y-254616D01*
X24974Y-255932D01*
X25990Y-257335D01*
X26903Y-258825D01*
X27712Y-260403D01*
X28417Y-262067D01*
X29005Y-263795D01*
X29462Y-265563D01*
X29789Y-267371D01*
X29985Y-269219D01*
X30050Y-271108D01*
Y-271275D01*
X29980Y-273312D01*
X29769Y-275273D01*
X29417Y-277157D01*
X28925Y-278963D01*
X28292Y-280693D01*
X27533Y-282339D01*
X26664Y-283894D01*
X25684Y-285359D01*
X24594Y-286734D01*
X23393Y-288018D01*
X22090Y-289200D01*
X20693Y-290268D01*
X19202Y-291223D01*
X17618Y-292063D01*
X15940Y-292790D01*
X14186Y-293393D01*
X12376Y-293861D01*
X10509Y-294196D01*
X8584Y-294397D01*
X6603Y-294464D01*
X4610Y-294402D01*
X2705Y-294218D01*
X888Y-293909D01*
X-840Y-293478D01*
X-2480Y-292923D01*
X-4032Y-292245D01*
X-5787Y-291289D01*
X-7435Y-290195D01*
X-8976Y-288964D01*
X-10410Y-287596D01*
X-11736Y-286090D01*
X-13997Y-272102D02*
X-13945Y-270209D01*
X-13789Y-268346D01*
X-13530Y-266514D01*
X-13166Y-264711D01*
X-12699Y-262939D01*
X-12123Y-261222D01*
X-11433Y-259585D01*
X-10629Y-258029D01*
X-9711Y-256553D01*
X-8680Y-255157D01*
X-7536Y-253857D01*
X-6281Y-252667D01*
X-4916Y-251587D01*
X-3441Y-250618D01*
X-1855Y-249760D01*
X-153Y-249037D01*
X1669Y-248475D01*
X3612Y-248073D01*
X5675Y-247832D01*
X7859Y-247752D01*
Y-257968D01*
X5949Y-258132D01*
X4237Y-258625D01*
X2725Y-259446D01*
X1411Y-260595D01*
X312Y-262010D01*
X-557Y-263629D01*
X-1196Y-265451D01*
X-1604Y-267476D01*
Y-275448D01*
X-13830D01*
X-13903Y-274549D01*
X-13955Y-273691D01*
X-13986Y-272875D01*
X-13997Y-272102D01*
G37*
G36*
X9537Y116422D02*
X11258Y116533D01*
X12859Y116867D01*
X14339Y117425D01*
X15699Y118172D01*
X16938Y119078D01*
X18056Y120142D01*
X19031Y121340D01*
X19838Y122650D01*
X20478Y124071D01*
X20942Y125580D01*
X21221Y127154D01*
X21313Y128794D01*
Y128961D01*
X21225Y130600D01*
X20961Y132175D01*
X20520Y133684D01*
X19912Y135101D01*
X19146Y136396D01*
X18223Y137571D01*
X17151Y138607D01*
X15940Y139484D01*
X14590Y140204D01*
X13100Y140738D01*
X11472Y141059D01*
X9704Y141166D01*
Y152144D01*
X11612Y152076D01*
X13621Y151855D01*
X15563Y151487D01*
X17438Y150971D01*
X19246Y150308D01*
X20973Y149518D01*
X22607Y148621D01*
X24147Y147616D01*
X25593Y146504D01*
X26945Y145285D01*
X28194Y143971D01*
X29329Y142573D01*
X30350Y141091D01*
X31257Y139526D01*
X32051Y137877D01*
X32714Y136161D01*
X33229Y134394D01*
X33598Y132578D01*
X33818Y130711D01*
X33892Y128794D01*
Y128627D01*
X33818Y126710D01*
X33598Y124843D01*
X33229Y123026D01*
X32714Y121260D01*
X32051Y119543D01*
X31259Y117896D01*
X30357Y116335D01*
X29344Y114862D01*
X28221Y113475D01*
X26987Y112176D01*
X25650Y110974D01*
X24215Y109879D01*
X22684Y108891D01*
X21055Y108011D01*
X19329Y107237D01*
X17525Y106589D01*
X15660Y106085D01*
X13735Y105725D01*
X11750Y105509D01*
X9704Y105437D01*
X9537Y105443D01*
Y116422D01*
X-14651Y128961D02*
X-14578Y130878D01*
X-14357Y132745D01*
X-13988Y134561D01*
X-13473Y136328D01*
X-12810Y138044D01*
X-12018Y139692D01*
X-11116Y141252D01*
X-10103Y142726D01*
X-8980Y144112D01*
X-7746Y145411D01*
X-6409Y146613D01*
X-4974Y147708D01*
X-3443Y148696D01*
X-1814Y149577D01*
X-88Y150350D01*
X1716Y150998D01*
X3581Y151502D01*
X5506Y151862D01*
X7491Y152078D01*
X9537Y152150D01*
X9704Y152144D01*
Y141166D01*
X8025Y141054D01*
X6438Y140720D01*
X4944Y140163D01*
X3561Y139415D01*
X2308Y138509D01*
X1185Y137446D01*
X210Y136247D01*
X-597Y134938D01*
X-1237Y133517D01*
X-1701Y132008D01*
X-1980Y130433D01*
X-2072Y128794D01*
Y128627D01*
X-1984Y126987D01*
X-1720Y125413D01*
X-1279Y123903D01*
X-671Y122487D01*
X95Y121191D01*
X1018Y120016D01*
X2090Y118981D01*
X3301Y118103D01*
X4651Y117383D01*
X6141Y116849D01*
X7769Y116529D01*
X9537Y116422D01*
Y105443D01*
X7629Y105511D01*
X5620Y105732D01*
X3678Y106100D01*
X1803Y106616D01*
X-5Y107279D01*
X-1732Y108070D01*
X-3366Y108967D01*
X-4906Y109972D01*
X-6352Y111083D01*
X-7704Y112302D01*
X-8953Y113616D01*
X-10088Y115014D01*
X-11109Y116496D01*
X-12016Y118062D01*
X-12810Y119711D01*
X-13473Y121427D01*
X-13988Y123193D01*
X-14357Y125010D01*
X-14578Y126877D01*
X-14651Y128794D01*
Y128961D01*
G37*
G36*
X-27672Y-147236D02*
X-25488Y-147257D01*
X-23492Y-147518D01*
X-21683Y-148020D01*
X-20062Y-148764D01*
X-18628Y-149749D01*
X-17345Y-150928D01*
X-16176Y-152255D01*
X-15121Y-153728D01*
X-14180Y-155349D01*
X-13352Y-157118D01*
Y-148086D01*
X-596D01*
Y-192968D01*
X-13352D01*
Y-176380D01*
X-13426Y-174146D01*
X-13649Y-172086D01*
X-14021Y-170200D01*
X-14542Y-168488D01*
X-15211Y-166952D01*
X-16028Y-165589D01*
X-16995Y-164401D01*
X-18285Y-163223D01*
X-19726Y-162260D01*
X-21318Y-161510D01*
X-23062Y-160975D01*
X-24956Y-160654D01*
X-27002Y-160547D01*
X-27672D01*
Y-147236D01*
G37*
G36*
X-25535Y-348244D02*
X-23974Y-348309D01*
X-22525Y-348505D01*
X-21187Y-348831D01*
X-19347Y-349523D01*
X-17675Y-350425D01*
X-16159Y-351504D01*
X-14790Y-352731D01*
X-13546Y-354062D01*
X-12407Y-355457D01*
Y-349070D01*
X349D01*
Y-393952D01*
X-12407D01*
Y-368938D01*
X-12540Y-366818D01*
X-12939Y-364974D01*
X-13603Y-363408D01*
X-14533Y-362119D01*
X-15692Y-361113D01*
X-17045Y-360394D01*
X-18590Y-359962D01*
X-20328Y-359818D01*
X-22058Y-359962D01*
X-23579Y-360394D01*
X-24892Y-361113D01*
X-25997Y-362119D01*
X-26872Y-363408D01*
X-27497Y-364974D01*
X-27873Y-366818D01*
X-27998Y-368938D01*
Y-393952D01*
X-40754D01*
Y-364903D01*
X-40672Y-362747D01*
X-40429Y-360727D01*
X-40024Y-358845D01*
X-39457Y-357099D01*
X-38727Y-355489D01*
X-37835Y-354017D01*
X-36782Y-352681D01*
X-35366Y-351325D01*
X-33767Y-350216D01*
X-31984Y-349353D01*
X-30018Y-348737D01*
X-27868Y-348367D01*
X-25535Y-348244D01*
G37*
G36*
X-39968Y168154D02*
X-37795Y168056D01*
X-35804Y167763D01*
X-33994Y167275D01*
X-32366Y166591D01*
X-30920Y165713D01*
X-29655Y164638D01*
X-28553Y163336D01*
X-27652Y161829D01*
X-26950Y160118D01*
X-26449Y158202D01*
X-26149Y156081D01*
X-26049Y153756D01*
Y150910D01*
X-20773D01*
Y140457D01*
X-26049D01*
Y106441D01*
X-38805D01*
Y140457D01*
X-48937D01*
Y150851D01*
X-38628D01*
Y152593D01*
X-38915Y154699D01*
X-39779Y156203D01*
X-41219Y157105D01*
X-43234Y157406D01*
X-44825Y157335D01*
X-46248Y157121D01*
X-47609Y156785D01*
X-49012Y156348D01*
Y166898D01*
X-47159Y167421D01*
X-45118Y167819D01*
X-43597Y168005D01*
X-41880Y168117D01*
X-39968Y168154D01*
G37*
G36*
X-55867Y266166D02*
X-11256D01*
Y207524D01*
X-24130D01*
Y230201D01*
X-52099D01*
Y241953D01*
X-24130D01*
Y254414D01*
X-55867D01*
Y266166D01*
G37*
G36*
X-33153Y-448999D02*
X-32678Y-449064D01*
X-31011Y-449475D01*
X-29480Y-450049D01*
X-28087Y-450788D01*
X-26492Y-451885D01*
X-25017Y-453124D01*
X-23663Y-454503D01*
X-22430Y-456024D01*
X-22446Y-433322D01*
X-9691D01*
Y-494444D01*
X-22446D01*
Y-488569D01*
X-23643Y-489868D01*
X-24970Y-491082D01*
X-26428Y-492213D01*
X-28017Y-493261D01*
X-29413Y-493984D01*
X-30952Y-494547D01*
X-32636Y-494950D01*
X-33153Y-495018D01*
Y-484464D01*
X-31678Y-484367D01*
X-30269Y-484074D01*
X-28925Y-483586D01*
X-27083Y-482520D01*
X-25492Y-481077D01*
X-24581Y-479916D01*
X-23799Y-478605D01*
X-23148Y-477146D01*
X-22660Y-475562D01*
X-22367Y-473876D01*
X-22269Y-472087D01*
Y-471920D01*
X-22367Y-470131D01*
X-22660Y-468445D01*
X-23148Y-466861D01*
X-23799Y-465402D01*
X-24581Y-464091D01*
X-25492Y-462930D01*
X-27083Y-461487D01*
X-28925Y-460421D01*
X-30269Y-459933D01*
X-31678Y-459640D01*
X-33153Y-459543D01*
Y-448999D01*
X-56876Y-471920D02*
X-56807Y-469728D01*
X-56601Y-467641D01*
X-56257Y-465657D01*
X-55776Y-463778D01*
X-55157Y-462002D01*
X-54425Y-460331D01*
X-53602Y-458767D01*
X-52688Y-457311D01*
X-51684Y-455962D01*
X-50590Y-454720D01*
X-49113Y-453326D01*
X-47531Y-452115D01*
X-45844Y-451087D01*
X-44053Y-450242D01*
X-42193Y-449583D01*
X-40302Y-449112D01*
X-38380Y-448830D01*
X-36426Y-448736D01*
X-34483Y-448818D01*
X-33153Y-448999D01*
Y-459543D01*
X-34627Y-459640D01*
X-36036Y-459933D01*
X-37380Y-460421D01*
X-38641Y-461090D01*
X-39799Y-461926D01*
X-40855Y-462930D01*
X-41790Y-464091D01*
X-42585Y-465402D01*
X-43241Y-466861D01*
X-43729Y-468445D01*
X-44022Y-470131D01*
X-44120Y-471920D01*
Y-472087D01*
X-44022Y-473918D01*
X-43729Y-475618D01*
X-43241Y-477188D01*
X-42585Y-478624D01*
X-41790Y-479920D01*
X-40855Y-481077D01*
X-39799Y-482081D01*
X-38641Y-482917D01*
X-37380Y-483586D01*
X-36036Y-484074D01*
X-34627Y-484367D01*
X-33153Y-484464D01*
Y-495018D01*
X-34464Y-495191D01*
X-36436Y-495271D01*
X-38425Y-495177D01*
X-40373Y-494895D01*
X-42278Y-494424D01*
X-44142Y-493765D01*
X-45930Y-492920D01*
X-47608Y-491892D01*
X-49176Y-490681D01*
X-50635Y-489287D01*
X-51714Y-488045D01*
X-52706Y-486696D01*
X-53610Y-485240D01*
X-54428Y-483676D01*
X-55158Y-482006D01*
X-55777Y-480229D01*
X-56257Y-478350D01*
X-56601Y-476366D01*
X-56807Y-474279D01*
X-56876Y-472087D01*
Y-471920D01*
G37*
G36*
X-39611Y-46944D02*
X-37923Y-47002D01*
X-36294Y-47174D01*
X-34722Y-47462D01*
X-33208Y-47864D01*
X-31312Y-48580D01*
X-29584Y-49500D01*
X-28023Y-50625D01*
X-26647Y-51940D01*
X-25476Y-53432D01*
X-24510Y-55100D01*
X-23790Y-56945D01*
X-23358Y-58967D01*
X-23214Y-61165D01*
Y-61333D01*
X-23349Y-63396D01*
X-23755Y-65236D01*
X-24431Y-66853D01*
X-25321Y-68280D01*
X-26370Y-69548D01*
X-27577Y-70659D01*
X-28914Y-71626D01*
X-30355Y-72463D01*
X-31898Y-73169D01*
X-33487Y-73778D01*
X-35067Y-74321D01*
X-36638Y-74800D01*
X-38442Y-75365D01*
X-40162Y-75887D01*
X-41745Y-76400D01*
X-43140Y-76933D01*
X-44304Y-77529D01*
X-45195Y-78230D01*
X-45762Y-79046D01*
X-45950Y-79987D01*
Y-80154D01*
X-45626Y-81513D01*
X-44652Y-82580D01*
X-43624Y-83091D01*
X-42270Y-83397D01*
X-40591Y-83500D01*
X-38971Y-83416D01*
X-37294Y-83164D01*
X-35559Y-82746D01*
X-33766Y-82159D01*
X-31942Y-81405D01*
X-30113Y-80484D01*
X-28278Y-79395D01*
X-26438Y-78139D01*
X-20996Y-86516D01*
X-22516Y-87637D01*
X-24061Y-88653D01*
X-25633Y-89564D01*
X-27230Y-90370D01*
X-28852Y-91072D01*
X-30500Y-91669D01*
X-32485Y-92257D01*
X-34453Y-92715D01*
X-36404Y-93041D01*
X-38338Y-93237D01*
X-40256Y-93303D01*
X-42027Y-93248D01*
X-43741Y-93083D01*
X-45396Y-92809D01*
X-46994Y-92424D01*
X-48997Y-91741D01*
X-50824Y-90863D01*
X-52473Y-89789D01*
X-53918Y-88512D01*
X-55131Y-87020D01*
X-56111Y-85314D01*
X-56678Y-83889D01*
X-57083Y-82334D01*
X-57326Y-80648D01*
X-57407Y-78831D01*
Y-78664D01*
X-57267Y-76702D01*
X-56848Y-74946D01*
X-56148Y-73394D01*
X-55235Y-72018D01*
X-54172Y-70791D01*
X-52960Y-69713D01*
X-51618Y-68761D01*
X-50164Y-67910D01*
X-48598Y-67162D01*
X-46985Y-66497D01*
X-45391Y-65898D01*
X-43816Y-65363D01*
X-42022Y-64778D01*
X-40334Y-64193D01*
X-38792Y-63597D01*
X-37440Y-62980D01*
X-36307Y-62331D01*
X-35426Y-61641D01*
X-34860Y-60878D01*
X-34671Y-60010D01*
Y-59842D01*
X-34964Y-58619D01*
X-35843Y-57626D01*
X-37309Y-56967D01*
X-39360Y-56748D01*
X-41063Y-56873D01*
X-42933Y-57250D01*
X-44971Y-57878D01*
X-46572Y-58493D01*
X-48195Y-59207D01*
X-49838Y-60021D01*
X-51502Y-60934D01*
X-56360Y-52139D01*
X-54858Y-51210D01*
X-53298Y-50363D01*
X-51682Y-49601D01*
X-50009Y-48922D01*
X-48279Y-48327D01*
X-46525Y-47829D01*
X-44782Y-47442D01*
X-43048Y-47166D01*
X-41325Y-47000D01*
X-39611Y-46944D01*
G37*
G36*
X-54052Y-165691D02*
X-53236Y-165622D01*
X-51045Y-165566D01*
X-49080Y-165621D01*
X-47203Y-165786D01*
X-45416Y-166061D01*
X-43718Y-166446D01*
X-41615Y-167130D01*
X-39717Y-168009D01*
X-38024Y-169084D01*
X-36550Y-170360D01*
X-35308Y-171840D01*
X-34298Y-173524D01*
X-33712Y-174927D01*
X-33293Y-176456D01*
X-33042Y-178110D01*
X-32958Y-179890D01*
Y-180057D01*
X-33093Y-182203D01*
X-33498Y-184172D01*
X-34173Y-185963D01*
X-35080Y-187578D01*
X-36182Y-189016D01*
X-37480Y-190277D01*
X-38955Y-191352D01*
X-40587Y-192231D01*
X-42378Y-192915D01*
X-44290Y-193404D01*
X-46285Y-193697D01*
X-48365Y-193795D01*
X-50620Y-193698D01*
X-52206Y-193476D01*
Y-184996D01*
X-50267Y-184837D01*
X-48589Y-184363D01*
X-47172Y-183571D01*
X-46099Y-182492D01*
X-45456Y-181151D01*
X-45242Y-179551D01*
Y-179384D01*
X-45503Y-177531D01*
X-46286Y-175996D01*
X-47591Y-174776D01*
X-48876Y-174080D01*
X-50381Y-173583D01*
X-52106Y-173284D01*
X-54052Y-173185D01*
Y-165691D01*
X-74238Y-166910D02*
X-74165Y-164702D01*
X-73945Y-162605D01*
X-73578Y-160618D01*
X-73065Y-158740D01*
X-72396Y-156988D01*
X-71558Y-155378D01*
X-70554Y-153909D01*
X-69381Y-152582D01*
X-68086Y-151438D01*
X-66629Y-150435D01*
X-65009Y-149573D01*
X-63227Y-148853D01*
X-61675Y-148386D01*
X-59998Y-148022D01*
X-58198Y-147762D01*
X-56274Y-147607D01*
X-54225Y-147555D01*
X-52015Y-147595D01*
X-49938Y-147715D01*
X-47995Y-147916D01*
X-46187Y-148197D01*
X-44512Y-148558D01*
X-42523Y-149096D01*
X-40576Y-149707D01*
X-38671Y-150391D01*
X-36808Y-151149D01*
X-39990Y-160849D01*
X-42023Y-160128D01*
X-43990Y-159528D01*
X-45893Y-159049D01*
X-47351Y-158774D01*
X-48918Y-158578D01*
X-50596Y-158460D01*
X-52384Y-158421D01*
X-54623Y-158552D01*
X-56570Y-158946D01*
X-58224Y-159602D01*
X-59585Y-160521D01*
X-60647Y-161691D01*
X-61406Y-163103D01*
X-61862Y-164757D01*
X-62013Y-166653D01*
Y-167408D01*
X-60380Y-166887D01*
X-58720Y-166441D01*
X-57031Y-166069D01*
X-55231Y-165790D01*
X-54052Y-165691D01*
Y-173185D01*
X-55586Y-173236D01*
X-57054Y-173389D01*
X-58457Y-173646D01*
X-60418Y-174180D01*
X-62191Y-174860D01*
Y-177122D01*
X-62020Y-178797D01*
X-61509Y-180305D01*
X-60657Y-181645D01*
X-59464Y-182818D01*
X-57988Y-183770D01*
X-56286Y-184451D01*
X-54359Y-184859D01*
X-52206Y-184996D01*
Y-193476D01*
X-52698Y-193407D01*
X-54597Y-192923D01*
X-56319Y-192245D01*
X-57894Y-191404D01*
X-59355Y-190432D01*
X-60700Y-189330D01*
X-61929Y-188096D01*
X-61954Y-192968D01*
X-74238D01*
Y-166910D01*
G37*
G36*
X-44525Y-248578D02*
X-62110Y-293602D01*
X-61241Y-295015D01*
X-60310Y-295904D01*
X-59169Y-296374D01*
X-57672Y-296531D01*
X-56364Y-296405D01*
X-54951Y-296029D01*
X-53538Y-295463D01*
X-52229Y-294772D01*
X-47958Y-303998D01*
X-49605Y-304884D01*
X-51308Y-305639D01*
X-53067Y-306263D01*
X-54946Y-306729D01*
X-57011Y-307009D01*
X-59263Y-307102D01*
X-61087Y-307027D01*
X-62762Y-306804D01*
X-64287Y-306432D01*
X-65688Y-305892D01*
X-66986Y-305167D01*
X-68181Y-304255D01*
X-69293Y-303153D01*
X-70340Y-301855D01*
X-71321Y-300362D01*
X-72252Y-298655D01*
X-73145Y-296716D01*
X-74002Y-294543D01*
X-91252Y-248578D01*
X-78021D01*
X-68223Y-279143D01*
X-58007Y-248578D01*
X-44525D01*
G37*
G36*
X-93282Y-448713D02*
X-91098Y-448733D01*
X-89102Y-448994D01*
X-87293Y-449497D01*
X-85672Y-450240D01*
X-84238Y-451225D01*
X-82956Y-452404D01*
X-81786Y-453731D01*
X-80731Y-455205D01*
X-79790Y-456826D01*
X-78962Y-458594D01*
Y-449563D01*
X-66206D01*
Y-494444D01*
X-78962D01*
Y-477856D01*
X-79037Y-475622D01*
X-79260Y-473562D01*
X-79631Y-471676D01*
X-80152Y-469965D01*
X-80821Y-468428D01*
X-81639Y-467065D01*
X-82605Y-465877D01*
X-83895Y-464699D01*
X-85336Y-463736D01*
X-86928Y-462987D01*
X-88672Y-462451D01*
X-90566Y-462130D01*
X-92612Y-462023D01*
X-93282D01*
Y-448713D01*
G37*
G36*
X-73512Y-348497D02*
X-72201Y-348324D01*
X-70229Y-348244D01*
X-68239Y-348338D01*
X-66292Y-348620D01*
X-64386Y-349091D01*
X-62522Y-349750D01*
X-60734Y-350595D01*
X-59056Y-351623D01*
X-57488Y-352834D01*
X-56030Y-354228D01*
X-54951Y-355470D01*
X-53959Y-356819D01*
X-53054Y-358275D01*
X-52237Y-359839D01*
X-51506Y-361509D01*
X-50888Y-363285D01*
X-50407Y-365165D01*
X-50064Y-367149D01*
X-49858Y-369236D01*
X-49789Y-371427D01*
Y-371595D01*
X-49858Y-373786D01*
X-50064Y-375874D01*
X-50408Y-377857D01*
X-50889Y-379737D01*
X-51507Y-381513D01*
X-52240Y-383184D01*
X-53063Y-384748D01*
X-53976Y-386204D01*
X-54980Y-387553D01*
X-56075Y-388795D01*
X-57552Y-390189D01*
X-59134Y-391400D01*
X-60820Y-392428D01*
X-62612Y-393273D01*
X-64471Y-393932D01*
X-66362Y-394403D01*
X-68285Y-394685D01*
X-70239Y-394779D01*
X-72181Y-394697D01*
X-73512Y-394515D01*
Y-383972D01*
X-72038Y-383874D01*
X-70628Y-383582D01*
X-69284Y-383094D01*
X-68023Y-382425D01*
X-66865Y-381589D01*
X-65810Y-380585D01*
X-64875Y-379423D01*
X-64079Y-378113D01*
X-63424Y-376654D01*
X-62936Y-375070D01*
X-62643Y-373384D01*
X-62545Y-371595D01*
Y-371427D01*
X-62643Y-369597D01*
X-62936Y-367897D01*
X-63424Y-366327D01*
X-64079Y-364891D01*
X-64875Y-363595D01*
X-65810Y-362438D01*
X-66865Y-361434D01*
X-68023Y-360598D01*
X-69284Y-359929D01*
X-70628Y-359441D01*
X-72038Y-359148D01*
X-73512Y-359051D01*
Y-348497D01*
X-96974Y-332830D02*
X-84218D01*
Y-354945D01*
X-83022Y-353647D01*
X-81695Y-352432D01*
X-80237Y-351301D01*
X-78648Y-350254D01*
X-77252Y-349530D01*
X-75712Y-348967D01*
X-74028Y-348565D01*
X-73512Y-348497D01*
Y-359051D01*
X-74986Y-359148D01*
X-76395Y-359441D01*
X-77740Y-359929D01*
X-79581Y-360995D01*
X-81172Y-362438D01*
X-82084Y-363599D01*
X-82865Y-364910D01*
X-83516Y-366369D01*
X-84005Y-367953D01*
X-84298Y-369639D01*
X-84395Y-371427D01*
Y-371595D01*
X-84298Y-373384D01*
X-84005Y-375070D01*
X-83516Y-376654D01*
X-82865Y-378113D01*
X-82084Y-379423D01*
X-81172Y-380585D01*
X-79581Y-382028D01*
X-77740Y-383094D01*
X-76395Y-383582D01*
X-74986Y-383874D01*
X-73512Y-383972D01*
Y-394515D01*
X-73986Y-394451D01*
X-75654Y-394040D01*
X-77184Y-393465D01*
X-78577Y-392726D01*
X-80173Y-391629D01*
X-81647Y-390391D01*
X-83001Y-389011D01*
X-84235Y-387490D01*
X-84218Y-393952D01*
X-96974D01*
Y-332830D01*
G37*
G36*
X-83255Y234801D02*
X-82438Y234870D01*
X-80248Y234926D01*
X-78282Y234871D01*
X-76406Y234706D01*
X-74619Y234431D01*
X-72921Y234046D01*
X-70818Y233362D01*
X-68920Y232483D01*
X-67227Y231408D01*
X-65752Y230133D01*
X-64510Y228653D01*
X-63501Y226968D01*
X-62915Y225565D01*
X-62496Y224036D01*
X-62245Y222382D01*
X-62161Y220602D01*
Y220435D01*
X-62296Y218289D01*
X-62701Y216321D01*
X-63375Y214529D01*
X-64283Y212914D01*
X-65385Y211476D01*
X-66683Y210215D01*
X-68157Y209140D01*
X-69790Y208261D01*
X-71581Y207577D01*
X-73493Y207088D01*
X-75488Y206795D01*
X-77568Y206697D01*
X-79823Y206794D01*
X-81408Y207016D01*
Y215496D01*
X-79469Y215655D01*
X-77791Y216129D01*
X-76374Y216921D01*
X-75302Y218000D01*
X-74659Y219341D01*
X-74444Y220942D01*
Y221109D01*
X-74706Y222961D01*
X-75489Y224496D01*
X-76794Y225716D01*
X-78079Y226412D01*
X-79584Y226910D01*
X-81309Y227208D01*
X-83255Y227308D01*
Y234801D01*
X-103441Y233582D02*
X-103367Y235790D01*
X-103147Y237887D01*
X-102781Y239875D01*
X-102268Y241752D01*
X-101598Y243504D01*
X-100761Y245114D01*
X-99756Y246583D01*
X-98584Y247910D01*
X-97289Y249054D01*
X-95832Y250057D01*
X-94212Y250919D01*
X-92430Y251639D01*
X-90877Y252106D01*
X-89201Y252470D01*
X-87401Y252730D01*
X-85476Y252885D01*
X-83428Y252937D01*
X-81218Y252897D01*
X-79141Y252777D01*
X-77198Y252576D01*
X-75389Y252296D01*
X-73715Y251934D01*
X-71726Y251396D01*
X-69779Y250785D01*
X-67874Y250101D01*
X-66011Y249343D01*
X-69192Y239643D01*
X-71225Y240364D01*
X-73193Y240964D01*
X-75096Y241443D01*
X-76554Y241718D01*
X-78121Y241914D01*
X-79799Y242032D01*
X-81586Y242071D01*
X-83826Y241940D01*
X-85773Y241546D01*
X-87427Y240890D01*
X-88787Y239972D01*
X-89850Y238801D01*
X-90609Y237389D01*
X-91064Y235735D01*
X-91216Y233840D01*
Y233084D01*
X-89583Y233605D01*
X-87922Y234051D01*
X-86234Y234423D01*
X-84434Y234702D01*
X-83255Y234801D01*
Y227308D01*
X-84788Y227256D01*
X-86257Y227103D01*
X-87659Y226847D01*
X-89621Y226312D01*
X-91393Y225632D01*
Y223370D01*
X-91223Y221695D01*
X-90712Y220188D01*
X-89860Y218847D01*
X-88667Y217675D01*
X-87190Y216722D01*
X-85489Y216041D01*
X-83561Y215633D01*
X-81408Y215496D01*
Y207016D01*
X-81901Y207085D01*
X-83800Y207569D01*
X-85522Y208247D01*
X-87097Y209088D01*
X-88557Y210060D01*
X-89902Y211162D01*
X-91132Y212396D01*
X-91157Y207524D01*
X-103441D01*
Y233582D01*
G37*
G36*
X-101987Y165910D02*
X-100072Y165860D01*
X-98261Y165711D01*
X-96555Y165462D01*
X-94953Y165113D01*
X-92948Y164498D01*
X-91064Y163715D01*
X-89301Y162765D01*
X-87635Y161651D01*
X-86044Y160379D01*
X-84527Y158948D01*
X-83420Y157774D01*
X-82319Y156516D01*
X-81222Y155174D01*
X-80131Y153749D01*
X-89175Y146463D01*
X-90769Y148342D01*
X-92284Y149960D01*
X-93720Y151316D01*
X-95079Y152409D01*
X-96447Y153252D01*
X-97915Y153854D01*
X-99483Y154215D01*
X-101149Y154335D01*
X-103345Y154121D01*
X-105244Y153479D01*
X-106844Y152409D01*
X-107797Y151331D01*
X-108477Y150023D01*
X-108885Y148485D01*
X-109021Y146716D01*
X-108885Y144947D01*
X-108477Y143325D01*
X-107765Y141755D01*
X-106718Y140143D01*
X-105830Y139036D01*
X-104783Y137891D01*
X-103578Y136710D01*
X-102201Y135459D01*
X-100638Y134105D01*
X-98889Y132649D01*
X-79377Y116656D01*
Y106441D01*
X-122781D01*
Y117603D01*
X-97236D01*
X-106783Y124970D01*
X-108286Y126157D01*
X-109717Y127308D01*
X-111073Y128421D01*
X-112356Y129498D01*
X-113565Y130538D01*
X-114965Y131814D01*
X-116235Y133091D01*
X-117373Y134368D01*
X-118381Y135645D01*
X-119534Y137384D01*
X-120483Y139198D01*
X-121228Y141086D01*
X-121649Y142580D01*
X-121950Y144174D01*
X-122130Y145867D01*
X-122191Y147659D01*
Y147826D01*
X-122099Y149830D01*
X-121824Y151740D01*
X-121365Y153556D01*
X-120722Y155277D01*
X-119915Y156889D01*
X-118961Y158375D01*
X-117860Y159735D01*
X-116612Y160970D01*
X-115223Y162077D01*
X-113698Y163053D01*
X-112037Y163898D01*
X-110239Y164612D01*
X-108325Y165180D01*
X-106311Y165585D01*
X-104199Y165829D01*
X-101987Y165910D01*
G37*
G36*
X-119662Y-467167D02*
X-118846Y-467099D01*
X-116655Y-467043D01*
X-114690Y-467098D01*
X-112814Y-467263D01*
X-111026Y-467538D01*
X-109328Y-467922D01*
X-107225Y-468606D01*
X-105327Y-469486D01*
X-103634Y-470561D01*
X-102160Y-471836D01*
X-100918Y-473316D01*
X-99908Y-475001D01*
X-99322Y-476404D01*
X-98903Y-477932D01*
X-98652Y-479587D01*
X-98568Y-481367D01*
Y-481534D01*
X-98703Y-483679D01*
X-99108Y-485648D01*
X-99783Y-487439D01*
X-100690Y-489054D01*
X-101793Y-490492D01*
X-103090Y-491753D01*
X-104565Y-492828D01*
X-106198Y-493708D01*
X-107988Y-494392D01*
X-109900Y-494880D01*
X-111896Y-495174D01*
X-113975Y-495271D01*
X-116231Y-495174D01*
X-117816Y-494953D01*
Y-486472D01*
X-115877Y-486314D01*
X-114199Y-485839D01*
X-112782Y-485048D01*
X-111710Y-483968D01*
X-111066Y-482628D01*
X-110852Y-481027D01*
Y-480860D01*
X-111113Y-479008D01*
X-111896Y-477472D01*
X-113201Y-476253D01*
X-114486Y-475556D01*
X-115991Y-475059D01*
X-117717Y-474760D01*
X-119662Y-474661D01*
Y-467167D01*
X-139848Y-468386D02*
X-139775Y-466179D01*
X-139555Y-464081D01*
X-139189Y-462094D01*
X-138676Y-460216D01*
X-138006Y-458465D01*
X-137169Y-456854D01*
X-136164Y-455386D01*
X-134992Y-454058D01*
X-133697Y-452914D01*
X-132239Y-451911D01*
X-130620Y-451050D01*
X-128837Y-450330D01*
X-127285Y-449862D01*
X-125608Y-449499D01*
X-123808Y-449239D01*
X-121884Y-449083D01*
X-119836Y-449031D01*
X-117625Y-449071D01*
X-115548Y-449192D01*
X-113606Y-449392D01*
X-111797Y-449673D01*
X-110122Y-450034D01*
X-108133Y-450572D01*
X-106186Y-451183D01*
X-104281Y-451868D01*
X-102418Y-452625D01*
X-105600Y-462326D01*
X-107633Y-461605D01*
X-109601Y-461004D01*
X-111503Y-460525D01*
X-112961Y-460250D01*
X-114529Y-460054D01*
X-116206Y-459936D01*
X-117994Y-459897D01*
X-120234Y-460028D01*
X-122180Y-460422D01*
X-123834Y-461078D01*
X-125195Y-461997D01*
X-126258Y-463168D01*
X-127016Y-464580D01*
X-127472Y-466234D01*
X-127624Y-468129D01*
Y-468885D01*
X-125991Y-468364D01*
X-124330Y-467917D01*
X-122641Y-467545D01*
X-120841Y-467266D01*
X-119662Y-467167D01*
Y-474661D01*
X-121196Y-474712D01*
X-122664Y-474866D01*
X-124067Y-475122D01*
X-126028Y-475656D01*
X-127801Y-476337D01*
Y-478598D01*
X-127630Y-480273D01*
X-127119Y-481781D01*
X-126267Y-483121D01*
X-125074Y-484294D01*
X-123598Y-485247D01*
X-121896Y-485927D01*
X-119969Y-486336D01*
X-117816Y-486472D01*
Y-494953D01*
X-118308Y-494884D01*
X-120208Y-494399D01*
X-121929Y-493721D01*
X-123505Y-492880D01*
X-124965Y-491909D01*
X-126310Y-490806D01*
X-127540Y-489572D01*
X-127565Y-494444D01*
X-139848D01*
Y-468386D01*
G37*
G36*
X-121005Y-283480D02*
X-119283Y-283368D01*
X-117682Y-283034D01*
X-116202Y-282477D01*
X-114842Y-281729D01*
X-113604Y-280824D01*
X-112485Y-279760D01*
X-111511Y-278562D01*
X-110703Y-277252D01*
X-110063Y-275831D01*
X-109599Y-274322D01*
X-109321Y-272747D01*
X-109228Y-271108D01*
Y-270941D01*
X-109316Y-269301D01*
X-109581Y-267727D01*
X-110022Y-266217D01*
X-110629Y-264801D01*
X-111395Y-263505D01*
X-112318Y-262330D01*
X-113390Y-261295D01*
X-114601Y-260417D01*
X-115951Y-259697D01*
X-117441Y-259163D01*
X-119069Y-258843D01*
X-120837Y-258736D01*
Y-247757D01*
X-118929Y-247825D01*
X-116920Y-248046D01*
X-114978Y-248415D01*
X-113104Y-248930D01*
X-111296Y-249593D01*
X-109568Y-250384D01*
X-107935Y-251281D01*
X-106395Y-252286D01*
X-104949Y-253397D01*
X-103596Y-254616D01*
X-102347Y-255931D01*
X-101212Y-257329D01*
X-100191Y-258810D01*
X-99284Y-260376D01*
X-98491Y-262025D01*
X-97828Y-263741D01*
X-97312Y-265507D01*
X-96944Y-267324D01*
X-96723Y-269191D01*
X-96649Y-271108D01*
Y-271275D01*
X-96723Y-273192D01*
X-96944Y-275059D01*
X-97312Y-276875D01*
X-97828Y-278642D01*
X-98491Y-280358D01*
X-99282Y-282006D01*
X-100185Y-283566D01*
X-101197Y-285040D01*
X-102320Y-286426D01*
X-103554Y-287725D01*
X-104891Y-288927D01*
X-106326Y-290022D01*
X-107858Y-291010D01*
X-109486Y-291891D01*
X-111212Y-292664D01*
X-113017Y-293312D01*
X-114882Y-293816D01*
X-116806Y-294176D01*
X-118792Y-294392D01*
X-120837Y-294464D01*
X-121005Y-294458D01*
Y-283480D01*
X-145193Y-270941D02*
X-145119Y-269024D01*
X-144898Y-267157D01*
X-144530Y-265340D01*
X-144014Y-263574D01*
X-143351Y-261857D01*
X-142559Y-260210D01*
X-141657Y-258649D01*
X-140644Y-257176D01*
X-139521Y-255789D01*
X-138288Y-254490D01*
X-136950Y-253288D01*
X-135516Y-252193D01*
X-133984Y-251205D01*
X-132355Y-250325D01*
X-130629Y-249551D01*
X-128825Y-248903D01*
X-126960Y-248399D01*
X-125035Y-248040D01*
X-123050Y-247824D01*
X-121005Y-247752D01*
X-120837Y-247757D01*
Y-258736D01*
X-122517Y-258847D01*
X-124104Y-259182D01*
X-125598Y-259739D01*
X-126981Y-260486D01*
X-128233Y-261392D01*
X-129357Y-262456D01*
X-130331Y-263654D01*
X-131138Y-264964D01*
X-131779Y-266385D01*
X-132243Y-267894D01*
X-132521Y-269468D01*
X-132614Y-271108D01*
Y-271275D01*
X-132526Y-272914D01*
X-132261Y-274489D01*
X-131820Y-275998D01*
X-131212Y-277415D01*
X-130447Y-278711D01*
X-129524Y-279885D01*
X-128452Y-280921D01*
X-127241Y-281799D01*
X-125890Y-282518D01*
X-124401Y-283053D01*
X-122772Y-283373D01*
X-121005Y-283480D01*
Y-294458D01*
X-122913Y-294390D01*
X-124922Y-294169D01*
X-126863Y-293801D01*
X-128738Y-293285D01*
X-130546Y-292622D01*
X-132273Y-291832D01*
X-133907Y-290935D01*
X-135447Y-289930D01*
X-136893Y-288818D01*
X-138246Y-287599D01*
X-139494Y-286285D01*
X-140629Y-284887D01*
X-141650Y-283405D01*
X-142558Y-281840D01*
X-143351Y-280191D01*
X-144014Y-278475D01*
X-144530Y-276708D01*
X-144898Y-274892D01*
X-145119Y-273025D01*
X-145193Y-271108D01*
Y-270941D01*
G37*
G36*
X-110058Y-147909D02*
X-101602Y-175308D01*
X-94400Y-148086D01*
X-81503D01*
X-95320Y-193322D01*
X-106709D01*
X-115502Y-165756D01*
X-124127Y-193322D01*
X-135600D01*
X-149584Y-148077D01*
X-136940Y-148086D01*
X-129571Y-175392D01*
X-121029Y-147909D01*
X-110058D01*
G37*
G36*
X-135730Y253233D02*
X-133688Y253159D01*
X-131716Y252938D01*
X-129815Y252570D01*
X-127984Y252054D01*
X-126223Y251391D01*
X-124545Y250601D01*
X-122965Y249703D01*
X-121482Y248699D01*
X-120095Y247587D01*
X-118805Y246368D01*
X-117618Y245052D01*
X-116538Y243649D01*
X-115565Y242159D01*
X-114700Y240582D01*
X-113942Y238917D01*
X-113308Y237190D01*
X-112815Y235421D01*
X-112462Y233613D01*
X-112251Y231765D01*
X-112181Y229876D01*
Y229709D01*
X-112251Y227822D01*
X-112462Y225979D01*
X-112815Y224179D01*
X-113308Y222422D01*
X-113942Y220709D01*
X-114700Y219062D01*
X-115565Y217502D01*
X-116538Y216028D01*
X-117618Y214642D01*
X-118805Y213343D01*
X-120095Y212139D01*
X-121482Y211039D01*
X-122965Y210043D01*
X-124545Y209151D01*
X-126223Y208362D01*
X-127977Y207699D01*
X-129788Y207183D01*
X-131656Y206815D01*
X-133581Y206594D01*
X-135562Y206520D01*
X-137725Y206584D01*
X-139749Y206776D01*
X-141634Y207097D01*
X-143378Y207545D01*
X-144983Y208121D01*
X-146449Y208826D01*
X-148087Y209800D01*
X-149651Y210879D01*
X-151141Y212061D01*
X-152558Y213347D01*
X-153901Y214737D01*
X-146448Y222278D01*
X-144881Y220924D01*
X-143303Y219766D01*
X-141717Y218803D01*
X-140038Y218081D01*
X-138182Y217649D01*
X-136149Y217504D01*
X-134474Y217611D01*
X-132910Y217932D01*
X-131459Y218466D01*
X-130129Y219186D01*
X-128928Y220063D01*
X-127858Y221099D01*
X-126933Y222278D01*
X-126165Y223588D01*
X-125555Y225028D01*
X-125113Y226570D01*
X-124848Y228186D01*
X-124759Y229876D01*
Y230043D01*
X-124848Y231683D01*
X-125113Y233257D01*
X-125555Y234767D01*
X-126160Y236183D01*
X-126914Y237479D01*
X-127816Y238654D01*
X-128849Y239689D01*
X-129994Y240567D01*
X-131250Y241287D01*
X-132613Y241821D01*
X-134078Y242142D01*
X-135646Y242248D01*
X-137809Y242100D01*
X-139721Y241653D01*
X-141382Y240909D01*
X-142903Y239913D01*
X-144397Y238713D01*
X-145862Y237308D01*
X-153650Y245687D01*
X-152337Y247035D01*
X-150944Y248262D01*
X-149470Y249369D01*
X-147915Y250355D01*
X-146281Y251220D01*
X-144825Y251835D01*
X-143248Y252338D01*
X-141550Y252730D01*
X-139731Y253009D01*
X-137791Y253177D01*
X-135730Y253233D01*
G37*
G36*
X-116495Y-47417D02*
X-108039Y-74816D01*
X-100837Y-47594D01*
X-87940D01*
X-101757Y-92830D01*
X-113146D01*
X-121939Y-65264D01*
X-130564Y-92830D01*
X-142037D01*
X-156021Y-47585D01*
X-143377Y-47594D01*
X-136008Y-74900D01*
X-127466Y-47417D01*
X-116495D01*
G37*
G36*
X-164120Y-449563D02*
X-151364D01*
Y-494444D01*
X-164120D01*
Y-449563D01*
G37*
G36*
X-164474Y-433322D02*
X-151009D01*
Y-444602D01*
X-164474D01*
Y-433322D01*
G37*
G36*
X-170616Y-131846D02*
X-157860D01*
Y-192968D01*
X-170616D01*
Y-131846D01*
G37*
G36*
X-173045Y-386582D02*
X-165759Y-380134D01*
X-163992Y-381605D01*
X-162261Y-382777D01*
X-160568Y-383651D01*
X-158818Y-384256D01*
X-156921Y-384619D01*
X-154874Y-384740D01*
X-152825Y-384601D01*
X-150948Y-384185D01*
X-149244Y-383491D01*
X-147713Y-382519D01*
X-146392Y-381275D01*
X-145316Y-379764D01*
X-144487Y-377986D01*
X-143903Y-375941D01*
X-162913D01*
Y-367968D01*
X-143736D01*
X-144220Y-365909D01*
X-144919Y-364069D01*
X-145832Y-362448D01*
X-146960Y-361046D01*
X-148292Y-359915D01*
X-149818Y-359107D01*
X-151537Y-358622D01*
X-153450Y-358460D01*
Y-348244D01*
X-151509Y-348317D01*
X-149638Y-348538D01*
X-147837Y-348907D01*
X-146107Y-349422D01*
X-144448Y-350085D01*
X-142869Y-350876D01*
X-141380Y-351773D01*
X-139981Y-352778D01*
X-138673Y-353889D01*
X-137456Y-355108D01*
X-136335Y-356424D01*
X-135319Y-357827D01*
X-134406Y-359318D01*
X-133597Y-360895D01*
X-132892Y-362559D01*
X-132304Y-364287D01*
X-131847Y-366055D01*
X-131520Y-367863D01*
X-131325Y-369711D01*
X-131259Y-371600D01*
Y-371767D01*
X-131330Y-373805D01*
X-131541Y-375765D01*
X-131892Y-377649D01*
X-132384Y-379455D01*
X-133017Y-381185D01*
X-133776Y-382831D01*
X-134645Y-384386D01*
X-135625Y-385851D01*
X-136715Y-387226D01*
X-137916Y-388510D01*
X-139219Y-389692D01*
X-140616Y-390760D01*
X-142107Y-391715D01*
X-143691Y-392555D01*
X-145369Y-393282D01*
X-147123Y-393885D01*
X-148933Y-394354D01*
X-150800Y-394688D01*
X-152725Y-394889D01*
X-154706Y-394956D01*
X-156699Y-394895D01*
X-158605Y-394710D01*
X-160421Y-394401D01*
X-162150Y-393970D01*
X-163789Y-393415D01*
X-165341Y-392737D01*
X-167096Y-391781D01*
X-168744Y-390687D01*
X-170285Y-389456D01*
X-171719Y-388088D01*
X-173045Y-386582D01*
X-175306Y-372594D02*
X-175254Y-370701D01*
X-175098Y-368838D01*
X-174839Y-367006D01*
X-174475Y-365203D01*
X-174008Y-363431D01*
X-173432Y-361714D01*
X-172742Y-360077D01*
X-171938Y-358521D01*
X-171020Y-357045D01*
X-169989Y-355649D01*
X-168845Y-354349D01*
X-167590Y-353159D01*
X-166225Y-352080D01*
X-164750Y-351111D01*
X-163164Y-350252D01*
X-161462Y-349529D01*
X-159640Y-348967D01*
X-157697Y-348565D01*
X-155634Y-348324D01*
X-153450Y-348244D01*
Y-358460D01*
X-155360Y-358624D01*
X-157072Y-359117D01*
X-158584Y-359938D01*
X-159898Y-361087D01*
X-160997Y-362502D01*
X-161866Y-364121D01*
X-162505Y-365943D01*
X-162913Y-367968D01*
Y-375941D01*
X-175139D01*
X-175212Y-375041D01*
X-175264Y-374183D01*
X-175296Y-373368D01*
X-175306Y-372594D01*
G37*
G36*
X-158091Y117071D02*
X-156202Y117230D01*
X-154433Y117705D01*
X-152785Y118496D01*
X-151276Y119562D01*
X-149925Y120861D01*
X-148732Y122394D01*
X-147943Y123690D01*
X-147248Y125107D01*
X-146648Y126645D01*
X-146141Y128303D01*
X-145739Y130058D01*
X-145452Y131886D01*
X-145279Y133787D01*
X-145222Y135762D01*
Y135930D01*
X-145279Y137902D01*
X-145452Y139796D01*
X-145739Y141611D01*
X-146141Y143348D01*
X-146833Y145508D01*
X-147682Y147464D01*
X-148690Y149214D01*
X-149855Y150742D01*
X-151178Y152027D01*
X-152659Y153070D01*
X-154284Y153838D01*
X-156039Y154300D01*
X-157924Y154453D01*
Y166081D01*
X-156169Y166022D01*
X-154304Y165826D01*
X-152497Y165501D01*
X-150749Y165045D01*
X-149058Y164458D01*
X-147426Y163741D01*
X-145557Y162733D01*
X-143799Y161584D01*
X-142151Y160293D01*
X-140614Y158863D01*
X-139187Y157291D01*
X-138087Y155883D01*
X-137073Y154396D01*
X-136144Y152830D01*
X-135302Y151185D01*
X-134546Y149461D01*
X-133876Y147658D01*
X-133301Y145792D01*
X-132830Y143879D01*
X-132464Y141920D01*
X-132203Y139914D01*
X-132046Y137861D01*
X-131994Y135762D01*
Y135594D01*
X-132045Y133496D01*
X-132198Y131443D01*
X-132454Y129438D01*
X-132812Y127478D01*
X-133272Y125566D01*
X-133834Y123699D01*
X-134491Y121897D01*
X-135233Y120176D01*
X-136061Y118537D01*
X-136975Y116979D01*
X-137976Y115502D01*
X-139062Y114107D01*
X-140474Y112553D01*
X-141999Y111139D01*
X-143639Y109865D01*
X-145392Y108733D01*
X-147259Y107741D01*
X-148891Y107037D01*
X-150582Y106461D01*
X-152330Y106013D01*
X-154136Y105693D01*
X-156001Y105501D01*
X-157924Y105437D01*
X-158091Y105443D01*
Y117071D01*
X-184021Y135930D02*
X-183969Y138029D01*
X-183812Y140081D01*
X-183551Y142087D01*
X-183185Y144046D01*
X-182714Y145959D01*
X-182139Y147825D01*
X-181470Y149627D01*
X-180717Y151348D01*
X-179881Y152988D01*
X-178961Y154546D01*
X-177957Y156022D01*
X-176870Y157417D01*
X-175458Y158972D01*
X-173932Y160386D01*
X-172292Y161659D01*
X-170539Y162792D01*
X-168672Y163783D01*
X-167042Y164487D01*
X-165359Y165063D01*
X-163622Y165511D01*
X-161832Y165831D01*
X-159988Y166023D01*
X-158091Y166087D01*
X-157924Y166081D01*
Y154453D01*
X-159767Y154295D01*
X-161508Y153820D01*
X-163147Y153028D01*
X-164661Y151958D01*
X-166025Y150645D01*
X-167242Y149089D01*
X-168049Y147777D01*
X-168756Y146355D01*
X-169365Y144822D01*
X-169874Y143180D01*
X-170276Y141443D01*
X-170563Y139628D01*
X-170735Y137735D01*
X-170793Y135762D01*
Y135594D01*
X-170738Y133622D01*
X-170574Y131728D01*
X-170299Y129913D01*
X-169915Y128177D01*
X-169242Y126016D01*
X-168393Y124061D01*
X-167367Y122310D01*
X-166178Y120783D01*
X-164841Y119498D01*
X-163356Y118454D01*
X-161731Y117686D01*
X-159976Y117225D01*
X-158091Y117071D01*
Y105443D01*
X-159846Y105503D01*
X-161711Y105698D01*
X-163518Y106024D01*
X-165266Y106480D01*
X-166957Y107066D01*
X-168589Y107783D01*
X-170458Y108792D01*
X-172216Y109941D01*
X-173864Y111231D01*
X-175401Y112662D01*
X-176828Y114233D01*
X-177928Y115641D01*
X-178942Y117128D01*
X-179871Y118694D01*
X-180713Y120339D01*
X-181469Y122063D01*
X-182139Y123867D01*
X-182714Y125733D01*
X-183185Y127646D01*
X-183551Y129605D01*
X-183812Y131611D01*
X-183969Y133663D01*
X-184021Y135762D01*
Y135930D01*
G37*
G36*
X-177082Y263863D02*
X-164326D01*
Y252406D01*
X-158967D01*
Y241540D01*
X-164326D01*
Y220250D01*
X-164387Y218367D01*
X-164568Y216657D01*
X-164869Y215119D01*
X-165292Y213755D01*
X-166019Y212158D01*
X-166914Y210775D01*
X-167977Y209606D01*
X-169199Y208652D01*
X-170569Y207911D01*
X-172089Y207385D01*
X-173744Y207036D01*
X-175520Y206826D01*
X-177417Y206756D01*
X-179455Y206835D01*
X-181325Y207073D01*
X-183028Y207468D01*
X-184600Y207994D01*
X-186080Y208622D01*
X-187466Y209352D01*
Y219568D01*
X-185974Y218846D01*
X-184430Y218330D01*
X-182834Y218021D01*
X-181186Y217918D01*
X-179390Y218191D01*
X-178108Y219011D01*
X-177339Y220376D01*
X-177082Y222289D01*
Y241540D01*
X-187634D01*
Y252406D01*
X-177082D01*
Y263863D01*
G37*
G36*
X-154110Y-248578D02*
Y-277628D01*
X-154191Y-279784D01*
X-154434Y-281803D01*
X-154839Y-283686D01*
X-155407Y-285432D01*
X-156136Y-287041D01*
X-157028Y-288514D01*
X-158082Y-289850D01*
X-159497Y-291206D01*
X-161097Y-292315D01*
X-162879Y-293178D01*
X-164846Y-293794D01*
X-166995Y-294164D01*
X-169329Y-294287D01*
X-170889Y-294222D01*
X-172339Y-294026D01*
X-173676Y-293700D01*
X-175516Y-293008D01*
X-177188Y-292106D01*
X-178704Y-291026D01*
X-180073Y-289800D01*
X-181317Y-288468D01*
X-182456Y-287074D01*
Y-293460D01*
X-195212D01*
Y-248578D01*
X-182456D01*
Y-273593D01*
X-182323Y-275713D01*
X-181925Y-277556D01*
X-181260Y-279122D01*
X-180330Y-280411D01*
X-179171Y-281418D01*
X-177819Y-282137D01*
X-176274Y-282568D01*
X-174536Y-282712D01*
X-172806Y-282568D01*
X-171284Y-282137D01*
X-169971Y-281418D01*
X-168867Y-280411D01*
X-167991Y-279122D01*
X-167366Y-277556D01*
X-166991Y-275713D01*
X-166866Y-273593D01*
Y-248578D01*
X-154110D01*
G37*
G36*
X-182143Y-65199D02*
X-181326Y-65130D01*
X-179135Y-65074D01*
X-177170Y-65129D01*
X-175294Y-65294D01*
X-173507Y-65569D01*
X-171808Y-65954D01*
X-169706Y-66638D01*
X-167808Y-67517D01*
X-166115Y-68592D01*
X-164640Y-69867D01*
X-163398Y-71347D01*
X-162389Y-73032D01*
X-161802Y-74435D01*
X-161384Y-75964D01*
X-161133Y-77618D01*
X-161049Y-79398D01*
Y-79565D01*
X-161184Y-81711D01*
X-161589Y-83679D01*
X-162263Y-85471D01*
X-163170Y-87086D01*
X-164273Y-88524D01*
X-165571Y-89785D01*
X-167045Y-90860D01*
X-168678Y-91739D01*
X-170469Y-92423D01*
X-172380Y-92912D01*
X-174376Y-93205D01*
X-176456Y-93303D01*
X-178711Y-93206D01*
X-180296Y-92984D01*
Y-84504D01*
X-178357Y-84345D01*
X-176679Y-83871D01*
X-175262Y-83079D01*
X-174190Y-82000D01*
X-173547Y-80659D01*
X-173332Y-79058D01*
Y-78891D01*
X-173593Y-77039D01*
X-174376Y-75504D01*
X-175682Y-74284D01*
X-176966Y-73588D01*
X-178471Y-73090D01*
X-180197Y-72792D01*
X-182143Y-72692D01*
Y-65199D01*
X-202328Y-66418D02*
X-202255Y-64210D01*
X-202035Y-62113D01*
X-201669Y-60125D01*
X-201156Y-58248D01*
X-200486Y-56496D01*
X-199649Y-54886D01*
X-198644Y-53417D01*
X-197472Y-52090D01*
X-196177Y-50946D01*
X-194720Y-49943D01*
X-193100Y-49081D01*
X-191318Y-48361D01*
X-189765Y-47894D01*
X-188089Y-47530D01*
X-186288Y-47270D01*
X-184364Y-47115D01*
X-182316Y-47063D01*
X-180105Y-47103D01*
X-178029Y-47223D01*
X-176086Y-47424D01*
X-174277Y-47704D01*
X-172602Y-48066D01*
X-170614Y-48604D01*
X-168667Y-49215D01*
X-166762Y-49899D01*
X-164898Y-50657D01*
X-168080Y-60357D01*
X-170113Y-59636D01*
X-172081Y-59036D01*
X-173984Y-58557D01*
X-175441Y-58282D01*
X-177009Y-58086D01*
X-178687Y-57968D01*
X-180474Y-57929D01*
X-182714Y-58060D01*
X-184661Y-58454D01*
X-186314Y-59110D01*
X-187675Y-60028D01*
X-188738Y-61199D01*
X-189497Y-62611D01*
X-189952Y-64265D01*
X-190104Y-66160D01*
Y-66916D01*
X-188471Y-66395D01*
X-186810Y-65949D01*
X-185122Y-65577D01*
X-183322Y-65298D01*
X-182143Y-65199D01*
Y-72692D01*
X-183676Y-72744D01*
X-185144Y-72897D01*
X-186547Y-73153D01*
X-188508Y-73688D01*
X-190281Y-74368D01*
Y-76630D01*
X-190111Y-78305D01*
X-189599Y-79812D01*
X-188747Y-81153D01*
X-187554Y-82325D01*
X-186078Y-83278D01*
X-184377Y-83959D01*
X-182449Y-84367D01*
X-180296Y-84504D01*
Y-92984D01*
X-180788Y-92915D01*
X-182688Y-92431D01*
X-184410Y-91753D01*
X-185985Y-90912D01*
X-187445Y-89940D01*
X-188790Y-88838D01*
X-190020Y-87604D01*
X-190045Y-92476D01*
X-202328D01*
Y-66418D01*
G37*
G36*
X-201932Y-448736D02*
X-200372Y-448801D01*
X-198922Y-448997D01*
X-197585Y-449323D01*
X-195745Y-450015D01*
X-194073Y-450917D01*
X-192557Y-451996D01*
X-191188Y-453223D01*
X-189944Y-454555D01*
X-188805Y-455949D01*
Y-449563D01*
X-176049D01*
Y-494444D01*
X-188805D01*
Y-469430D01*
X-188938Y-467310D01*
X-189336Y-465466D01*
X-190001Y-463900D01*
X-190931Y-462611D01*
X-192090Y-461605D01*
X-193442Y-460886D01*
X-194988Y-460454D01*
X-196725Y-460311D01*
X-198455Y-460454D01*
X-199977Y-460886D01*
X-201290Y-461605D01*
X-202394Y-462611D01*
X-203270Y-463900D01*
X-203895Y-465466D01*
X-204270Y-467310D01*
X-204395Y-469430D01*
Y-494444D01*
X-217151D01*
Y-465395D01*
X-217070Y-463239D01*
X-216827Y-461220D01*
X-216422Y-459337D01*
X-215854Y-457591D01*
X-215125Y-455981D01*
X-214233Y-454509D01*
X-213179Y-453173D01*
X-211764Y-451817D01*
X-210164Y-450708D01*
X-208382Y-449845D01*
X-206415Y-449229D01*
X-204266Y-448859D01*
X-201932Y-448736D01*
G37*
G36*
X-203166Y-366675D02*
X-202350Y-366607D01*
X-200159Y-366551D01*
X-198194Y-366606D01*
X-196318Y-366771D01*
X-194530Y-367045D01*
X-192832Y-367430D01*
X-190729Y-368114D01*
X-188831Y-368994D01*
X-187138Y-370069D01*
X-185664Y-371344D01*
X-184422Y-372824D01*
X-183412Y-374508D01*
X-182826Y-375912D01*
X-182407Y-377440D01*
X-182156Y-379094D01*
X-182072Y-380874D01*
Y-381041D01*
X-182207Y-383187D01*
X-182612Y-385156D01*
X-183287Y-386947D01*
X-184194Y-388562D01*
X-185296Y-390000D01*
X-186594Y-391261D01*
X-188069Y-392336D01*
X-189701Y-393216D01*
X-191492Y-393900D01*
X-193404Y-394388D01*
X-195400Y-394681D01*
X-197479Y-394779D01*
X-199735Y-394682D01*
X-201320Y-394460D01*
Y-385980D01*
X-199381Y-385822D01*
X-197703Y-385347D01*
X-196286Y-384556D01*
X-195214Y-383476D01*
X-194570Y-382136D01*
X-194356Y-380535D01*
Y-380368D01*
X-194617Y-378516D01*
X-195400Y-376980D01*
X-196705Y-375761D01*
X-197990Y-375064D01*
X-199495Y-374567D01*
X-201220Y-374268D01*
X-203166Y-374169D01*
Y-366675D01*
X-223352Y-367894D02*
X-223279Y-365687D01*
X-223059Y-363589D01*
X-222693Y-361602D01*
X-222180Y-359724D01*
X-221510Y-357973D01*
X-220672Y-356362D01*
X-219668Y-354893D01*
X-218496Y-353566D01*
X-217201Y-352422D01*
X-215743Y-351419D01*
X-214123Y-350558D01*
X-212341Y-349838D01*
X-210789Y-349370D01*
X-209112Y-349006D01*
X-207312Y-348747D01*
X-205388Y-348591D01*
X-203340Y-348539D01*
X-201129Y-348579D01*
X-199052Y-348699D01*
X-197110Y-348900D01*
X-195301Y-349181D01*
X-193626Y-349542D01*
X-191637Y-350080D01*
X-189690Y-350691D01*
X-187785Y-351376D01*
X-185922Y-352133D01*
X-189104Y-361834D01*
X-191137Y-361112D01*
X-193105Y-360512D01*
X-195007Y-360033D01*
X-196465Y-359758D01*
X-198033Y-359562D01*
X-199710Y-359444D01*
X-201498Y-359405D01*
X-203738Y-359536D01*
X-205684Y-359930D01*
X-207338Y-360586D01*
X-208699Y-361505D01*
X-209761Y-362675D01*
X-210520Y-364088D01*
X-210976Y-365741D01*
X-211128Y-367637D01*
Y-368393D01*
X-209495Y-367872D01*
X-207834Y-367425D01*
X-206145Y-367053D01*
X-204345Y-366774D01*
X-203166Y-366675D01*
Y-374169D01*
X-204700Y-374220D01*
X-206168Y-374374D01*
X-207571Y-374630D01*
X-209532Y-375164D01*
X-211305Y-375845D01*
Y-378106D01*
X-211134Y-379781D01*
X-210623Y-381289D01*
X-209771Y-382629D01*
X-208578Y-383802D01*
X-207102Y-384755D01*
X-205400Y-385435D01*
X-203473Y-385844D01*
X-201320Y-385980D01*
Y-394460D01*
X-201812Y-394392D01*
X-203712Y-393907D01*
X-205433Y-393229D01*
X-207009Y-392388D01*
X-208469Y-391417D01*
X-209814Y-390314D01*
X-211044Y-389080D01*
X-211068Y-393952D01*
X-223352D01*
Y-367894D01*
G37*
G36*
X-233627Y-247728D02*
X-231443Y-247749D01*
X-229446Y-248010D01*
X-227638Y-248513D01*
X-226016Y-249256D01*
X-224583Y-250241D01*
X-223300Y-251420D01*
X-222131Y-252747D01*
X-221076Y-254220D01*
X-220134Y-255842D01*
X-219307Y-257610D01*
Y-248578D01*
X-206551D01*
Y-293460D01*
X-219307D01*
Y-276872D01*
X-219381Y-274638D01*
X-219604Y-272578D01*
X-219976Y-270692D01*
X-220496Y-268981D01*
X-221165Y-267444D01*
X-221983Y-266081D01*
X-222950Y-264893D01*
X-224240Y-263715D01*
X-225681Y-262752D01*
X-227273Y-262002D01*
X-229016Y-261467D01*
X-230911Y-261146D01*
X-232957Y-261039D01*
X-233627D01*
Y-247728D01*
G37*
G36*
X-239137Y-46767D02*
X-237576Y-46833D01*
X-236127Y-47028D01*
X-234789Y-47355D01*
X-232950Y-48047D01*
X-231277Y-48948D01*
X-229762Y-50028D01*
X-228392Y-51255D01*
X-227149Y-52586D01*
X-226009Y-53980D01*
Y-47594D01*
X-213254D01*
Y-92476D01*
X-226009D01*
Y-67461D01*
X-226142Y-65341D01*
X-226541Y-63498D01*
X-227205Y-61932D01*
X-228135Y-60643D01*
X-229295Y-59636D01*
X-230647Y-58917D01*
X-232192Y-58486D01*
X-233930Y-58342D01*
X-235660Y-58486D01*
X-237181Y-58917D01*
X-238494Y-59636D01*
X-239599Y-60643D01*
X-240474Y-61932D01*
X-241100Y-63498D01*
X-241475Y-65341D01*
X-241600Y-67461D01*
Y-92476D01*
X-254356D01*
Y-63426D01*
X-254275Y-61270D01*
X-254032Y-59251D01*
X-253626Y-57368D01*
X-253059Y-55622D01*
X-252329Y-54013D01*
X-251438Y-52540D01*
X-250384Y-51204D01*
X-248968Y-49849D01*
X-247369Y-48739D01*
X-245586Y-47877D01*
X-243620Y-47260D01*
X-241470Y-46891D01*
X-239137Y-46767D01*
G37*
G36*
X-249159Y-337614D02*
X-236403D01*
Y-349070D01*
X-231044D01*
Y-359937D01*
X-236403D01*
Y-381226D01*
X-236463Y-383109D01*
X-236644Y-384819D01*
X-236946Y-386357D01*
X-237368Y-387722D01*
X-238096Y-389319D01*
X-238991Y-390702D01*
X-240054Y-391870D01*
X-241276Y-392825D01*
X-242646Y-393565D01*
X-244166Y-394091D01*
X-245821Y-394441D01*
X-247597Y-394650D01*
X-249494Y-394720D01*
X-251532Y-394641D01*
X-253402Y-394404D01*
X-255105Y-394008D01*
X-256677Y-393482D01*
X-258156Y-392855D01*
X-259543Y-392124D01*
Y-381909D01*
X-258051Y-382631D01*
X-256507Y-383146D01*
X-254911Y-383456D01*
X-253262Y-383559D01*
X-251467Y-383285D01*
X-250185Y-382466D01*
X-249416Y-381100D01*
X-249159Y-379188D01*
Y-359937D01*
X-259711D01*
Y-349070D01*
X-249159D01*
Y-337614D01*
G37*
G36*
X-280281Y-36137D02*
X-267525D01*
Y-47594D01*
X-262166D01*
Y-58460D01*
X-267525D01*
Y-79750D01*
X-267586Y-81633D01*
X-267766Y-83343D01*
X-268068Y-84881D01*
X-268490Y-86245D01*
X-269218Y-87842D01*
X-270113Y-89225D01*
X-271176Y-90394D01*
X-272398Y-91348D01*
X-273768Y-92089D01*
X-275288Y-92615D01*
X-276943Y-92964D01*
X-278719Y-93174D01*
X-280616Y-93244D01*
X-282654Y-93165D01*
X-284524Y-92927D01*
X-286227Y-92532D01*
X-287799Y-92006D01*
X-289278Y-91378D01*
X-290665Y-90648D01*
Y-80432D01*
X-289173Y-81154D01*
X-287629Y-81670D01*
X-286033Y-81979D01*
X-284385Y-82082D01*
X-282589Y-81809D01*
X-281307Y-80989D01*
X-280538Y-79624D01*
X-280281Y-77711D01*
Y-58460D01*
X-290833D01*
Y-47594D01*
X-280281D01*
Y-36137D01*
G37*
M02*
