; NON-PLATED HOLES START AT T1
; THROUGH (PLATED) HOLES START AT T100
M48
INCH
T100C0.039370
T101C0.035000
T102C0.031497
%
T100
X009184Y004734
X009192Y003540
X000998Y003540
X000990Y004734
T101
X010850Y001250
X018850Y001250
X012130Y012250
X014850Y003022
X017409Y003022
X014850Y001250
X017409Y001250
X021409Y003022
X016130Y008250
X016130Y012250
X021409Y001250
X013409Y003022
X013409Y001250
X020130Y008250
X020130Y012250
X010850Y003022
X018850Y003022
X012130Y008250
T102
X016130Y006492
X016130Y005508
X012130Y006492
X012130Y005508
X020130Y006492
X020130Y005508
T00
M30
