G04 MADE WITH FRITZING*
G04 WWW.FRITZING.ORG*
G04 DOUBLE SIDED*
G04 HOLES PLATED*
G04 CONTOUR ON CENTER OF CONTOUR VECTOR*
%ASAXBY*%
%FSLAX23Y23*%
%MOIN*%
%OFA0B0*%
%SFA1.0B1.0*%
%ADD10C,0.075000*%
%ADD11C,0.062992*%
%ADD12C,0.090551*%
%ADD13R,0.062992X0.062992*%
%ADD14C,0.024000*%
%ADD15R,0.001000X0.001000*%
%LNCOPPER1*%
G90*
G70*
G54D10*
X2013Y825D03*
X2013Y1225D03*
X1613Y825D03*
X1613Y1225D03*
X2141Y125D03*
X1885Y125D03*
X2141Y302D03*
X1885Y302D03*
X1741Y125D03*
X1485Y125D03*
X1741Y302D03*
X1485Y302D03*
X1341Y125D03*
X1085Y125D03*
X1341Y302D03*
X1085Y302D03*
G54D11*
X2013Y649D03*
X2013Y551D03*
G54D12*
X919Y354D03*
X918Y473D03*
X100Y354D03*
X99Y473D03*
G54D10*
X1213Y825D03*
X1213Y1225D03*
G54D11*
X1213Y649D03*
X1213Y551D03*
X1613Y649D03*
X1613Y551D03*
G54D13*
X2013Y649D03*
X1213Y649D03*
X1613Y649D03*
G54D14*
X919Y125D02*
X1056Y125D01*
D02*
X725Y275D02*
X919Y125D01*
D02*
X2025Y527D02*
X2128Y328D01*
D02*
X1625Y527D02*
X1728Y328D01*
D02*
X1225Y527D02*
X1328Y328D01*
D02*
X919Y443D02*
X919Y385D01*
D02*
X1203Y1198D02*
X930Y502D01*
D02*
X1642Y1225D02*
X1984Y1225D01*
D02*
X1613Y796D02*
X1613Y676D01*
D02*
X2013Y796D02*
X2013Y676D01*
D02*
X1770Y125D02*
X1856Y125D01*
D02*
X1370Y125D02*
X1456Y125D01*
D02*
X1213Y796D02*
X1213Y676D01*
D02*
X1242Y1225D02*
X1584Y1225D01*
G54D15*
X507Y684D02*
X507Y684D01*
X505Y683D02*
X508Y683D01*
X503Y682D02*
X510Y682D01*
X502Y681D02*
X512Y681D01*
X500Y680D02*
X514Y680D01*
X498Y679D02*
X515Y679D01*
X496Y678D02*
X517Y678D01*
X495Y677D02*
X519Y677D01*
X493Y676D02*
X521Y676D01*
X491Y675D02*
X522Y675D01*
X490Y674D02*
X524Y674D01*
X488Y673D02*
X526Y673D01*
X486Y672D02*
X527Y672D01*
X484Y671D02*
X529Y671D01*
X483Y670D02*
X531Y670D01*
X481Y669D02*
X533Y669D01*
X479Y668D02*
X534Y668D01*
X477Y667D02*
X536Y667D01*
X476Y666D02*
X538Y666D01*
X474Y665D02*
X540Y665D01*
X472Y664D02*
X541Y664D01*
X471Y663D02*
X543Y663D01*
X469Y662D02*
X545Y662D01*
X467Y661D02*
X547Y661D01*
X465Y660D02*
X548Y660D01*
X464Y659D02*
X550Y659D01*
X462Y658D02*
X552Y658D01*
X460Y657D02*
X553Y657D01*
X458Y656D02*
X555Y656D01*
X457Y655D02*
X557Y655D01*
X455Y654D02*
X559Y654D01*
X453Y653D02*
X560Y653D01*
X451Y652D02*
X562Y652D01*
X450Y651D02*
X564Y651D01*
X448Y650D02*
X566Y650D01*
X446Y649D02*
X567Y649D01*
X445Y648D02*
X569Y648D01*
X443Y647D02*
X571Y647D01*
X441Y646D02*
X572Y646D01*
X439Y645D02*
X574Y645D01*
X438Y644D02*
X576Y644D01*
X436Y643D02*
X578Y643D01*
X434Y642D02*
X579Y642D01*
X432Y641D02*
X581Y641D01*
X431Y640D02*
X583Y640D01*
X429Y639D02*
X585Y639D01*
X427Y638D02*
X586Y638D01*
X425Y637D02*
X588Y637D01*
X424Y636D02*
X590Y636D01*
X422Y635D02*
X592Y635D01*
X420Y634D02*
X593Y634D01*
X419Y633D02*
X595Y633D01*
X417Y632D02*
X597Y632D01*
X415Y631D02*
X598Y631D01*
X413Y630D02*
X600Y630D01*
X412Y629D02*
X602Y629D01*
X410Y628D02*
X604Y628D01*
X408Y627D02*
X605Y627D01*
X406Y626D02*
X607Y626D01*
X405Y625D02*
X609Y625D01*
X403Y624D02*
X611Y624D01*
X401Y623D02*
X612Y623D01*
X400Y622D02*
X614Y622D01*
X398Y621D02*
X616Y621D01*
X396Y620D02*
X618Y620D01*
X394Y619D02*
X619Y619D01*
X393Y618D02*
X505Y618D01*
X508Y618D02*
X621Y618D01*
X391Y617D02*
X504Y617D01*
X510Y617D02*
X623Y617D01*
X389Y616D02*
X502Y616D01*
X512Y616D02*
X624Y616D01*
X387Y615D02*
X500Y615D01*
X513Y615D02*
X626Y615D01*
X675Y615D02*
X703Y615D01*
X386Y614D02*
X498Y614D01*
X515Y614D02*
X628Y614D01*
X669Y614D02*
X709Y614D01*
X384Y613D02*
X497Y613D01*
X517Y613D02*
X630Y613D01*
X664Y613D02*
X714Y613D01*
X382Y612D02*
X495Y612D01*
X519Y612D02*
X631Y612D01*
X660Y612D02*
X718Y612D01*
X380Y611D02*
X493Y611D01*
X520Y611D02*
X633Y611D01*
X657Y611D02*
X721Y611D01*
X379Y610D02*
X491Y610D01*
X522Y610D02*
X635Y610D01*
X654Y610D02*
X724Y610D01*
X377Y609D02*
X490Y609D01*
X524Y609D02*
X637Y609D01*
X651Y609D02*
X727Y609D01*
X375Y608D02*
X488Y608D01*
X526Y608D02*
X638Y608D01*
X648Y608D02*
X730Y608D01*
X374Y607D02*
X486Y607D01*
X527Y607D02*
X640Y607D01*
X646Y607D02*
X732Y607D01*
X372Y606D02*
X484Y606D01*
X529Y606D02*
X735Y606D01*
X370Y605D02*
X483Y605D01*
X531Y605D02*
X737Y605D01*
X368Y604D02*
X481Y604D01*
X533Y604D02*
X739Y604D01*
X367Y603D02*
X479Y603D01*
X534Y603D02*
X741Y603D01*
X365Y602D02*
X478Y602D01*
X536Y602D02*
X743Y602D01*
X363Y601D02*
X476Y601D01*
X538Y601D02*
X744Y601D01*
X361Y600D02*
X474Y600D01*
X539Y600D02*
X746Y600D01*
X360Y599D02*
X472Y599D01*
X541Y599D02*
X748Y599D01*
X358Y598D02*
X471Y598D01*
X543Y598D02*
X749Y598D01*
X356Y597D02*
X469Y597D01*
X507Y597D02*
X507Y597D01*
X545Y597D02*
X751Y597D01*
X354Y596D02*
X467Y596D01*
X505Y596D02*
X509Y596D01*
X546Y596D02*
X752Y596D01*
X353Y595D02*
X465Y595D01*
X503Y595D02*
X510Y595D01*
X548Y595D02*
X754Y595D01*
X351Y594D02*
X464Y594D01*
X502Y594D02*
X512Y594D01*
X550Y594D02*
X755Y594D01*
X349Y593D02*
X462Y593D01*
X500Y593D02*
X514Y593D01*
X552Y593D02*
X756Y593D01*
X348Y592D02*
X460Y592D01*
X498Y592D02*
X515Y592D01*
X553Y592D02*
X758Y592D01*
X346Y591D02*
X459Y591D01*
X496Y591D02*
X517Y591D01*
X555Y591D02*
X759Y591D01*
X344Y590D02*
X457Y590D01*
X495Y590D02*
X519Y590D01*
X557Y590D02*
X760Y590D01*
X342Y589D02*
X455Y589D01*
X493Y589D02*
X521Y589D01*
X559Y589D02*
X761Y589D01*
X341Y588D02*
X453Y588D01*
X491Y588D02*
X522Y588D01*
X560Y588D02*
X763Y588D01*
X339Y587D02*
X452Y587D01*
X489Y587D02*
X524Y587D01*
X562Y587D02*
X764Y587D01*
X337Y586D02*
X450Y586D01*
X488Y586D02*
X526Y586D01*
X564Y586D02*
X765Y586D01*
X335Y585D02*
X448Y585D01*
X486Y585D02*
X528Y585D01*
X565Y585D02*
X766Y585D01*
X334Y584D02*
X446Y584D01*
X484Y584D02*
X529Y584D01*
X567Y584D02*
X767Y584D01*
X332Y583D02*
X445Y583D01*
X483Y583D02*
X531Y583D01*
X569Y583D02*
X768Y583D01*
X330Y582D02*
X443Y582D01*
X481Y582D02*
X533Y582D01*
X571Y582D02*
X769Y582D01*
X328Y581D02*
X441Y581D01*
X479Y581D02*
X535Y581D01*
X572Y581D02*
X770Y581D01*
X327Y580D02*
X439Y580D01*
X477Y580D02*
X536Y580D01*
X574Y580D02*
X771Y580D01*
X325Y579D02*
X438Y579D01*
X476Y579D02*
X538Y579D01*
X576Y579D02*
X772Y579D01*
X323Y578D02*
X436Y578D01*
X474Y578D02*
X540Y578D01*
X578Y578D02*
X773Y578D01*
X322Y577D02*
X434Y577D01*
X472Y577D02*
X541Y577D01*
X579Y577D02*
X774Y577D01*
X320Y576D02*
X433Y576D01*
X470Y576D02*
X543Y576D01*
X581Y576D02*
X774Y576D01*
X318Y575D02*
X431Y575D01*
X469Y575D02*
X545Y575D01*
X583Y575D02*
X775Y575D01*
X316Y574D02*
X429Y574D01*
X467Y574D02*
X547Y574D01*
X585Y574D02*
X776Y574D01*
X315Y573D02*
X427Y573D01*
X465Y573D02*
X548Y573D01*
X586Y573D02*
X777Y573D01*
X313Y572D02*
X426Y572D01*
X463Y572D02*
X550Y572D01*
X588Y572D02*
X778Y572D01*
X311Y571D02*
X424Y571D01*
X462Y571D02*
X552Y571D01*
X590Y571D02*
X778Y571D01*
X309Y570D02*
X422Y570D01*
X460Y570D02*
X554Y570D01*
X591Y570D02*
X779Y570D01*
X308Y569D02*
X420Y569D01*
X458Y569D02*
X555Y569D01*
X593Y569D02*
X780Y569D01*
X306Y568D02*
X419Y568D01*
X457Y568D02*
X557Y568D01*
X595Y568D02*
X781Y568D01*
X304Y567D02*
X417Y567D01*
X455Y567D02*
X559Y567D01*
X597Y567D02*
X781Y567D01*
X303Y566D02*
X415Y566D01*
X453Y566D02*
X561Y566D01*
X598Y566D02*
X782Y566D01*
X301Y565D02*
X413Y565D01*
X451Y565D02*
X562Y565D01*
X600Y565D02*
X783Y565D01*
X299Y564D02*
X412Y564D01*
X450Y564D02*
X564Y564D01*
X602Y564D02*
X783Y564D01*
X297Y563D02*
X410Y563D01*
X448Y563D02*
X566Y563D01*
X604Y563D02*
X784Y563D01*
X296Y562D02*
X408Y562D01*
X446Y562D02*
X567Y562D01*
X605Y562D02*
X785Y562D01*
X294Y561D02*
X407Y561D01*
X444Y561D02*
X569Y561D01*
X607Y561D02*
X785Y561D01*
X292Y560D02*
X405Y560D01*
X443Y560D02*
X571Y560D01*
X609Y560D02*
X786Y560D01*
X290Y559D02*
X403Y559D01*
X441Y559D02*
X573Y559D01*
X611Y559D02*
X686Y559D01*
X692Y559D02*
X787Y559D01*
X289Y558D02*
X401Y558D01*
X439Y558D02*
X574Y558D01*
X612Y558D02*
X677Y558D01*
X701Y558D02*
X787Y558D01*
X287Y557D02*
X400Y557D01*
X437Y557D02*
X576Y557D01*
X614Y557D02*
X673Y557D01*
X705Y557D02*
X788Y557D01*
X285Y556D02*
X398Y556D01*
X436Y556D02*
X578Y556D01*
X616Y556D02*
X670Y556D01*
X708Y556D02*
X788Y556D01*
X283Y555D02*
X396Y555D01*
X434Y555D02*
X580Y555D01*
X617Y555D02*
X667Y555D01*
X710Y555D02*
X789Y555D01*
X282Y554D02*
X394Y554D01*
X432Y554D02*
X581Y554D01*
X619Y554D02*
X665Y554D01*
X713Y554D02*
X789Y554D01*
X280Y553D02*
X393Y553D01*
X431Y553D02*
X583Y553D01*
X621Y553D02*
X663Y553D01*
X715Y553D02*
X790Y553D01*
X278Y552D02*
X391Y552D01*
X429Y552D02*
X585Y552D01*
X622Y552D02*
X661Y552D01*
X717Y552D02*
X790Y552D01*
X277Y551D02*
X389Y551D01*
X427Y551D02*
X587Y551D01*
X622Y551D02*
X659Y551D01*
X718Y551D02*
X791Y551D01*
X275Y550D02*
X387Y550D01*
X425Y550D02*
X588Y550D01*
X621Y550D02*
X658Y550D01*
X720Y550D02*
X791Y550D01*
X273Y549D02*
X386Y549D01*
X424Y549D02*
X590Y549D01*
X621Y549D02*
X656Y549D01*
X722Y549D02*
X792Y549D01*
X271Y548D02*
X384Y548D01*
X422Y548D02*
X592Y548D01*
X620Y548D02*
X655Y548D01*
X723Y548D02*
X792Y548D01*
X270Y547D02*
X382Y547D01*
X420Y547D02*
X593Y547D01*
X619Y547D02*
X654Y547D01*
X724Y547D02*
X793Y547D01*
X268Y546D02*
X381Y546D01*
X418Y546D02*
X595Y546D01*
X619Y546D02*
X652Y546D01*
X726Y546D02*
X793Y546D01*
X266Y545D02*
X379Y545D01*
X417Y545D02*
X597Y545D01*
X618Y545D02*
X651Y545D01*
X727Y545D02*
X793Y545D01*
X264Y544D02*
X377Y544D01*
X415Y544D02*
X599Y544D01*
X617Y544D02*
X650Y544D01*
X728Y544D02*
X794Y544D01*
X263Y543D02*
X375Y543D01*
X413Y543D02*
X600Y543D01*
X617Y543D02*
X649Y543D01*
X729Y543D02*
X794Y543D01*
X261Y542D02*
X374Y542D01*
X411Y542D02*
X602Y542D01*
X616Y542D02*
X648Y542D01*
X730Y542D02*
X795Y542D01*
X259Y541D02*
X372Y541D01*
X410Y541D02*
X604Y541D01*
X616Y541D02*
X647Y541D01*
X731Y541D02*
X795Y541D01*
X259Y540D02*
X370Y540D01*
X408Y540D02*
X606Y540D01*
X615Y540D02*
X646Y540D01*
X683Y540D02*
X695Y540D01*
X732Y540D02*
X795Y540D01*
X259Y539D02*
X368Y539D01*
X406Y539D02*
X607Y539D01*
X615Y539D02*
X645Y539D01*
X678Y539D02*
X699Y539D01*
X733Y539D02*
X796Y539D01*
X259Y538D02*
X367Y538D01*
X405Y538D02*
X609Y538D01*
X614Y538D02*
X644Y538D01*
X676Y538D02*
X702Y538D01*
X733Y538D02*
X796Y538D01*
X259Y537D02*
X365Y537D01*
X403Y537D02*
X611Y537D01*
X614Y537D02*
X644Y537D01*
X673Y537D02*
X705Y537D01*
X734Y537D02*
X796Y537D01*
X259Y536D02*
X363Y536D01*
X401Y536D02*
X643Y536D01*
X671Y536D02*
X707Y536D01*
X735Y536D02*
X797Y536D01*
X259Y535D02*
X361Y535D01*
X399Y535D02*
X642Y535D01*
X670Y535D02*
X708Y535D01*
X736Y535D02*
X797Y535D01*
X259Y534D02*
X360Y534D01*
X398Y534D02*
X642Y534D01*
X668Y534D02*
X710Y534D01*
X736Y534D02*
X797Y534D01*
X259Y533D02*
X358Y533D01*
X396Y533D02*
X641Y533D01*
X667Y533D02*
X711Y533D01*
X737Y533D02*
X797Y533D01*
X259Y532D02*
X356Y532D01*
X394Y532D02*
X640Y532D01*
X665Y532D02*
X712Y532D01*
X737Y532D02*
X798Y532D01*
X259Y531D02*
X355Y531D01*
X392Y531D02*
X640Y531D01*
X664Y531D02*
X714Y531D01*
X738Y531D02*
X798Y531D01*
X259Y530D02*
X353Y530D01*
X391Y530D02*
X639Y530D01*
X663Y530D02*
X715Y530D01*
X739Y530D02*
X798Y530D01*
X259Y529D02*
X351Y529D01*
X389Y529D02*
X639Y529D01*
X662Y529D02*
X716Y529D01*
X739Y529D02*
X798Y529D01*
X259Y528D02*
X349Y528D01*
X387Y528D02*
X638Y528D01*
X661Y528D02*
X717Y528D01*
X740Y528D02*
X799Y528D01*
X259Y527D02*
X348Y527D01*
X385Y527D02*
X638Y527D01*
X660Y527D02*
X717Y527D01*
X740Y527D02*
X799Y527D01*
X259Y526D02*
X346Y526D01*
X384Y526D02*
X637Y526D01*
X660Y526D02*
X718Y526D01*
X741Y526D02*
X799Y526D01*
X259Y525D02*
X344Y525D01*
X382Y525D02*
X637Y525D01*
X659Y525D02*
X719Y525D01*
X741Y525D02*
X799Y525D01*
X259Y524D02*
X342Y524D01*
X380Y524D02*
X636Y524D01*
X658Y524D02*
X720Y524D01*
X742Y524D02*
X800Y524D01*
X259Y523D02*
X341Y523D01*
X379Y523D02*
X636Y523D01*
X657Y523D02*
X720Y523D01*
X742Y523D02*
X800Y523D01*
X259Y522D02*
X339Y522D01*
X377Y522D02*
X636Y522D01*
X657Y522D02*
X721Y522D01*
X742Y522D02*
X800Y522D01*
X259Y521D02*
X337Y521D01*
X375Y521D02*
X635Y521D01*
X656Y521D02*
X722Y521D01*
X743Y521D02*
X800Y521D01*
X259Y520D02*
X336Y520D01*
X373Y520D02*
X635Y520D01*
X656Y520D02*
X722Y520D01*
X743Y520D02*
X800Y520D01*
X259Y519D02*
X334Y519D01*
X372Y519D02*
X634Y519D01*
X655Y519D02*
X723Y519D01*
X743Y519D02*
X800Y519D01*
X259Y518D02*
X332Y518D01*
X370Y518D02*
X634Y518D01*
X655Y518D02*
X723Y518D01*
X744Y518D02*
X800Y518D01*
X259Y517D02*
X330Y517D01*
X368Y517D02*
X634Y517D01*
X654Y517D02*
X723Y517D01*
X744Y517D02*
X801Y517D01*
X259Y516D02*
X329Y516D01*
X366Y516D02*
X634Y516D01*
X654Y516D02*
X724Y516D01*
X744Y516D02*
X801Y516D01*
X259Y515D02*
X327Y515D01*
X365Y515D02*
X633Y515D01*
X654Y515D02*
X724Y515D01*
X744Y515D02*
X801Y515D01*
X259Y514D02*
X325Y514D01*
X363Y514D02*
X633Y514D01*
X653Y514D02*
X725Y514D01*
X745Y514D02*
X801Y514D01*
X259Y513D02*
X323Y513D01*
X361Y513D02*
X633Y513D01*
X653Y513D02*
X725Y513D01*
X745Y513D02*
X801Y513D01*
X259Y512D02*
X322Y512D01*
X360Y512D02*
X633Y512D01*
X653Y512D02*
X725Y512D01*
X745Y512D02*
X801Y512D01*
X259Y511D02*
X320Y511D01*
X358Y511D02*
X633Y511D01*
X652Y511D02*
X725Y511D01*
X745Y511D02*
X801Y511D01*
X259Y510D02*
X318Y510D01*
X356Y510D02*
X633Y510D01*
X652Y510D02*
X726Y510D01*
X745Y510D02*
X801Y510D01*
X259Y509D02*
X316Y509D01*
X354Y509D02*
X632Y509D01*
X652Y509D02*
X726Y509D01*
X745Y509D02*
X801Y509D01*
X259Y508D02*
X315Y508D01*
X353Y508D02*
X632Y508D01*
X652Y508D02*
X726Y508D01*
X745Y508D02*
X801Y508D01*
X259Y507D02*
X315Y507D01*
X351Y507D02*
X632Y507D01*
X652Y507D02*
X726Y507D01*
X745Y507D02*
X801Y507D01*
X259Y506D02*
X315Y506D01*
X349Y506D02*
X632Y506D01*
X652Y506D02*
X726Y506D01*
X746Y506D02*
X801Y506D01*
X259Y505D02*
X315Y505D01*
X347Y505D02*
X632Y505D01*
X652Y505D02*
X726Y505D01*
X746Y505D02*
X801Y505D01*
X259Y504D02*
X315Y504D01*
X346Y504D02*
X632Y504D01*
X652Y504D02*
X726Y504D01*
X746Y504D02*
X801Y504D01*
X259Y503D02*
X315Y503D01*
X344Y503D02*
X632Y503D01*
X652Y503D02*
X726Y503D01*
X746Y503D02*
X802Y503D01*
X259Y502D02*
X315Y502D01*
X342Y502D02*
X632Y502D01*
X652Y502D02*
X726Y502D01*
X746Y502D02*
X801Y502D01*
X259Y501D02*
X315Y501D01*
X340Y501D02*
X632Y501D01*
X652Y501D02*
X726Y501D01*
X746Y501D02*
X801Y501D01*
X259Y500D02*
X315Y500D01*
X339Y500D02*
X632Y500D01*
X652Y500D02*
X726Y500D01*
X746Y500D02*
X801Y500D01*
X259Y499D02*
X315Y499D01*
X337Y499D02*
X632Y499D01*
X652Y499D02*
X726Y499D01*
X746Y499D02*
X801Y499D01*
X259Y498D02*
X315Y498D01*
X335Y498D02*
X632Y498D01*
X652Y498D02*
X726Y498D01*
X745Y498D02*
X801Y498D01*
X259Y497D02*
X315Y497D01*
X334Y497D02*
X632Y497D01*
X652Y497D02*
X726Y497D01*
X745Y497D02*
X801Y497D01*
X259Y496D02*
X315Y496D01*
X334Y496D02*
X633Y496D01*
X652Y496D02*
X726Y496D01*
X745Y496D02*
X801Y496D01*
X259Y495D02*
X315Y495D01*
X334Y495D02*
X633Y495D01*
X652Y495D02*
X725Y495D01*
X745Y495D02*
X801Y495D01*
X259Y494D02*
X315Y494D01*
X334Y494D02*
X633Y494D01*
X653Y494D02*
X725Y494D01*
X745Y494D02*
X801Y494D01*
X259Y493D02*
X315Y493D01*
X334Y493D02*
X633Y493D01*
X653Y493D02*
X725Y493D01*
X745Y493D02*
X801Y493D01*
X259Y492D02*
X315Y492D01*
X334Y492D02*
X633Y492D01*
X653Y492D02*
X725Y492D01*
X745Y492D02*
X801Y492D01*
X259Y491D02*
X315Y491D01*
X334Y491D02*
X633Y491D01*
X654Y491D02*
X724Y491D01*
X744Y491D02*
X801Y491D01*
X259Y490D02*
X315Y490D01*
X334Y490D02*
X634Y490D01*
X654Y490D02*
X724Y490D01*
X744Y490D02*
X801Y490D01*
X259Y489D02*
X315Y489D01*
X334Y489D02*
X634Y489D01*
X654Y489D02*
X724Y489D01*
X744Y489D02*
X801Y489D01*
X259Y488D02*
X315Y488D01*
X334Y488D02*
X634Y488D01*
X655Y488D02*
X723Y488D01*
X744Y488D02*
X801Y488D01*
X259Y487D02*
X315Y487D01*
X334Y487D02*
X634Y487D01*
X655Y487D02*
X723Y487D01*
X743Y487D02*
X800Y487D01*
X259Y486D02*
X315Y486D01*
X334Y486D02*
X635Y486D01*
X656Y486D02*
X722Y486D01*
X743Y486D02*
X800Y486D01*
X259Y485D02*
X315Y485D01*
X334Y485D02*
X635Y485D01*
X656Y485D02*
X722Y485D01*
X743Y485D02*
X800Y485D01*
X259Y484D02*
X315Y484D01*
X334Y484D02*
X635Y484D01*
X657Y484D02*
X721Y484D01*
X742Y484D02*
X800Y484D01*
X259Y483D02*
X315Y483D01*
X334Y483D02*
X636Y483D01*
X657Y483D02*
X721Y483D01*
X742Y483D02*
X800Y483D01*
X259Y482D02*
X315Y482D01*
X334Y482D02*
X636Y482D01*
X658Y482D02*
X720Y482D01*
X742Y482D02*
X800Y482D01*
X259Y481D02*
X315Y481D01*
X334Y481D02*
X637Y481D01*
X659Y481D02*
X719Y481D01*
X741Y481D02*
X799Y481D01*
X259Y480D02*
X315Y480D01*
X334Y480D02*
X637Y480D01*
X659Y480D02*
X719Y480D01*
X741Y480D02*
X799Y480D01*
X259Y479D02*
X315Y479D01*
X334Y479D02*
X637Y479D01*
X660Y479D02*
X718Y479D01*
X740Y479D02*
X799Y479D01*
X259Y478D02*
X315Y478D01*
X334Y478D02*
X638Y478D01*
X661Y478D02*
X717Y478D01*
X740Y478D02*
X799Y478D01*
X259Y477D02*
X315Y477D01*
X334Y477D02*
X638Y477D01*
X662Y477D02*
X716Y477D01*
X739Y477D02*
X798Y477D01*
X259Y476D02*
X315Y476D01*
X334Y476D02*
X639Y476D01*
X663Y476D02*
X715Y476D01*
X739Y476D02*
X798Y476D01*
X259Y475D02*
X315Y475D01*
X334Y475D02*
X640Y475D01*
X664Y475D02*
X714Y475D01*
X738Y475D02*
X798Y475D01*
X259Y474D02*
X315Y474D01*
X334Y474D02*
X640Y474D01*
X665Y474D02*
X713Y474D01*
X738Y474D02*
X798Y474D01*
X259Y473D02*
X315Y473D01*
X334Y473D02*
X641Y473D01*
X666Y473D02*
X712Y473D01*
X737Y473D02*
X797Y473D01*
X259Y472D02*
X315Y472D01*
X334Y472D02*
X641Y472D01*
X668Y472D02*
X710Y472D01*
X736Y472D02*
X797Y472D01*
X259Y471D02*
X315Y471D01*
X334Y471D02*
X642Y471D01*
X669Y471D02*
X709Y471D01*
X736Y471D02*
X797Y471D01*
X259Y470D02*
X315Y470D01*
X334Y470D02*
X643Y470D01*
X671Y470D02*
X707Y470D01*
X735Y470D02*
X797Y470D01*
X259Y469D02*
X315Y469D01*
X334Y469D02*
X643Y469D01*
X673Y469D02*
X705Y469D01*
X734Y469D02*
X796Y469D01*
X259Y468D02*
X315Y468D01*
X334Y468D02*
X644Y468D01*
X675Y468D02*
X703Y468D01*
X734Y468D02*
X796Y468D01*
X259Y467D02*
X315Y467D01*
X334Y467D02*
X645Y467D01*
X677Y467D02*
X700Y467D01*
X733Y467D02*
X796Y467D01*
X259Y466D02*
X315Y466D01*
X334Y466D02*
X646Y466D01*
X681Y466D02*
X697Y466D01*
X732Y466D02*
X795Y466D01*
X259Y465D02*
X315Y465D01*
X334Y465D02*
X647Y465D01*
X731Y465D02*
X795Y465D01*
X259Y464D02*
X315Y464D01*
X334Y464D02*
X648Y464D01*
X730Y464D02*
X795Y464D01*
X259Y463D02*
X315Y463D01*
X334Y463D02*
X649Y463D01*
X729Y463D02*
X794Y463D01*
X259Y462D02*
X315Y462D01*
X334Y462D02*
X650Y462D01*
X728Y462D02*
X794Y462D01*
X259Y461D02*
X315Y461D01*
X334Y461D02*
X651Y461D01*
X727Y461D02*
X793Y461D01*
X259Y460D02*
X315Y460D01*
X334Y460D02*
X652Y460D01*
X726Y460D02*
X793Y460D01*
X259Y459D02*
X315Y459D01*
X334Y459D02*
X653Y459D01*
X725Y459D02*
X793Y459D01*
X259Y458D02*
X315Y458D01*
X334Y458D02*
X654Y458D01*
X723Y458D02*
X792Y458D01*
X259Y457D02*
X315Y457D01*
X334Y457D02*
X656Y457D01*
X722Y457D02*
X792Y457D01*
X259Y456D02*
X315Y456D01*
X334Y456D02*
X657Y456D01*
X721Y456D02*
X791Y456D01*
X259Y455D02*
X315Y455D01*
X334Y455D02*
X659Y455D01*
X719Y455D02*
X791Y455D01*
X259Y454D02*
X315Y454D01*
X334Y454D02*
X661Y454D01*
X717Y454D02*
X790Y454D01*
X259Y453D02*
X315Y453D01*
X334Y453D02*
X662Y453D01*
X716Y453D02*
X790Y453D01*
X259Y452D02*
X315Y452D01*
X334Y452D02*
X664Y452D01*
X713Y452D02*
X789Y452D01*
X259Y451D02*
X315Y451D01*
X334Y451D02*
X666Y451D01*
X711Y451D02*
X789Y451D01*
X259Y450D02*
X315Y450D01*
X334Y450D02*
X669Y450D01*
X709Y450D02*
X788Y450D01*
X259Y449D02*
X315Y449D01*
X334Y449D02*
X672Y449D01*
X706Y449D02*
X788Y449D01*
X259Y448D02*
X315Y448D01*
X334Y448D02*
X676Y448D01*
X702Y448D02*
X787Y448D01*
X259Y447D02*
X315Y447D01*
X334Y447D02*
X682Y447D01*
X696Y447D02*
X787Y447D01*
X259Y446D02*
X315Y446D01*
X334Y446D02*
X786Y446D01*
X259Y445D02*
X315Y445D01*
X334Y445D02*
X786Y445D01*
X259Y444D02*
X315Y444D01*
X334Y444D02*
X785Y444D01*
X259Y443D02*
X315Y443D01*
X334Y443D02*
X784Y443D01*
X259Y442D02*
X315Y442D01*
X334Y442D02*
X784Y442D01*
X259Y441D02*
X315Y441D01*
X334Y441D02*
X783Y441D01*
X259Y440D02*
X315Y440D01*
X334Y440D02*
X782Y440D01*
X259Y439D02*
X315Y439D01*
X334Y439D02*
X782Y439D01*
X259Y438D02*
X315Y438D01*
X334Y438D02*
X781Y438D01*
X259Y437D02*
X315Y437D01*
X334Y437D02*
X780Y437D01*
X259Y436D02*
X315Y436D01*
X334Y436D02*
X779Y436D01*
X259Y435D02*
X315Y435D01*
X334Y435D02*
X779Y435D01*
X259Y434D02*
X315Y434D01*
X334Y434D02*
X778Y434D01*
X259Y433D02*
X315Y433D01*
X334Y433D02*
X777Y433D01*
X259Y432D02*
X315Y432D01*
X334Y432D02*
X776Y432D01*
X259Y431D02*
X315Y431D01*
X334Y431D02*
X776Y431D01*
X259Y430D02*
X315Y430D01*
X334Y430D02*
X775Y430D01*
X259Y429D02*
X315Y429D01*
X334Y429D02*
X774Y429D01*
X259Y428D02*
X315Y428D01*
X334Y428D02*
X773Y428D01*
X259Y427D02*
X315Y427D01*
X334Y427D02*
X772Y427D01*
X259Y426D02*
X315Y426D01*
X334Y426D02*
X771Y426D01*
X259Y425D02*
X315Y425D01*
X334Y425D02*
X770Y425D01*
X259Y424D02*
X316Y424D01*
X334Y424D02*
X769Y424D01*
X259Y423D02*
X316Y423D01*
X333Y423D02*
X768Y423D01*
X259Y422D02*
X317Y422D01*
X333Y422D02*
X767Y422D01*
X259Y421D02*
X317Y421D01*
X332Y421D02*
X766Y421D01*
X259Y420D02*
X318Y420D01*
X331Y420D02*
X765Y420D01*
X259Y419D02*
X320Y419D01*
X329Y419D02*
X764Y419D01*
X259Y418D02*
X323Y418D01*
X326Y418D02*
X763Y418D01*
X259Y417D02*
X762Y417D01*
X259Y416D02*
X761Y416D01*
X259Y415D02*
X759Y415D01*
X259Y414D02*
X758Y414D01*
X259Y413D02*
X757Y413D01*
X259Y412D02*
X756Y412D01*
X259Y411D02*
X755Y411D01*
X259Y410D02*
X754Y410D01*
X259Y409D02*
X754Y409D01*
X259Y408D02*
X754Y408D01*
X259Y407D02*
X754Y407D01*
X259Y406D02*
X754Y406D01*
X259Y405D02*
X754Y405D01*
X259Y404D02*
X754Y404D01*
X259Y403D02*
X754Y403D01*
X259Y402D02*
X754Y402D01*
X259Y401D02*
X754Y401D01*
X259Y400D02*
X754Y400D01*
X259Y399D02*
X754Y399D01*
X259Y398D02*
X754Y398D01*
X259Y397D02*
X754Y397D01*
X259Y396D02*
X754Y396D01*
X259Y395D02*
X754Y395D01*
X259Y394D02*
X754Y394D01*
X259Y393D02*
X754Y393D01*
X259Y392D02*
X754Y392D01*
X259Y391D02*
X754Y391D01*
X259Y390D02*
X754Y390D01*
X259Y389D02*
X754Y389D01*
X259Y388D02*
X754Y388D01*
X259Y387D02*
X754Y387D01*
X259Y386D02*
X754Y386D01*
X259Y385D02*
X754Y385D01*
X259Y384D02*
X754Y384D01*
X258Y383D02*
X754Y383D01*
X256Y382D02*
X754Y382D01*
X255Y381D02*
X754Y381D01*
X254Y380D02*
X754Y380D01*
X253Y379D02*
X754Y379D01*
X251Y378D02*
X754Y378D01*
X250Y377D02*
X686Y377D01*
X692Y377D02*
X754Y377D01*
X249Y376D02*
X684Y376D01*
X694Y376D02*
X754Y376D01*
X248Y375D02*
X682Y375D01*
X696Y375D02*
X754Y375D01*
X247Y374D02*
X681Y374D01*
X697Y374D02*
X754Y374D01*
X246Y373D02*
X681Y373D01*
X697Y373D02*
X754Y373D01*
X245Y372D02*
X680Y372D01*
X698Y372D02*
X754Y372D01*
X244Y371D02*
X680Y371D01*
X698Y371D02*
X754Y371D01*
X243Y370D02*
X679Y370D01*
X698Y370D02*
X754Y370D01*
X242Y369D02*
X679Y369D01*
X699Y369D02*
X754Y369D01*
X241Y368D02*
X679Y368D01*
X699Y368D02*
X754Y368D01*
X240Y367D02*
X679Y367D01*
X699Y367D02*
X754Y367D01*
X239Y366D02*
X679Y366D01*
X699Y366D02*
X754Y366D01*
X239Y365D02*
X679Y365D01*
X699Y365D02*
X754Y365D01*
X238Y364D02*
X679Y364D01*
X699Y364D02*
X754Y364D01*
X237Y363D02*
X679Y363D01*
X699Y363D02*
X754Y363D01*
X236Y362D02*
X679Y362D01*
X699Y362D02*
X754Y362D01*
X235Y361D02*
X679Y361D01*
X699Y361D02*
X754Y361D01*
X235Y360D02*
X679Y360D01*
X699Y360D02*
X754Y360D01*
X234Y359D02*
X679Y359D01*
X699Y359D02*
X754Y359D01*
X233Y358D02*
X679Y358D01*
X699Y358D02*
X754Y358D01*
X232Y357D02*
X679Y357D01*
X699Y357D02*
X754Y357D01*
X232Y356D02*
X679Y356D01*
X699Y356D02*
X754Y356D01*
X231Y355D02*
X679Y355D01*
X699Y355D02*
X754Y355D01*
X230Y354D02*
X679Y354D01*
X699Y354D02*
X754Y354D01*
X230Y353D02*
X679Y353D01*
X699Y353D02*
X754Y353D01*
X229Y352D02*
X679Y352D01*
X699Y352D02*
X754Y352D01*
X228Y351D02*
X679Y351D01*
X699Y351D02*
X754Y351D01*
X228Y350D02*
X679Y350D01*
X699Y350D02*
X754Y350D01*
X227Y349D02*
X679Y349D01*
X699Y349D02*
X754Y349D01*
X227Y348D02*
X315Y348D01*
X334Y348D02*
X679Y348D01*
X699Y348D02*
X754Y348D01*
X226Y347D02*
X310Y347D01*
X339Y347D02*
X679Y347D01*
X699Y347D02*
X754Y347D01*
X226Y346D02*
X307Y346D01*
X343Y346D02*
X679Y346D01*
X699Y346D02*
X754Y346D01*
X225Y345D02*
X304Y345D01*
X345Y345D02*
X679Y345D01*
X699Y345D02*
X754Y345D01*
X225Y344D02*
X301Y344D01*
X348Y344D02*
X679Y344D01*
X699Y344D02*
X754Y344D01*
X224Y343D02*
X299Y343D01*
X350Y343D02*
X679Y343D01*
X699Y343D02*
X754Y343D01*
X224Y342D02*
X297Y342D01*
X352Y342D02*
X679Y342D01*
X699Y342D02*
X754Y342D01*
X223Y341D02*
X296Y341D01*
X354Y341D02*
X679Y341D01*
X699Y341D02*
X754Y341D01*
X223Y340D02*
X294Y340D01*
X355Y340D02*
X679Y340D01*
X699Y340D02*
X754Y340D01*
X222Y339D02*
X292Y339D01*
X357Y339D02*
X679Y339D01*
X699Y339D02*
X754Y339D01*
X222Y338D02*
X291Y338D01*
X358Y338D02*
X679Y338D01*
X699Y338D02*
X754Y338D01*
X221Y337D02*
X290Y337D01*
X360Y337D02*
X679Y337D01*
X699Y337D02*
X754Y337D01*
X221Y336D02*
X288Y336D01*
X361Y336D02*
X679Y336D01*
X699Y336D02*
X754Y336D01*
X220Y335D02*
X287Y335D01*
X362Y335D02*
X679Y335D01*
X699Y335D02*
X754Y335D01*
X220Y334D02*
X286Y334D01*
X363Y334D02*
X679Y334D01*
X699Y334D02*
X754Y334D01*
X220Y333D02*
X285Y333D01*
X364Y333D02*
X679Y333D01*
X699Y333D02*
X754Y333D01*
X219Y332D02*
X284Y332D01*
X365Y332D02*
X679Y332D01*
X699Y332D02*
X754Y332D01*
X219Y331D02*
X283Y331D01*
X366Y331D02*
X679Y331D01*
X699Y331D02*
X754Y331D01*
X219Y330D02*
X282Y330D01*
X320Y330D02*
X329Y330D01*
X367Y330D02*
X679Y330D01*
X699Y330D02*
X754Y330D01*
X218Y329D02*
X281Y329D01*
X315Y329D02*
X334Y329D01*
X368Y329D02*
X679Y329D01*
X699Y329D02*
X754Y329D01*
X218Y328D02*
X280Y328D01*
X312Y328D02*
X337Y328D01*
X369Y328D02*
X679Y328D01*
X699Y328D02*
X754Y328D01*
X217Y327D02*
X280Y327D01*
X310Y327D02*
X340Y327D01*
X370Y327D02*
X679Y327D01*
X699Y327D02*
X754Y327D01*
X217Y326D02*
X279Y326D01*
X308Y326D02*
X342Y326D01*
X370Y326D02*
X679Y326D01*
X699Y326D02*
X754Y326D01*
X217Y325D02*
X278Y325D01*
X306Y325D02*
X343Y325D01*
X371Y325D02*
X679Y325D01*
X699Y325D02*
X754Y325D01*
X217Y324D02*
X278Y324D01*
X304Y324D02*
X345Y324D01*
X372Y324D02*
X679Y324D01*
X699Y324D02*
X754Y324D01*
X216Y323D02*
X277Y323D01*
X303Y323D02*
X346Y323D01*
X372Y323D02*
X679Y323D01*
X699Y323D02*
X754Y323D01*
X216Y322D02*
X276Y322D01*
X302Y322D02*
X348Y322D01*
X373Y322D02*
X679Y322D01*
X699Y322D02*
X754Y322D01*
X216Y321D02*
X276Y321D01*
X300Y321D02*
X349Y321D01*
X374Y321D02*
X679Y321D01*
X699Y321D02*
X754Y321D01*
X215Y320D02*
X275Y320D01*
X299Y320D02*
X350Y320D01*
X374Y320D02*
X679Y320D01*
X699Y320D02*
X754Y320D01*
X215Y319D02*
X274Y319D01*
X298Y319D02*
X351Y319D01*
X375Y319D02*
X679Y319D01*
X699Y319D02*
X754Y319D01*
X215Y318D02*
X274Y318D01*
X297Y318D02*
X352Y318D01*
X375Y318D02*
X679Y318D01*
X699Y318D02*
X754Y318D01*
X215Y317D02*
X274Y317D01*
X296Y317D02*
X353Y317D01*
X376Y317D02*
X679Y317D01*
X699Y317D02*
X754Y317D01*
X215Y316D02*
X273Y316D01*
X296Y316D02*
X354Y316D01*
X376Y316D02*
X679Y316D01*
X699Y316D02*
X754Y316D01*
X214Y315D02*
X273Y315D01*
X295Y315D02*
X355Y315D01*
X377Y315D02*
X679Y315D01*
X699Y315D02*
X754Y315D01*
X214Y314D02*
X272Y314D01*
X294Y314D02*
X355Y314D01*
X377Y314D02*
X679Y314D01*
X699Y314D02*
X754Y314D01*
X214Y313D02*
X272Y313D01*
X293Y313D02*
X356Y313D01*
X378Y313D02*
X679Y313D01*
X699Y313D02*
X754Y313D01*
X214Y312D02*
X271Y312D01*
X293Y312D02*
X357Y312D01*
X378Y312D02*
X679Y312D01*
X699Y312D02*
X754Y312D01*
X214Y311D02*
X271Y311D01*
X292Y311D02*
X357Y311D01*
X378Y311D02*
X679Y311D01*
X699Y311D02*
X754Y311D01*
X213Y310D02*
X271Y310D01*
X292Y310D02*
X358Y310D01*
X379Y310D02*
X679Y310D01*
X699Y310D02*
X754Y310D01*
X213Y309D02*
X270Y309D01*
X291Y309D02*
X358Y309D01*
X379Y309D02*
X679Y309D01*
X699Y309D02*
X754Y309D01*
X213Y308D02*
X270Y308D01*
X291Y308D02*
X359Y308D01*
X379Y308D02*
X679Y308D01*
X699Y308D02*
X754Y308D01*
X213Y307D02*
X270Y307D01*
X290Y307D02*
X359Y307D01*
X380Y307D02*
X679Y307D01*
X699Y307D02*
X754Y307D01*
X213Y306D02*
X270Y306D01*
X290Y306D02*
X359Y306D01*
X380Y306D02*
X679Y306D01*
X699Y306D02*
X754Y306D01*
X213Y305D02*
X269Y305D01*
X289Y305D02*
X360Y305D01*
X380Y305D02*
X679Y305D01*
X699Y305D02*
X754Y305D01*
X213Y304D02*
X269Y304D01*
X289Y304D02*
X360Y304D01*
X380Y304D02*
X679Y304D01*
X699Y304D02*
X754Y304D01*
X213Y303D02*
X269Y303D01*
X289Y303D02*
X360Y303D01*
X380Y303D02*
X679Y303D01*
X699Y303D02*
X754Y303D01*
X213Y302D02*
X269Y302D01*
X289Y302D02*
X361Y302D01*
X381Y302D02*
X679Y302D01*
X699Y302D02*
X754Y302D01*
X212Y301D02*
X269Y301D01*
X288Y301D02*
X361Y301D01*
X381Y301D02*
X679Y301D01*
X699Y301D02*
X754Y301D01*
X212Y300D02*
X268Y300D01*
X288Y300D02*
X361Y300D01*
X381Y300D02*
X679Y300D01*
X699Y300D02*
X754Y300D01*
X212Y299D02*
X268Y299D01*
X288Y299D02*
X361Y299D01*
X381Y299D02*
X679Y299D01*
X699Y299D02*
X754Y299D01*
X212Y298D02*
X268Y298D01*
X288Y298D02*
X362Y298D01*
X381Y298D02*
X679Y298D01*
X699Y298D02*
X754Y298D01*
X212Y297D02*
X268Y297D01*
X288Y297D02*
X362Y297D01*
X381Y297D02*
X678Y297D01*
X699Y297D02*
X754Y297D01*
X212Y296D02*
X268Y296D01*
X287Y296D02*
X362Y296D01*
X381Y296D02*
X676Y296D01*
X699Y296D02*
X754Y296D01*
X212Y295D02*
X268Y295D01*
X287Y295D02*
X362Y295D01*
X381Y295D02*
X674Y295D01*
X699Y295D02*
X754Y295D01*
X212Y294D02*
X268Y294D01*
X287Y294D02*
X362Y294D01*
X381Y294D02*
X673Y294D01*
X699Y294D02*
X754Y294D01*
X212Y293D02*
X268Y293D01*
X287Y293D02*
X362Y293D01*
X381Y293D02*
X671Y293D01*
X699Y293D02*
X754Y293D01*
X212Y292D02*
X268Y292D01*
X287Y292D02*
X362Y292D01*
X381Y292D02*
X669Y292D01*
X699Y292D02*
X754Y292D01*
X212Y291D02*
X268Y291D01*
X287Y291D02*
X362Y291D01*
X381Y291D02*
X667Y291D01*
X699Y291D02*
X754Y291D01*
X212Y290D02*
X268Y290D01*
X287Y290D02*
X362Y290D01*
X381Y290D02*
X666Y290D01*
X699Y290D02*
X754Y290D01*
X212Y289D02*
X268Y289D01*
X287Y289D02*
X362Y289D01*
X381Y289D02*
X664Y289D01*
X699Y289D02*
X754Y289D01*
X212Y288D02*
X268Y288D01*
X288Y288D02*
X362Y288D01*
X381Y288D02*
X662Y288D01*
X699Y288D02*
X754Y288D01*
X212Y287D02*
X268Y287D01*
X288Y287D02*
X362Y287D01*
X381Y287D02*
X660Y287D01*
X698Y287D02*
X754Y287D01*
X212Y286D02*
X268Y286D01*
X288Y286D02*
X361Y286D01*
X381Y286D02*
X659Y286D01*
X696Y286D02*
X754Y286D01*
X212Y285D02*
X268Y285D01*
X288Y285D02*
X361Y285D01*
X381Y285D02*
X657Y285D01*
X695Y285D02*
X754Y285D01*
X212Y284D02*
X269Y284D01*
X288Y284D02*
X361Y284D01*
X381Y284D02*
X655Y284D01*
X693Y284D02*
X754Y284D01*
X212Y283D02*
X269Y283D01*
X289Y283D02*
X361Y283D01*
X381Y283D02*
X653Y283D01*
X691Y283D02*
X754Y283D01*
X213Y282D02*
X269Y282D01*
X289Y282D02*
X360Y282D01*
X380Y282D02*
X652Y282D01*
X690Y282D02*
X754Y282D01*
X213Y281D02*
X269Y281D01*
X289Y281D02*
X360Y281D01*
X380Y281D02*
X650Y281D01*
X688Y281D02*
X754Y281D01*
X213Y280D02*
X269Y280D01*
X289Y280D02*
X360Y280D01*
X380Y280D02*
X648Y280D01*
X686Y280D02*
X754Y280D01*
X213Y279D02*
X270Y279D01*
X290Y279D02*
X359Y279D01*
X380Y279D02*
X647Y279D01*
X684Y279D02*
X754Y279D01*
X213Y278D02*
X270Y278D01*
X290Y278D02*
X359Y278D01*
X380Y278D02*
X645Y278D01*
X683Y278D02*
X754Y278D01*
X213Y277D02*
X270Y277D01*
X291Y277D02*
X359Y277D01*
X379Y277D02*
X643Y277D01*
X681Y277D02*
X754Y277D01*
X213Y276D02*
X270Y276D01*
X291Y276D02*
X358Y276D01*
X379Y276D02*
X641Y276D01*
X679Y276D02*
X754Y276D01*
X213Y275D02*
X271Y275D01*
X292Y275D02*
X358Y275D01*
X379Y275D02*
X640Y275D01*
X677Y275D02*
X754Y275D01*
X214Y274D02*
X271Y274D01*
X292Y274D02*
X357Y274D01*
X378Y274D02*
X638Y274D01*
X676Y274D02*
X754Y274D01*
X214Y273D02*
X271Y273D01*
X293Y273D02*
X357Y273D01*
X378Y273D02*
X636Y273D01*
X674Y273D02*
X754Y273D01*
X214Y272D02*
X272Y272D01*
X293Y272D02*
X356Y272D01*
X378Y272D02*
X634Y272D01*
X672Y272D02*
X754Y272D01*
X214Y271D02*
X272Y271D01*
X294Y271D02*
X355Y271D01*
X377Y271D02*
X633Y271D01*
X671Y271D02*
X754Y271D01*
X214Y270D02*
X273Y270D01*
X295Y270D02*
X354Y270D01*
X377Y270D02*
X631Y270D01*
X669Y270D02*
X754Y270D01*
X215Y269D02*
X273Y269D01*
X296Y269D02*
X354Y269D01*
X376Y269D02*
X629Y269D01*
X667Y269D02*
X754Y269D01*
X215Y268D02*
X274Y268D01*
X296Y268D02*
X353Y268D01*
X376Y268D02*
X627Y268D01*
X665Y268D02*
X754Y268D01*
X215Y267D02*
X274Y267D01*
X297Y267D02*
X352Y267D01*
X375Y267D02*
X626Y267D01*
X664Y267D02*
X754Y267D01*
X215Y266D02*
X275Y266D01*
X298Y266D02*
X351Y266D01*
X375Y266D02*
X624Y266D01*
X662Y266D02*
X754Y266D01*
X215Y265D02*
X275Y265D01*
X299Y265D02*
X350Y265D01*
X374Y265D02*
X622Y265D01*
X660Y265D02*
X754Y265D01*
X216Y264D02*
X276Y264D01*
X300Y264D02*
X349Y264D01*
X374Y264D02*
X621Y264D01*
X658Y264D02*
X754Y264D01*
X216Y263D02*
X276Y263D01*
X302Y263D02*
X348Y263D01*
X373Y263D02*
X619Y263D01*
X657Y263D02*
X754Y263D01*
X216Y262D02*
X277Y262D01*
X303Y262D02*
X346Y262D01*
X372Y262D02*
X617Y262D01*
X655Y262D02*
X754Y262D01*
X217Y261D02*
X278Y261D01*
X304Y261D02*
X345Y261D01*
X372Y261D02*
X615Y261D01*
X653Y261D02*
X754Y261D01*
X217Y260D02*
X278Y260D01*
X306Y260D02*
X343Y260D01*
X371Y260D02*
X614Y260D01*
X651Y260D02*
X754Y260D01*
X217Y259D02*
X279Y259D01*
X308Y259D02*
X342Y259D01*
X370Y259D02*
X612Y259D01*
X650Y259D02*
X754Y259D01*
X217Y258D02*
X280Y258D01*
X310Y258D02*
X340Y258D01*
X370Y258D02*
X400Y258D01*
X403Y258D02*
X610Y258D01*
X648Y258D02*
X754Y258D01*
X218Y257D02*
X281Y257D01*
X312Y257D02*
X337Y257D01*
X369Y257D02*
X399Y257D01*
X405Y257D02*
X608Y257D01*
X646Y257D02*
X754Y257D01*
X218Y256D02*
X281Y256D01*
X316Y256D02*
X334Y256D01*
X368Y256D02*
X399Y256D01*
X407Y256D02*
X607Y256D01*
X645Y256D02*
X754Y256D01*
X218Y255D02*
X282Y255D01*
X321Y255D02*
X329Y255D01*
X367Y255D02*
X398Y255D01*
X409Y255D02*
X605Y255D01*
X643Y255D02*
X754Y255D01*
X219Y254D02*
X283Y254D01*
X366Y254D02*
X398Y254D01*
X410Y254D02*
X603Y254D01*
X641Y254D02*
X754Y254D01*
X219Y253D02*
X284Y253D01*
X365Y253D02*
X397Y253D01*
X412Y253D02*
X602Y253D01*
X639Y253D02*
X752Y253D01*
X220Y252D02*
X285Y252D01*
X364Y252D02*
X397Y252D01*
X414Y252D02*
X600Y252D01*
X638Y252D02*
X750Y252D01*
X220Y251D02*
X286Y251D01*
X363Y251D02*
X396Y251D01*
X416Y251D02*
X598Y251D01*
X636Y251D02*
X749Y251D01*
X220Y250D02*
X287Y250D01*
X362Y250D02*
X395Y250D01*
X417Y250D02*
X596Y250D01*
X634Y250D02*
X747Y250D01*
X221Y249D02*
X288Y249D01*
X361Y249D02*
X395Y249D01*
X419Y249D02*
X595Y249D01*
X632Y249D02*
X745Y249D01*
X221Y248D02*
X290Y248D01*
X360Y248D02*
X394Y248D01*
X421Y248D02*
X593Y248D01*
X631Y248D02*
X743Y248D01*
X222Y247D02*
X291Y247D01*
X358Y247D02*
X393Y247D01*
X422Y247D02*
X591Y247D01*
X629Y247D02*
X742Y247D01*
X222Y246D02*
X292Y246D01*
X357Y246D02*
X393Y246D01*
X424Y246D02*
X589Y246D01*
X627Y246D02*
X740Y246D01*
X223Y245D02*
X294Y245D01*
X355Y245D02*
X392Y245D01*
X426Y245D02*
X588Y245D01*
X625Y245D02*
X738Y245D01*
X223Y244D02*
X296Y244D01*
X354Y244D02*
X392Y244D01*
X428Y244D02*
X586Y244D01*
X624Y244D02*
X736Y244D01*
X224Y243D02*
X297Y243D01*
X352Y243D02*
X392Y243D01*
X429Y243D02*
X584Y243D01*
X622Y243D02*
X735Y243D01*
X224Y242D02*
X299Y242D01*
X350Y242D02*
X393Y242D01*
X431Y242D02*
X582Y242D01*
X620Y242D02*
X733Y242D01*
X225Y241D02*
X302Y241D01*
X348Y241D02*
X395Y241D01*
X433Y241D02*
X581Y241D01*
X619Y241D02*
X731Y241D01*
X225Y240D02*
X304Y240D01*
X345Y240D02*
X397Y240D01*
X435Y240D02*
X579Y240D01*
X617Y240D02*
X730Y240D01*
X226Y239D02*
X307Y239D01*
X343Y239D02*
X398Y239D01*
X436Y239D02*
X577Y239D01*
X615Y239D02*
X728Y239D01*
X226Y238D02*
X310Y238D01*
X339Y238D02*
X400Y238D01*
X438Y238D02*
X576Y238D01*
X613Y238D02*
X726Y238D01*
X227Y237D02*
X315Y237D01*
X334Y237D02*
X402Y237D01*
X440Y237D02*
X574Y237D01*
X612Y237D02*
X724Y237D01*
X227Y236D02*
X404Y236D01*
X442Y236D02*
X572Y236D01*
X610Y236D02*
X723Y236D01*
X228Y235D02*
X405Y235D01*
X443Y235D02*
X570Y235D01*
X608Y235D02*
X721Y235D01*
X228Y234D02*
X407Y234D01*
X445Y234D02*
X569Y234D01*
X606Y234D02*
X719Y234D01*
X229Y233D02*
X409Y233D01*
X447Y233D02*
X567Y233D01*
X605Y233D02*
X717Y233D01*
X230Y232D02*
X411Y232D01*
X448Y232D02*
X565Y232D01*
X603Y232D02*
X716Y232D01*
X230Y231D02*
X412Y231D01*
X450Y231D02*
X563Y231D01*
X601Y231D02*
X714Y231D01*
X231Y230D02*
X414Y230D01*
X452Y230D02*
X562Y230D01*
X599Y230D02*
X712Y230D01*
X232Y229D02*
X416Y229D01*
X454Y229D02*
X560Y229D01*
X598Y229D02*
X710Y229D01*
X232Y228D02*
X417Y228D01*
X455Y228D02*
X558Y228D01*
X596Y228D02*
X709Y228D01*
X233Y227D02*
X419Y227D01*
X457Y227D02*
X556Y227D01*
X594Y227D02*
X707Y227D01*
X234Y226D02*
X421Y226D01*
X459Y226D02*
X555Y226D01*
X593Y226D02*
X705Y226D01*
X235Y225D02*
X423Y225D01*
X461Y225D02*
X553Y225D01*
X591Y225D02*
X704Y225D01*
X235Y224D02*
X424Y224D01*
X462Y224D02*
X551Y224D01*
X589Y224D02*
X702Y224D01*
X236Y223D02*
X426Y223D01*
X464Y223D02*
X550Y223D01*
X587Y223D02*
X700Y223D01*
X237Y222D02*
X428Y222D01*
X466Y222D02*
X548Y222D01*
X586Y222D02*
X698Y222D01*
X238Y221D02*
X430Y221D01*
X467Y221D02*
X546Y221D01*
X584Y221D02*
X697Y221D01*
X238Y220D02*
X431Y220D01*
X469Y220D02*
X544Y220D01*
X582Y220D02*
X695Y220D01*
X239Y219D02*
X433Y219D01*
X471Y219D02*
X543Y219D01*
X580Y219D02*
X693Y219D01*
X240Y218D02*
X435Y218D01*
X473Y218D02*
X541Y218D01*
X579Y218D02*
X691Y218D01*
X241Y217D02*
X437Y217D01*
X474Y217D02*
X539Y217D01*
X577Y217D02*
X690Y217D01*
X242Y216D02*
X438Y216D01*
X476Y216D02*
X537Y216D01*
X575Y216D02*
X688Y216D01*
X243Y215D02*
X440Y215D01*
X478Y215D02*
X536Y215D01*
X574Y215D02*
X686Y215D01*
X244Y214D02*
X442Y214D01*
X480Y214D02*
X534Y214D01*
X572Y214D02*
X685Y214D01*
X245Y213D02*
X443Y213D01*
X481Y213D02*
X532Y213D01*
X570Y213D02*
X683Y213D01*
X246Y212D02*
X445Y212D01*
X483Y212D02*
X530Y212D01*
X568Y212D02*
X681Y212D01*
X247Y211D02*
X447Y211D01*
X485Y211D02*
X529Y211D01*
X567Y211D02*
X679Y211D01*
X248Y210D02*
X449Y210D01*
X487Y210D02*
X527Y210D01*
X565Y210D02*
X678Y210D01*
X249Y209D02*
X450Y209D01*
X488Y209D02*
X525Y209D01*
X563Y209D02*
X676Y209D01*
X250Y208D02*
X452Y208D01*
X490Y208D02*
X524Y208D01*
X561Y208D02*
X674Y208D01*
X251Y207D02*
X454Y207D01*
X492Y207D02*
X522Y207D01*
X560Y207D02*
X672Y207D01*
X252Y206D02*
X456Y206D01*
X493Y206D02*
X520Y206D01*
X558Y206D02*
X671Y206D01*
X254Y205D02*
X457Y205D01*
X495Y205D02*
X518Y205D01*
X556Y205D02*
X669Y205D01*
X255Y204D02*
X459Y204D01*
X497Y204D02*
X517Y204D01*
X554Y204D02*
X667Y204D01*
X256Y203D02*
X461Y203D01*
X499Y203D02*
X515Y203D01*
X553Y203D02*
X665Y203D01*
X258Y202D02*
X463Y202D01*
X500Y202D02*
X513Y202D01*
X551Y202D02*
X664Y202D01*
X259Y201D02*
X464Y201D01*
X502Y201D02*
X511Y201D01*
X549Y201D02*
X662Y201D01*
X260Y200D02*
X466Y200D01*
X504Y200D02*
X510Y200D01*
X548Y200D02*
X660Y200D01*
X262Y199D02*
X468Y199D01*
X506Y199D02*
X508Y199D01*
X546Y199D02*
X659Y199D01*
X263Y198D02*
X469Y198D01*
X544Y198D02*
X657Y198D01*
X265Y197D02*
X471Y197D01*
X542Y197D02*
X655Y197D01*
X266Y196D02*
X473Y196D01*
X541Y196D02*
X653Y196D01*
X268Y195D02*
X475Y195D01*
X539Y195D02*
X652Y195D01*
X270Y194D02*
X476Y194D01*
X537Y194D02*
X650Y194D01*
X271Y193D02*
X478Y193D01*
X535Y193D02*
X648Y193D01*
X273Y192D02*
X480Y192D01*
X534Y192D02*
X646Y192D01*
X275Y191D02*
X482Y191D01*
X532Y191D02*
X645Y191D01*
X277Y190D02*
X483Y190D01*
X530Y190D02*
X643Y190D01*
X280Y189D02*
X369Y189D01*
X372Y189D02*
X485Y189D01*
X528Y189D02*
X641Y189D01*
X282Y188D02*
X367Y188D01*
X374Y188D02*
X487Y188D01*
X527Y188D02*
X639Y188D01*
X284Y187D02*
X365Y187D01*
X376Y187D02*
X489Y187D01*
X525Y187D02*
X638Y187D01*
X287Y186D02*
X362Y186D01*
X378Y186D02*
X490Y186D01*
X523Y186D02*
X636Y186D01*
X290Y185D02*
X359Y185D01*
X379Y185D02*
X492Y185D01*
X522Y185D02*
X634Y185D01*
X293Y184D02*
X356Y184D01*
X381Y184D02*
X494Y184D01*
X520Y184D02*
X633Y184D01*
X297Y183D02*
X352Y183D01*
X383Y183D02*
X495Y183D01*
X518Y183D02*
X631Y183D01*
X301Y182D02*
X348Y182D01*
X385Y182D02*
X497Y182D01*
X516Y182D02*
X629Y182D01*
X306Y181D02*
X343Y181D01*
X386Y181D02*
X499Y181D01*
X515Y181D02*
X627Y181D01*
X314Y180D02*
X335Y180D01*
X388Y180D02*
X501Y180D01*
X513Y180D02*
X626Y180D01*
X390Y179D02*
X502Y179D01*
X511Y179D02*
X624Y179D01*
X391Y178D02*
X504Y178D01*
X509Y178D02*
X622Y178D01*
X393Y177D02*
X506Y177D01*
X508Y177D02*
X620Y177D01*
X395Y176D02*
X619Y176D01*
X397Y175D02*
X617Y175D01*
X398Y174D02*
X615Y174D01*
X400Y173D02*
X613Y173D01*
X402Y172D02*
X612Y172D01*
X404Y171D02*
X610Y171D01*
X405Y170D02*
X608Y170D01*
X407Y169D02*
X607Y169D01*
X409Y168D02*
X605Y168D01*
X410Y167D02*
X603Y167D01*
X412Y166D02*
X601Y166D01*
X414Y165D02*
X600Y165D01*
X416Y164D02*
X598Y164D01*
X417Y163D02*
X596Y163D01*
X419Y162D02*
X594Y162D01*
X421Y161D02*
X593Y161D01*
X423Y160D02*
X591Y160D01*
X424Y159D02*
X589Y159D01*
X426Y158D02*
X588Y158D01*
X428Y157D02*
X586Y157D01*
X430Y156D02*
X584Y156D01*
X431Y155D02*
X582Y155D01*
X433Y154D02*
X581Y154D01*
X435Y153D02*
X579Y153D01*
X436Y152D02*
X577Y152D01*
X438Y151D02*
X575Y151D01*
X440Y150D02*
X574Y150D01*
X442Y149D02*
X572Y149D01*
X443Y148D02*
X570Y148D01*
X445Y147D02*
X568Y147D01*
X447Y146D02*
X567Y146D01*
X449Y145D02*
X565Y145D01*
X450Y144D02*
X563Y144D01*
X452Y143D02*
X562Y143D01*
X454Y142D02*
X560Y142D01*
X456Y141D02*
X558Y141D01*
X457Y140D02*
X556Y140D01*
X459Y139D02*
X555Y139D01*
X461Y138D02*
X553Y138D01*
X462Y137D02*
X551Y137D01*
X464Y136D02*
X549Y136D01*
X466Y135D02*
X548Y135D01*
X468Y134D02*
X546Y134D01*
X469Y133D02*
X544Y133D01*
X471Y132D02*
X542Y132D01*
X473Y131D02*
X541Y131D01*
X475Y130D02*
X539Y130D01*
X476Y129D02*
X537Y129D01*
X478Y128D02*
X536Y128D01*
X480Y127D02*
X534Y127D01*
X482Y126D02*
X532Y126D01*
X483Y125D02*
X530Y125D01*
X485Y124D02*
X529Y124D01*
X487Y123D02*
X527Y123D01*
X488Y122D02*
X525Y122D01*
X490Y121D02*
X523Y121D01*
X492Y120D02*
X522Y120D01*
X494Y119D02*
X520Y119D01*
X495Y118D02*
X518Y118D01*
X497Y117D02*
X516Y117D01*
X499Y116D02*
X515Y116D01*
X501Y115D02*
X513Y115D01*
X502Y114D02*
X511Y114D01*
X504Y113D02*
X510Y113D01*
X506Y112D02*
X508Y112D01*
D02*
G04 End of Copper1*
M02*