; NON-PLATED HOLES START AT T1
; THROUGH (PLATED) HOLES START AT T100
M48
INCH
T100C0.031496
T101C0.039370
T102C0.038000
T103C0.035000
%
T100
X006837Y008061
X007624Y008061
X005262Y008061
X006049Y008061
T101
X001229Y014908
X009430Y013715
X001237Y013715
X009423Y014908
T102
X011626Y001755
X005564Y001743
X006564Y001743
X011430Y013424
X011430Y014424
X001451Y001739
X007564Y001743
X002451Y001739
X011430Y015424
X010626Y001755
X003451Y001739
X009626Y001755
T103
X001430Y008072
X004440Y004045
X011510Y004072
X001430Y004072
X008440Y004045
X011510Y008072
T00
M30
