G04 MADE WITH FRITZING*
G04 WWW.FRITZING.ORG*
G04 DOUBLE SIDED*
G04 HOLES PLATED*
G04 CONTOUR ON CENTER OF CONTOUR VECTOR*
%ASAXBY*%
%FSLAX23Y23*%
%MOIN*%
%OFA0B0*%
%SFA1.0B1.0*%
%ADD10C,0.078000*%
%ADD11C,0.075000*%
%ADD12C,0.090551*%
%ADD13C,0.059055*%
%ADD14R,0.100000X0.011111*%
%ADD15R,0.078000X0.078000*%
%ADD16C,0.024000*%
%ADD17C,0.021000*%
%ADD18R,0.001000X0.001000*%
%LNCOPPER1*%
G90*
G70*
G54D10*
X1143Y1542D03*
X1143Y1442D03*
X1143Y1342D03*
G54D11*
X1151Y807D03*
X1151Y407D03*
X444Y405D03*
X844Y405D03*
X143Y807D03*
X143Y407D03*
G54D10*
X1163Y176D03*
X1063Y176D03*
X963Y176D03*
X756Y174D03*
X656Y174D03*
X556Y174D03*
X345Y174D03*
X245Y174D03*
X145Y174D03*
G54D12*
X943Y1372D03*
X942Y1491D03*
X124Y1372D03*
X123Y1491D03*
G54D13*
X762Y806D03*
X684Y806D03*
X605Y806D03*
X526Y806D03*
G54D14*
X536Y1194D03*
G54D15*
X1143Y1542D03*
G54D16*
X1122Y807D02*
X789Y806D01*
D02*
X172Y807D02*
X499Y806D01*
D02*
X459Y429D02*
X670Y783D01*
D02*
X145Y204D02*
X143Y379D01*
D02*
X580Y193D02*
X822Y387D01*
D02*
X982Y199D02*
X1133Y385D01*
G54D17*
D02*
X600Y833D02*
X536Y1194D01*
G54D16*
D02*
X1240Y1363D02*
X1166Y1423D01*
D02*
X1240Y402D02*
X1240Y1363D01*
D02*
X1081Y199D02*
X1240Y402D01*
D02*
X1120Y1523D02*
X967Y1392D01*
D02*
X977Y50D02*
X346Y50D01*
D02*
X346Y50D02*
X264Y151D01*
D02*
X1046Y151D02*
X977Y50D01*
D02*
X976Y50D02*
X751Y50D01*
D02*
X751Y50D02*
X675Y150D01*
D02*
X1046Y151D02*
X976Y50D01*
G54D18*
X536Y1713D02*
X538Y1713D01*
X535Y1712D02*
X540Y1712D01*
X533Y1711D02*
X541Y1711D01*
X531Y1710D02*
X543Y1710D01*
X529Y1709D02*
X545Y1709D01*
X528Y1708D02*
X546Y1708D01*
X526Y1707D02*
X548Y1707D01*
X524Y1706D02*
X550Y1706D01*
X522Y1705D02*
X552Y1705D01*
X521Y1704D02*
X553Y1704D01*
X519Y1703D02*
X555Y1703D01*
X517Y1702D02*
X557Y1702D01*
X515Y1701D02*
X559Y1701D01*
X514Y1700D02*
X560Y1700D01*
X512Y1699D02*
X562Y1699D01*
X510Y1698D02*
X564Y1698D01*
X509Y1697D02*
X566Y1697D01*
X507Y1696D02*
X567Y1696D01*
X505Y1695D02*
X569Y1695D01*
X503Y1694D02*
X571Y1694D01*
X502Y1693D02*
X572Y1693D01*
X500Y1692D02*
X574Y1692D01*
X498Y1691D02*
X576Y1691D01*
X496Y1690D02*
X578Y1690D01*
X495Y1689D02*
X579Y1689D01*
X493Y1688D02*
X581Y1688D01*
X491Y1687D02*
X583Y1687D01*
X490Y1686D02*
X585Y1686D01*
X488Y1685D02*
X586Y1685D01*
X486Y1684D02*
X588Y1684D01*
X484Y1683D02*
X590Y1683D01*
X483Y1682D02*
X591Y1682D01*
X481Y1681D02*
X593Y1681D01*
X479Y1680D02*
X595Y1680D01*
X477Y1679D02*
X597Y1679D01*
X476Y1678D02*
X598Y1678D01*
X474Y1677D02*
X600Y1677D01*
X472Y1676D02*
X602Y1676D01*
X470Y1675D02*
X604Y1675D01*
X469Y1674D02*
X605Y1674D01*
X467Y1673D02*
X607Y1673D01*
X465Y1672D02*
X609Y1672D01*
X464Y1671D02*
X611Y1671D01*
X462Y1670D02*
X612Y1670D01*
X460Y1669D02*
X614Y1669D01*
X458Y1668D02*
X616Y1668D01*
X457Y1667D02*
X617Y1667D01*
X455Y1666D02*
X619Y1666D01*
X453Y1665D02*
X621Y1665D01*
X451Y1664D02*
X623Y1664D01*
X450Y1663D02*
X624Y1663D01*
X448Y1662D02*
X626Y1662D01*
X446Y1661D02*
X628Y1661D01*
X444Y1660D02*
X630Y1660D01*
X443Y1659D02*
X631Y1659D01*
X441Y1658D02*
X633Y1658D01*
X439Y1657D02*
X635Y1657D01*
X438Y1656D02*
X637Y1656D01*
X436Y1655D02*
X638Y1655D01*
X434Y1654D02*
X640Y1654D01*
X432Y1653D02*
X642Y1653D01*
X431Y1652D02*
X643Y1652D01*
X429Y1651D02*
X645Y1651D01*
X427Y1650D02*
X647Y1650D01*
X425Y1649D02*
X649Y1649D01*
X424Y1648D02*
X536Y1648D01*
X538Y1648D02*
X650Y1648D01*
X422Y1647D02*
X534Y1647D01*
X540Y1647D02*
X652Y1647D01*
X420Y1646D02*
X533Y1646D01*
X541Y1646D02*
X654Y1646D01*
X419Y1645D02*
X531Y1645D01*
X543Y1645D02*
X656Y1645D01*
X708Y1645D02*
X730Y1645D01*
X417Y1644D02*
X529Y1644D01*
X545Y1644D02*
X657Y1644D01*
X701Y1644D02*
X737Y1644D01*
X415Y1643D02*
X528Y1643D01*
X547Y1643D02*
X659Y1643D01*
X695Y1643D02*
X742Y1643D01*
X413Y1642D02*
X526Y1642D01*
X548Y1642D02*
X661Y1642D01*
X691Y1642D02*
X747Y1642D01*
X412Y1641D02*
X524Y1641D01*
X550Y1641D02*
X663Y1641D01*
X688Y1641D02*
X750Y1641D01*
X410Y1640D02*
X522Y1640D01*
X552Y1640D02*
X664Y1640D01*
X684Y1640D02*
X753Y1640D01*
X408Y1639D02*
X521Y1639D01*
X554Y1639D02*
X666Y1639D01*
X682Y1639D02*
X756Y1639D01*
X406Y1638D02*
X519Y1638D01*
X555Y1638D02*
X668Y1638D01*
X679Y1638D02*
X759Y1638D01*
X405Y1637D02*
X517Y1637D01*
X557Y1637D02*
X669Y1637D01*
X676Y1637D02*
X761Y1637D01*
X403Y1636D02*
X515Y1636D01*
X559Y1636D02*
X671Y1636D01*
X674Y1636D02*
X764Y1636D01*
X401Y1635D02*
X514Y1635D01*
X560Y1635D02*
X766Y1635D01*
X399Y1634D02*
X512Y1634D01*
X562Y1634D02*
X768Y1634D01*
X398Y1633D02*
X510Y1633D01*
X564Y1633D02*
X770Y1633D01*
X396Y1632D02*
X508Y1632D01*
X566Y1632D02*
X772Y1632D01*
X394Y1631D02*
X507Y1631D01*
X567Y1631D02*
X774Y1631D01*
X393Y1630D02*
X505Y1630D01*
X569Y1630D02*
X775Y1630D01*
X391Y1629D02*
X503Y1629D01*
X571Y1629D02*
X777Y1629D01*
X389Y1628D02*
X502Y1628D01*
X573Y1628D02*
X779Y1628D01*
X387Y1627D02*
X500Y1627D01*
X574Y1627D02*
X780Y1627D01*
X386Y1626D02*
X498Y1626D01*
X536Y1626D02*
X538Y1626D01*
X576Y1626D02*
X782Y1626D01*
X384Y1625D02*
X496Y1625D01*
X534Y1625D02*
X540Y1625D01*
X578Y1625D02*
X783Y1625D01*
X382Y1624D02*
X495Y1624D01*
X532Y1624D02*
X542Y1624D01*
X580Y1624D02*
X784Y1624D01*
X380Y1623D02*
X493Y1623D01*
X531Y1623D02*
X543Y1623D01*
X581Y1623D02*
X786Y1623D01*
X379Y1622D02*
X491Y1622D01*
X529Y1622D02*
X545Y1622D01*
X583Y1622D02*
X787Y1622D01*
X377Y1621D02*
X489Y1621D01*
X527Y1621D02*
X547Y1621D01*
X585Y1621D02*
X788Y1621D01*
X375Y1620D02*
X488Y1620D01*
X525Y1620D02*
X549Y1620D01*
X586Y1620D02*
X790Y1620D01*
X373Y1619D02*
X486Y1619D01*
X524Y1619D02*
X550Y1619D01*
X588Y1619D02*
X791Y1619D01*
X372Y1618D02*
X484Y1618D01*
X522Y1618D02*
X552Y1618D01*
X590Y1618D02*
X792Y1618D01*
X370Y1617D02*
X482Y1617D01*
X520Y1617D02*
X554Y1617D01*
X592Y1617D02*
X793Y1617D01*
X368Y1616D02*
X481Y1616D01*
X518Y1616D02*
X556Y1616D01*
X593Y1616D02*
X794Y1616D01*
X367Y1615D02*
X479Y1615D01*
X517Y1615D02*
X557Y1615D01*
X595Y1615D02*
X795Y1615D01*
X365Y1614D02*
X477Y1614D01*
X515Y1614D02*
X559Y1614D01*
X597Y1614D02*
X796Y1614D01*
X363Y1613D02*
X476Y1613D01*
X513Y1613D02*
X561Y1613D01*
X599Y1613D02*
X797Y1613D01*
X361Y1612D02*
X474Y1612D01*
X512Y1612D02*
X563Y1612D01*
X600Y1612D02*
X798Y1612D01*
X360Y1611D02*
X472Y1611D01*
X510Y1611D02*
X564Y1611D01*
X602Y1611D02*
X799Y1611D01*
X358Y1610D02*
X470Y1610D01*
X508Y1610D02*
X566Y1610D01*
X604Y1610D02*
X800Y1610D01*
X356Y1609D02*
X469Y1609D01*
X506Y1609D02*
X568Y1609D01*
X606Y1609D02*
X801Y1609D01*
X354Y1608D02*
X467Y1608D01*
X505Y1608D02*
X569Y1608D01*
X607Y1608D02*
X802Y1608D01*
X353Y1607D02*
X465Y1607D01*
X503Y1607D02*
X571Y1607D01*
X609Y1607D02*
X803Y1607D01*
X351Y1606D02*
X463Y1606D01*
X501Y1606D02*
X573Y1606D01*
X611Y1606D02*
X804Y1606D01*
X349Y1605D02*
X462Y1605D01*
X499Y1605D02*
X575Y1605D01*
X612Y1605D02*
X805Y1605D01*
X348Y1604D02*
X460Y1604D01*
X498Y1604D02*
X576Y1604D01*
X614Y1604D02*
X806Y1604D01*
X346Y1603D02*
X458Y1603D01*
X496Y1603D02*
X578Y1603D01*
X616Y1603D02*
X806Y1603D01*
X344Y1602D02*
X456Y1602D01*
X494Y1602D02*
X580Y1602D01*
X618Y1602D02*
X807Y1602D01*
X342Y1601D02*
X455Y1601D01*
X492Y1601D02*
X582Y1601D01*
X619Y1601D02*
X808Y1601D01*
X341Y1600D02*
X453Y1600D01*
X491Y1600D02*
X583Y1600D01*
X621Y1600D02*
X809Y1600D01*
X339Y1599D02*
X451Y1599D01*
X489Y1599D02*
X585Y1599D01*
X623Y1599D02*
X809Y1599D01*
X337Y1598D02*
X450Y1598D01*
X487Y1598D02*
X587Y1598D01*
X625Y1598D02*
X810Y1598D01*
X335Y1597D02*
X448Y1597D01*
X486Y1597D02*
X589Y1597D01*
X626Y1597D02*
X811Y1597D01*
X334Y1596D02*
X446Y1596D01*
X484Y1596D02*
X590Y1596D01*
X628Y1596D02*
X812Y1596D01*
X332Y1595D02*
X444Y1595D01*
X482Y1595D02*
X592Y1595D01*
X630Y1595D02*
X812Y1595D01*
X330Y1594D02*
X443Y1594D01*
X480Y1594D02*
X594Y1594D01*
X632Y1594D02*
X813Y1594D01*
X328Y1593D02*
X441Y1593D01*
X479Y1593D02*
X595Y1593D01*
X633Y1593D02*
X814Y1593D01*
X327Y1592D02*
X439Y1592D01*
X477Y1592D02*
X597Y1592D01*
X635Y1592D02*
X814Y1592D01*
X325Y1591D02*
X437Y1591D01*
X475Y1591D02*
X599Y1591D01*
X637Y1591D02*
X815Y1591D01*
X323Y1590D02*
X436Y1590D01*
X473Y1590D02*
X601Y1590D01*
X638Y1590D02*
X815Y1590D01*
X322Y1589D02*
X434Y1589D01*
X472Y1589D02*
X602Y1589D01*
X640Y1589D02*
X816Y1589D01*
X320Y1588D02*
X432Y1588D01*
X470Y1588D02*
X604Y1588D01*
X642Y1588D02*
X708Y1588D01*
X729Y1588D02*
X817Y1588D01*
X318Y1587D02*
X430Y1587D01*
X468Y1587D02*
X606Y1587D01*
X644Y1587D02*
X704Y1587D01*
X734Y1587D02*
X817Y1587D01*
X316Y1586D02*
X429Y1586D01*
X467Y1586D02*
X608Y1586D01*
X645Y1586D02*
X700Y1586D01*
X737Y1586D02*
X818Y1586D01*
X315Y1585D02*
X427Y1585D01*
X465Y1585D02*
X609Y1585D01*
X647Y1585D02*
X698Y1585D01*
X740Y1585D02*
X818Y1585D01*
X313Y1584D02*
X425Y1584D01*
X463Y1584D02*
X611Y1584D01*
X649Y1584D02*
X695Y1584D01*
X742Y1584D02*
X819Y1584D01*
X311Y1583D02*
X424Y1583D01*
X461Y1583D02*
X613Y1583D01*
X651Y1583D02*
X693Y1583D01*
X744Y1583D02*
X819Y1583D01*
X309Y1582D02*
X422Y1582D01*
X460Y1582D02*
X615Y1582D01*
X652Y1582D02*
X691Y1582D01*
X746Y1582D02*
X820Y1582D01*
X308Y1581D02*
X420Y1581D01*
X458Y1581D02*
X616Y1581D01*
X652Y1581D02*
X690Y1581D01*
X748Y1581D02*
X820Y1581D01*
X306Y1580D02*
X418Y1580D01*
X456Y1580D02*
X618Y1580D01*
X651Y1580D02*
X688Y1580D01*
X750Y1580D02*
X821Y1580D01*
X304Y1579D02*
X417Y1579D01*
X454Y1579D02*
X620Y1579D01*
X651Y1579D02*
X686Y1579D01*
X751Y1579D02*
X821Y1579D01*
X302Y1578D02*
X415Y1578D01*
X453Y1578D02*
X621Y1578D01*
X650Y1578D02*
X685Y1578D01*
X752Y1578D02*
X822Y1578D01*
X301Y1577D02*
X413Y1577D01*
X451Y1577D02*
X623Y1577D01*
X649Y1577D02*
X684Y1577D01*
X754Y1577D02*
X822Y1577D01*
X299Y1576D02*
X411Y1576D01*
X449Y1576D02*
X625Y1576D01*
X649Y1576D02*
X682Y1576D01*
X755Y1576D02*
X822Y1576D01*
X297Y1575D02*
X410Y1575D01*
X447Y1575D02*
X627Y1575D01*
X648Y1575D02*
X681Y1575D01*
X756Y1575D02*
X823Y1575D01*
X296Y1574D02*
X408Y1574D01*
X446Y1574D02*
X628Y1574D01*
X647Y1574D02*
X680Y1574D01*
X757Y1574D02*
X823Y1574D01*
X294Y1573D02*
X406Y1573D01*
X444Y1573D02*
X630Y1573D01*
X647Y1573D02*
X679Y1573D01*
X758Y1573D02*
X824Y1573D01*
X292Y1572D02*
X404Y1572D01*
X442Y1572D02*
X632Y1572D01*
X646Y1572D02*
X678Y1572D01*
X759Y1572D02*
X824Y1572D01*
X290Y1571D02*
X403Y1571D01*
X441Y1571D02*
X634Y1571D01*
X646Y1571D02*
X677Y1571D01*
X760Y1571D02*
X824Y1571D01*
X290Y1570D02*
X401Y1570D01*
X439Y1570D02*
X635Y1570D01*
X645Y1570D02*
X676Y1570D01*
X714Y1570D02*
X724Y1570D01*
X761Y1570D02*
X825Y1570D01*
X290Y1569D02*
X399Y1569D01*
X437Y1569D02*
X637Y1569D01*
X645Y1569D02*
X675Y1569D01*
X709Y1569D02*
X729Y1569D01*
X762Y1569D02*
X825Y1569D01*
X290Y1568D02*
X398Y1568D01*
X435Y1568D02*
X639Y1568D01*
X644Y1568D02*
X675Y1568D01*
X706Y1568D02*
X732Y1568D01*
X763Y1568D02*
X825Y1568D01*
X290Y1567D02*
X396Y1567D01*
X434Y1567D02*
X641Y1567D01*
X644Y1567D02*
X674Y1567D01*
X703Y1567D02*
X734Y1567D01*
X764Y1567D02*
X826Y1567D01*
X290Y1566D02*
X394Y1566D01*
X432Y1566D02*
X673Y1566D01*
X701Y1566D02*
X736Y1566D01*
X764Y1566D02*
X826Y1566D01*
X290Y1565D02*
X392Y1565D01*
X430Y1565D02*
X672Y1565D01*
X700Y1565D02*
X738Y1565D01*
X765Y1565D02*
X826Y1565D01*
X290Y1564D02*
X391Y1564D01*
X428Y1564D02*
X672Y1564D01*
X698Y1564D02*
X739Y1564D01*
X766Y1564D02*
X827Y1564D01*
X290Y1563D02*
X389Y1563D01*
X427Y1563D02*
X671Y1563D01*
X697Y1563D02*
X741Y1563D01*
X767Y1563D02*
X827Y1563D01*
X290Y1562D02*
X387Y1562D01*
X425Y1562D02*
X670Y1562D01*
X695Y1562D02*
X742Y1562D01*
X767Y1562D02*
X827Y1562D01*
X290Y1561D02*
X385Y1561D01*
X423Y1561D02*
X670Y1561D01*
X694Y1561D02*
X743Y1561D01*
X768Y1561D02*
X828Y1561D01*
X290Y1560D02*
X384Y1560D01*
X421Y1560D02*
X669Y1560D01*
X693Y1560D02*
X744Y1560D01*
X768Y1560D02*
X828Y1560D01*
X290Y1559D02*
X382Y1559D01*
X420Y1559D02*
X669Y1559D01*
X692Y1559D02*
X745Y1559D01*
X769Y1559D02*
X828Y1559D01*
X290Y1558D02*
X380Y1558D01*
X418Y1558D02*
X668Y1558D01*
X691Y1558D02*
X746Y1558D01*
X769Y1558D02*
X828Y1558D01*
X290Y1557D02*
X379Y1557D01*
X416Y1557D02*
X668Y1557D01*
X690Y1557D02*
X747Y1557D01*
X770Y1557D02*
X828Y1557D01*
X290Y1556D02*
X377Y1556D01*
X415Y1556D02*
X667Y1556D01*
X690Y1556D02*
X748Y1556D01*
X770Y1556D02*
X829Y1556D01*
X290Y1555D02*
X375Y1555D01*
X413Y1555D02*
X667Y1555D01*
X689Y1555D02*
X749Y1555D01*
X771Y1555D02*
X829Y1555D01*
X290Y1554D02*
X373Y1554D01*
X411Y1554D02*
X666Y1554D01*
X688Y1554D02*
X749Y1554D01*
X771Y1554D02*
X829Y1554D01*
X290Y1553D02*
X372Y1553D01*
X409Y1553D02*
X666Y1553D01*
X687Y1553D02*
X750Y1553D01*
X772Y1553D02*
X829Y1553D01*
X290Y1552D02*
X370Y1552D01*
X408Y1552D02*
X666Y1552D01*
X687Y1552D02*
X751Y1552D01*
X772Y1552D02*
X829Y1552D01*
X290Y1551D02*
X368Y1551D01*
X406Y1551D02*
X665Y1551D01*
X686Y1551D02*
X751Y1551D01*
X772Y1551D02*
X830Y1551D01*
X290Y1550D02*
X366Y1550D01*
X404Y1550D02*
X665Y1550D01*
X686Y1550D02*
X752Y1550D01*
X773Y1550D02*
X830Y1550D01*
X290Y1549D02*
X365Y1549D01*
X402Y1549D02*
X664Y1549D01*
X685Y1549D02*
X752Y1549D01*
X773Y1549D02*
X830Y1549D01*
X290Y1548D02*
X363Y1548D01*
X401Y1548D02*
X664Y1548D01*
X685Y1548D02*
X753Y1548D01*
X773Y1548D02*
X830Y1548D01*
X290Y1547D02*
X361Y1547D01*
X399Y1547D02*
X664Y1547D01*
X684Y1547D02*
X753Y1547D01*
X774Y1547D02*
X830Y1547D01*
X290Y1546D02*
X359Y1546D01*
X397Y1546D02*
X664Y1546D01*
X684Y1546D02*
X754Y1546D01*
X774Y1546D02*
X830Y1546D01*
X290Y1545D02*
X358Y1545D01*
X395Y1545D02*
X663Y1545D01*
X684Y1545D02*
X754Y1545D01*
X774Y1545D02*
X830Y1545D01*
X290Y1544D02*
X356Y1544D01*
X394Y1544D02*
X663Y1544D01*
X683Y1544D02*
X754Y1544D01*
X774Y1544D02*
X831Y1544D01*
X290Y1543D02*
X354Y1543D01*
X392Y1543D02*
X663Y1543D01*
X683Y1543D02*
X755Y1543D01*
X774Y1543D02*
X831Y1543D01*
X290Y1542D02*
X353Y1542D01*
X390Y1542D02*
X663Y1542D01*
X683Y1542D02*
X755Y1542D01*
X775Y1542D02*
X831Y1542D01*
X290Y1541D02*
X351Y1541D01*
X389Y1541D02*
X663Y1541D01*
X682Y1541D02*
X755Y1541D01*
X775Y1541D02*
X831Y1541D01*
X290Y1540D02*
X349Y1540D01*
X387Y1540D02*
X663Y1540D01*
X682Y1540D02*
X755Y1540D01*
X775Y1540D02*
X831Y1540D01*
X290Y1539D02*
X347Y1539D01*
X385Y1539D02*
X662Y1539D01*
X682Y1539D02*
X755Y1539D01*
X775Y1539D02*
X831Y1539D01*
X290Y1538D02*
X346Y1538D01*
X383Y1538D02*
X662Y1538D01*
X682Y1538D02*
X756Y1538D01*
X775Y1538D02*
X831Y1538D01*
X290Y1537D02*
X346Y1537D01*
X382Y1537D02*
X662Y1537D01*
X682Y1537D02*
X756Y1537D01*
X775Y1537D02*
X831Y1537D01*
X290Y1536D02*
X346Y1536D01*
X380Y1536D02*
X662Y1536D01*
X682Y1536D02*
X756Y1536D01*
X775Y1536D02*
X831Y1536D01*
X290Y1535D02*
X346Y1535D01*
X378Y1535D02*
X662Y1535D01*
X682Y1535D02*
X756Y1535D01*
X775Y1535D02*
X831Y1535D01*
X290Y1534D02*
X346Y1534D01*
X376Y1534D02*
X662Y1534D01*
X682Y1534D02*
X756Y1534D01*
X775Y1534D02*
X831Y1534D01*
X290Y1533D02*
X346Y1533D01*
X375Y1533D02*
X662Y1533D01*
X682Y1533D02*
X756Y1533D01*
X775Y1533D02*
X831Y1533D01*
X290Y1532D02*
X346Y1532D01*
X373Y1532D02*
X662Y1532D01*
X682Y1532D02*
X756Y1532D01*
X775Y1532D02*
X831Y1532D01*
X290Y1531D02*
X346Y1531D01*
X371Y1531D02*
X662Y1531D01*
X682Y1531D02*
X756Y1531D01*
X775Y1531D02*
X831Y1531D01*
X290Y1530D02*
X346Y1530D01*
X370Y1530D02*
X662Y1530D01*
X682Y1530D02*
X756Y1530D01*
X775Y1530D02*
X831Y1530D01*
X290Y1529D02*
X346Y1529D01*
X368Y1529D02*
X662Y1529D01*
X682Y1529D02*
X756Y1529D01*
X775Y1529D02*
X831Y1529D01*
X290Y1528D02*
X346Y1528D01*
X366Y1528D02*
X662Y1528D01*
X682Y1528D02*
X756Y1528D01*
X775Y1528D02*
X831Y1528D01*
X290Y1527D02*
X346Y1527D01*
X365Y1527D02*
X662Y1527D01*
X682Y1527D02*
X756Y1527D01*
X775Y1527D02*
X831Y1527D01*
X290Y1526D02*
X346Y1526D01*
X365Y1526D02*
X663Y1526D01*
X682Y1526D02*
X755Y1526D01*
X775Y1526D02*
X831Y1526D01*
X290Y1525D02*
X346Y1525D01*
X365Y1525D02*
X663Y1525D01*
X682Y1525D02*
X755Y1525D01*
X775Y1525D02*
X831Y1525D01*
X290Y1524D02*
X346Y1524D01*
X365Y1524D02*
X663Y1524D01*
X683Y1524D02*
X755Y1524D01*
X775Y1524D02*
X831Y1524D01*
X290Y1523D02*
X346Y1523D01*
X365Y1523D02*
X663Y1523D01*
X683Y1523D02*
X755Y1523D01*
X775Y1523D02*
X831Y1523D01*
X290Y1522D02*
X346Y1522D01*
X365Y1522D02*
X663Y1522D01*
X683Y1522D02*
X754Y1522D01*
X774Y1522D02*
X831Y1522D01*
X290Y1521D02*
X346Y1521D01*
X365Y1521D02*
X663Y1521D01*
X683Y1521D02*
X754Y1521D01*
X774Y1521D02*
X830Y1521D01*
X290Y1520D02*
X346Y1520D01*
X365Y1520D02*
X664Y1520D01*
X684Y1520D02*
X754Y1520D01*
X774Y1520D02*
X830Y1520D01*
X290Y1519D02*
X346Y1519D01*
X365Y1519D02*
X664Y1519D01*
X684Y1519D02*
X753Y1519D01*
X774Y1519D02*
X830Y1519D01*
X290Y1518D02*
X346Y1518D01*
X365Y1518D02*
X664Y1518D01*
X685Y1518D02*
X753Y1518D01*
X773Y1518D02*
X830Y1518D01*
X290Y1517D02*
X346Y1517D01*
X365Y1517D02*
X664Y1517D01*
X685Y1517D02*
X753Y1517D01*
X773Y1517D02*
X830Y1517D01*
X290Y1516D02*
X346Y1516D01*
X365Y1516D02*
X665Y1516D01*
X685Y1516D02*
X752Y1516D01*
X773Y1516D02*
X830Y1516D01*
X290Y1515D02*
X346Y1515D01*
X365Y1515D02*
X665Y1515D01*
X686Y1515D02*
X752Y1515D01*
X773Y1515D02*
X830Y1515D01*
X290Y1514D02*
X346Y1514D01*
X365Y1514D02*
X665Y1514D01*
X687Y1514D02*
X751Y1514D01*
X772Y1514D02*
X829Y1514D01*
X290Y1513D02*
X346Y1513D01*
X365Y1513D02*
X666Y1513D01*
X687Y1513D02*
X750Y1513D01*
X772Y1513D02*
X829Y1513D01*
X290Y1512D02*
X346Y1512D01*
X365Y1512D02*
X666Y1512D01*
X688Y1512D02*
X750Y1512D01*
X771Y1512D02*
X829Y1512D01*
X290Y1511D02*
X346Y1511D01*
X365Y1511D02*
X666Y1511D01*
X688Y1511D02*
X749Y1511D01*
X771Y1511D02*
X829Y1511D01*
X290Y1510D02*
X346Y1510D01*
X365Y1510D02*
X667Y1510D01*
X689Y1510D02*
X748Y1510D01*
X771Y1510D02*
X829Y1510D01*
X290Y1509D02*
X346Y1509D01*
X365Y1509D02*
X667Y1509D01*
X690Y1509D02*
X748Y1509D01*
X770Y1509D02*
X829Y1509D01*
X290Y1508D02*
X346Y1508D01*
X365Y1508D02*
X668Y1508D01*
X691Y1508D02*
X747Y1508D01*
X770Y1508D02*
X828Y1508D01*
X290Y1507D02*
X346Y1507D01*
X365Y1507D02*
X668Y1507D01*
X692Y1507D02*
X746Y1507D01*
X769Y1507D02*
X828Y1507D01*
X290Y1506D02*
X346Y1506D01*
X365Y1506D02*
X669Y1506D01*
X693Y1506D02*
X745Y1506D01*
X769Y1506D02*
X828Y1506D01*
X290Y1505D02*
X346Y1505D01*
X365Y1505D02*
X669Y1505D01*
X694Y1505D02*
X744Y1505D01*
X768Y1505D02*
X828Y1505D01*
X290Y1504D02*
X346Y1504D01*
X365Y1504D02*
X670Y1504D01*
X695Y1504D02*
X743Y1504D01*
X767Y1504D02*
X827Y1504D01*
X290Y1503D02*
X346Y1503D01*
X365Y1503D02*
X671Y1503D01*
X696Y1503D02*
X741Y1503D01*
X767Y1503D02*
X827Y1503D01*
X290Y1502D02*
X346Y1502D01*
X365Y1502D02*
X671Y1502D01*
X697Y1502D02*
X740Y1502D01*
X766Y1502D02*
X827Y1502D01*
X290Y1501D02*
X346Y1501D01*
X365Y1501D02*
X672Y1501D01*
X699Y1501D02*
X739Y1501D01*
X766Y1501D02*
X826Y1501D01*
X290Y1500D02*
X346Y1500D01*
X365Y1500D02*
X673Y1500D01*
X701Y1500D02*
X737Y1500D01*
X765Y1500D02*
X826Y1500D01*
X290Y1499D02*
X346Y1499D01*
X365Y1499D02*
X673Y1499D01*
X702Y1499D02*
X735Y1499D01*
X764Y1499D02*
X826Y1499D01*
X290Y1498D02*
X346Y1498D01*
X365Y1498D02*
X674Y1498D01*
X705Y1498D02*
X733Y1498D01*
X763Y1498D02*
X826Y1498D01*
X290Y1497D02*
X346Y1497D01*
X365Y1497D02*
X675Y1497D01*
X707Y1497D02*
X730Y1497D01*
X763Y1497D02*
X825Y1497D01*
X290Y1496D02*
X346Y1496D01*
X365Y1496D02*
X676Y1496D01*
X711Y1496D02*
X727Y1496D01*
X762Y1496D02*
X825Y1496D01*
X290Y1495D02*
X346Y1495D01*
X365Y1495D02*
X677Y1495D01*
X761Y1495D02*
X825Y1495D01*
X290Y1494D02*
X346Y1494D01*
X365Y1494D02*
X678Y1494D01*
X760Y1494D02*
X824Y1494D01*
X290Y1493D02*
X346Y1493D01*
X365Y1493D02*
X679Y1493D01*
X759Y1493D02*
X824Y1493D01*
X290Y1492D02*
X346Y1492D01*
X365Y1492D02*
X680Y1492D01*
X758Y1492D02*
X823Y1492D01*
X290Y1491D02*
X346Y1491D01*
X365Y1491D02*
X681Y1491D01*
X757Y1491D02*
X823Y1491D01*
X290Y1490D02*
X346Y1490D01*
X365Y1490D02*
X682Y1490D01*
X756Y1490D02*
X823Y1490D01*
X290Y1489D02*
X346Y1489D01*
X365Y1489D02*
X683Y1489D01*
X754Y1489D02*
X822Y1489D01*
X290Y1488D02*
X346Y1488D01*
X365Y1488D02*
X684Y1488D01*
X753Y1488D02*
X822Y1488D01*
X290Y1487D02*
X346Y1487D01*
X365Y1487D02*
X686Y1487D01*
X752Y1487D02*
X821Y1487D01*
X290Y1486D02*
X346Y1486D01*
X365Y1486D02*
X687Y1486D01*
X750Y1486D02*
X821Y1486D01*
X290Y1485D02*
X346Y1485D01*
X365Y1485D02*
X689Y1485D01*
X749Y1485D02*
X820Y1485D01*
X290Y1484D02*
X346Y1484D01*
X365Y1484D02*
X690Y1484D01*
X747Y1484D02*
X820Y1484D01*
X290Y1483D02*
X346Y1483D01*
X365Y1483D02*
X692Y1483D01*
X745Y1483D02*
X819Y1483D01*
X290Y1482D02*
X346Y1482D01*
X365Y1482D02*
X694Y1482D01*
X743Y1482D02*
X819Y1482D01*
X290Y1481D02*
X346Y1481D01*
X365Y1481D02*
X696Y1481D01*
X741Y1481D02*
X818Y1481D01*
X290Y1480D02*
X346Y1480D01*
X365Y1480D02*
X699Y1480D01*
X738Y1480D02*
X818Y1480D01*
X290Y1479D02*
X346Y1479D01*
X365Y1479D02*
X702Y1479D01*
X735Y1479D02*
X817Y1479D01*
X290Y1478D02*
X346Y1478D01*
X365Y1478D02*
X706Y1478D01*
X732Y1478D02*
X817Y1478D01*
X290Y1477D02*
X346Y1477D01*
X365Y1477D02*
X712Y1477D01*
X726Y1477D02*
X816Y1477D01*
X290Y1476D02*
X346Y1476D01*
X365Y1476D02*
X816Y1476D01*
X290Y1475D02*
X346Y1475D01*
X365Y1475D02*
X815Y1475D01*
X290Y1474D02*
X346Y1474D01*
X365Y1474D02*
X814Y1474D01*
X290Y1473D02*
X346Y1473D01*
X365Y1473D02*
X814Y1473D01*
X290Y1472D02*
X346Y1472D01*
X365Y1472D02*
X813Y1472D01*
X290Y1471D02*
X346Y1471D01*
X365Y1471D02*
X813Y1471D01*
X290Y1470D02*
X346Y1470D01*
X365Y1470D02*
X812Y1470D01*
X290Y1469D02*
X346Y1469D01*
X365Y1469D02*
X811Y1469D01*
X290Y1468D02*
X346Y1468D01*
X365Y1468D02*
X810Y1468D01*
X290Y1467D02*
X346Y1467D01*
X365Y1467D02*
X810Y1467D01*
X290Y1466D02*
X346Y1466D01*
X365Y1466D02*
X809Y1466D01*
X290Y1465D02*
X346Y1465D01*
X365Y1465D02*
X808Y1465D01*
X290Y1464D02*
X346Y1464D01*
X365Y1464D02*
X808Y1464D01*
X290Y1463D02*
X346Y1463D01*
X365Y1463D02*
X807Y1463D01*
X290Y1462D02*
X346Y1462D01*
X365Y1462D02*
X806Y1462D01*
X290Y1461D02*
X346Y1461D01*
X365Y1461D02*
X805Y1461D01*
X290Y1460D02*
X346Y1460D01*
X365Y1460D02*
X804Y1460D01*
X290Y1459D02*
X346Y1459D01*
X365Y1459D02*
X803Y1459D01*
X290Y1458D02*
X346Y1458D01*
X365Y1458D02*
X803Y1458D01*
X290Y1457D02*
X346Y1457D01*
X365Y1457D02*
X802Y1457D01*
X290Y1456D02*
X346Y1456D01*
X365Y1456D02*
X801Y1456D01*
X290Y1455D02*
X346Y1455D01*
X365Y1455D02*
X800Y1455D01*
X290Y1454D02*
X346Y1454D01*
X364Y1454D02*
X799Y1454D01*
X290Y1453D02*
X347Y1453D01*
X364Y1453D02*
X798Y1453D01*
X290Y1452D02*
X347Y1452D01*
X363Y1452D02*
X797Y1452D01*
X290Y1451D02*
X348Y1451D01*
X363Y1451D02*
X796Y1451D01*
X290Y1450D02*
X349Y1450D01*
X361Y1450D02*
X795Y1450D01*
X290Y1449D02*
X351Y1449D01*
X360Y1449D02*
X794Y1449D01*
X290Y1448D02*
X792Y1448D01*
X290Y1447D02*
X791Y1447D01*
X290Y1446D02*
X790Y1446D01*
X290Y1445D02*
X789Y1445D01*
X290Y1444D02*
X788Y1444D01*
X290Y1443D02*
X786Y1443D01*
X290Y1442D02*
X785Y1442D01*
X290Y1441D02*
X784Y1441D01*
X290Y1440D02*
X784Y1440D01*
X290Y1439D02*
X784Y1439D01*
X290Y1438D02*
X784Y1438D01*
X290Y1437D02*
X784Y1437D01*
X290Y1436D02*
X784Y1436D01*
X290Y1435D02*
X784Y1435D01*
X290Y1434D02*
X784Y1434D01*
X290Y1433D02*
X784Y1433D01*
X290Y1432D02*
X784Y1432D01*
X290Y1431D02*
X784Y1431D01*
X290Y1430D02*
X784Y1430D01*
X290Y1429D02*
X784Y1429D01*
X290Y1428D02*
X784Y1428D01*
X290Y1427D02*
X784Y1427D01*
X290Y1426D02*
X784Y1426D01*
X290Y1425D02*
X784Y1425D01*
X290Y1424D02*
X784Y1424D01*
X290Y1423D02*
X784Y1423D01*
X290Y1422D02*
X784Y1422D01*
X290Y1421D02*
X784Y1421D01*
X290Y1420D02*
X784Y1420D01*
X290Y1419D02*
X784Y1419D01*
X290Y1418D02*
X784Y1418D01*
X290Y1417D02*
X784Y1417D01*
X290Y1416D02*
X784Y1416D01*
X290Y1415D02*
X784Y1415D01*
X289Y1414D02*
X784Y1414D01*
X288Y1413D02*
X784Y1413D01*
X287Y1412D02*
X784Y1412D01*
X286Y1411D02*
X784Y1411D01*
X284Y1410D02*
X784Y1410D01*
X283Y1409D02*
X784Y1409D01*
X282Y1408D02*
X784Y1408D01*
X281Y1407D02*
X715Y1407D01*
X723Y1407D02*
X784Y1407D01*
X280Y1406D02*
X713Y1406D01*
X724Y1406D02*
X784Y1406D01*
X279Y1405D02*
X712Y1405D01*
X726Y1405D02*
X784Y1405D01*
X278Y1404D02*
X711Y1404D01*
X727Y1404D02*
X784Y1404D01*
X277Y1403D02*
X710Y1403D01*
X727Y1403D02*
X784Y1403D01*
X276Y1402D02*
X710Y1402D01*
X728Y1402D02*
X784Y1402D01*
X275Y1401D02*
X709Y1401D01*
X728Y1401D02*
X784Y1401D01*
X274Y1400D02*
X709Y1400D01*
X728Y1400D02*
X784Y1400D01*
X273Y1399D02*
X709Y1399D01*
X728Y1399D02*
X784Y1399D01*
X272Y1398D02*
X709Y1398D01*
X728Y1398D02*
X784Y1398D01*
X271Y1397D02*
X709Y1397D01*
X728Y1397D02*
X784Y1397D01*
X270Y1396D02*
X709Y1396D01*
X728Y1396D02*
X784Y1396D01*
X269Y1395D02*
X709Y1395D01*
X728Y1395D02*
X784Y1395D01*
X268Y1394D02*
X709Y1394D01*
X728Y1394D02*
X784Y1394D01*
X268Y1393D02*
X709Y1393D01*
X728Y1393D02*
X784Y1393D01*
X267Y1392D02*
X709Y1392D01*
X728Y1392D02*
X784Y1392D01*
X266Y1391D02*
X709Y1391D01*
X728Y1391D02*
X784Y1391D01*
X265Y1390D02*
X709Y1390D01*
X728Y1390D02*
X784Y1390D01*
X265Y1389D02*
X709Y1389D01*
X728Y1389D02*
X784Y1389D01*
X264Y1388D02*
X709Y1388D01*
X728Y1388D02*
X784Y1388D01*
X263Y1387D02*
X709Y1387D01*
X728Y1387D02*
X784Y1387D01*
X262Y1386D02*
X709Y1386D01*
X728Y1386D02*
X784Y1386D01*
X262Y1385D02*
X709Y1385D01*
X728Y1385D02*
X784Y1385D01*
X261Y1384D02*
X709Y1384D01*
X728Y1384D02*
X784Y1384D01*
X260Y1383D02*
X709Y1383D01*
X728Y1383D02*
X784Y1383D01*
X260Y1382D02*
X709Y1382D01*
X728Y1382D02*
X784Y1382D01*
X259Y1381D02*
X709Y1381D01*
X728Y1381D02*
X784Y1381D01*
X259Y1380D02*
X709Y1380D01*
X728Y1380D02*
X784Y1380D01*
X258Y1379D02*
X353Y1379D01*
X357Y1379D02*
X709Y1379D01*
X728Y1379D02*
X784Y1379D01*
X258Y1378D02*
X344Y1378D01*
X367Y1378D02*
X709Y1378D01*
X728Y1378D02*
X784Y1378D01*
X257Y1377D02*
X340Y1377D01*
X371Y1377D02*
X709Y1377D01*
X728Y1377D02*
X784Y1377D01*
X256Y1376D02*
X337Y1376D01*
X374Y1376D02*
X709Y1376D01*
X728Y1376D02*
X784Y1376D01*
X256Y1375D02*
X334Y1375D01*
X377Y1375D02*
X709Y1375D01*
X728Y1375D02*
X784Y1375D01*
X255Y1374D02*
X332Y1374D01*
X379Y1374D02*
X709Y1374D01*
X728Y1374D02*
X784Y1374D01*
X255Y1373D02*
X330Y1373D01*
X381Y1373D02*
X709Y1373D01*
X728Y1373D02*
X784Y1373D01*
X254Y1372D02*
X328Y1372D01*
X383Y1372D02*
X709Y1372D01*
X728Y1372D02*
X784Y1372D01*
X254Y1371D02*
X326Y1371D01*
X385Y1371D02*
X709Y1371D01*
X728Y1371D02*
X784Y1371D01*
X253Y1370D02*
X324Y1370D01*
X386Y1370D02*
X709Y1370D01*
X728Y1370D02*
X784Y1370D01*
X253Y1369D02*
X323Y1369D01*
X388Y1369D02*
X709Y1369D01*
X728Y1369D02*
X784Y1369D01*
X252Y1368D02*
X321Y1368D01*
X389Y1368D02*
X709Y1368D01*
X728Y1368D02*
X784Y1368D01*
X252Y1367D02*
X320Y1367D01*
X391Y1367D02*
X709Y1367D01*
X728Y1367D02*
X784Y1367D01*
X252Y1366D02*
X319Y1366D01*
X392Y1366D02*
X709Y1366D01*
X728Y1366D02*
X784Y1366D01*
X251Y1365D02*
X318Y1365D01*
X393Y1365D02*
X709Y1365D01*
X728Y1365D02*
X784Y1365D01*
X251Y1364D02*
X317Y1364D01*
X394Y1364D02*
X709Y1364D01*
X728Y1364D02*
X784Y1364D01*
X250Y1363D02*
X316Y1363D01*
X395Y1363D02*
X709Y1363D01*
X728Y1363D02*
X784Y1363D01*
X250Y1362D02*
X315Y1362D01*
X396Y1362D02*
X709Y1362D01*
X728Y1362D02*
X784Y1362D01*
X250Y1361D02*
X314Y1361D01*
X397Y1361D02*
X709Y1361D01*
X728Y1361D02*
X784Y1361D01*
X249Y1360D02*
X313Y1360D01*
X349Y1360D02*
X362Y1360D01*
X398Y1360D02*
X709Y1360D01*
X728Y1360D02*
X784Y1360D01*
X249Y1359D02*
X312Y1359D01*
X345Y1359D02*
X366Y1359D01*
X399Y1359D02*
X709Y1359D01*
X728Y1359D02*
X784Y1359D01*
X249Y1358D02*
X311Y1358D01*
X342Y1358D02*
X369Y1358D01*
X400Y1358D02*
X709Y1358D01*
X728Y1358D02*
X784Y1358D01*
X248Y1357D02*
X310Y1357D01*
X340Y1357D02*
X371Y1357D01*
X400Y1357D02*
X709Y1357D01*
X728Y1357D02*
X784Y1357D01*
X248Y1356D02*
X310Y1356D01*
X338Y1356D02*
X373Y1356D01*
X401Y1356D02*
X709Y1356D01*
X728Y1356D02*
X784Y1356D01*
X248Y1355D02*
X309Y1355D01*
X336Y1355D02*
X375Y1355D01*
X402Y1355D02*
X709Y1355D01*
X728Y1355D02*
X784Y1355D01*
X247Y1354D02*
X308Y1354D01*
X334Y1354D02*
X376Y1354D01*
X403Y1354D02*
X709Y1354D01*
X728Y1354D02*
X784Y1354D01*
X247Y1353D02*
X307Y1353D01*
X333Y1353D02*
X378Y1353D01*
X403Y1353D02*
X709Y1353D01*
X728Y1353D02*
X784Y1353D01*
X247Y1352D02*
X307Y1352D01*
X332Y1352D02*
X379Y1352D01*
X404Y1352D02*
X709Y1352D01*
X728Y1352D02*
X784Y1352D01*
X247Y1351D02*
X306Y1351D01*
X331Y1351D02*
X380Y1351D01*
X404Y1351D02*
X709Y1351D01*
X728Y1351D02*
X784Y1351D01*
X246Y1350D02*
X306Y1350D01*
X330Y1350D02*
X381Y1350D01*
X405Y1350D02*
X709Y1350D01*
X728Y1350D02*
X784Y1350D01*
X246Y1349D02*
X305Y1349D01*
X329Y1349D02*
X382Y1349D01*
X406Y1349D02*
X709Y1349D01*
X728Y1349D02*
X784Y1349D01*
X246Y1348D02*
X305Y1348D01*
X328Y1348D02*
X383Y1348D01*
X406Y1348D02*
X709Y1348D01*
X728Y1348D02*
X784Y1348D01*
X246Y1347D02*
X304Y1347D01*
X327Y1347D02*
X384Y1347D01*
X407Y1347D02*
X709Y1347D01*
X728Y1347D02*
X784Y1347D01*
X245Y1346D02*
X304Y1346D01*
X326Y1346D02*
X385Y1346D01*
X407Y1346D02*
X709Y1346D01*
X728Y1346D02*
X784Y1346D01*
X245Y1345D02*
X303Y1345D01*
X325Y1345D02*
X385Y1345D01*
X407Y1345D02*
X709Y1345D01*
X728Y1345D02*
X784Y1345D01*
X245Y1344D02*
X303Y1344D01*
X325Y1344D02*
X386Y1344D01*
X408Y1344D02*
X709Y1344D01*
X728Y1344D02*
X784Y1344D01*
X245Y1343D02*
X302Y1343D01*
X324Y1343D02*
X387Y1343D01*
X408Y1343D02*
X709Y1343D01*
X728Y1343D02*
X784Y1343D01*
X245Y1342D02*
X302Y1342D01*
X323Y1342D02*
X387Y1342D01*
X409Y1342D02*
X709Y1342D01*
X728Y1342D02*
X784Y1342D01*
X245Y1341D02*
X302Y1341D01*
X323Y1341D02*
X388Y1341D01*
X409Y1341D02*
X709Y1341D01*
X728Y1341D02*
X784Y1341D01*
X244Y1340D02*
X301Y1340D01*
X322Y1340D02*
X388Y1340D01*
X409Y1340D02*
X709Y1340D01*
X728Y1340D02*
X784Y1340D01*
X244Y1339D02*
X301Y1339D01*
X322Y1339D02*
X389Y1339D01*
X410Y1339D02*
X709Y1339D01*
X728Y1339D02*
X784Y1339D01*
X244Y1338D02*
X301Y1338D01*
X321Y1338D02*
X389Y1338D01*
X410Y1338D02*
X709Y1338D01*
X728Y1338D02*
X784Y1338D01*
X244Y1337D02*
X301Y1337D01*
X321Y1337D02*
X390Y1337D01*
X410Y1337D02*
X709Y1337D01*
X728Y1337D02*
X784Y1337D01*
X244Y1336D02*
X300Y1336D01*
X320Y1336D02*
X390Y1336D01*
X410Y1336D02*
X709Y1336D01*
X728Y1336D02*
X784Y1336D01*
X244Y1335D02*
X300Y1335D01*
X320Y1335D02*
X391Y1335D01*
X411Y1335D02*
X709Y1335D01*
X728Y1335D02*
X784Y1335D01*
X244Y1334D02*
X300Y1334D01*
X320Y1334D02*
X391Y1334D01*
X411Y1334D02*
X709Y1334D01*
X728Y1334D02*
X784Y1334D01*
X244Y1333D02*
X300Y1333D01*
X319Y1333D02*
X391Y1333D01*
X411Y1333D02*
X709Y1333D01*
X728Y1333D02*
X784Y1333D01*
X243Y1332D02*
X299Y1332D01*
X319Y1332D02*
X391Y1332D01*
X411Y1332D02*
X709Y1332D01*
X728Y1332D02*
X784Y1332D01*
X243Y1331D02*
X299Y1331D01*
X319Y1331D02*
X392Y1331D01*
X411Y1331D02*
X709Y1331D01*
X728Y1331D02*
X784Y1331D01*
X243Y1330D02*
X299Y1330D01*
X319Y1330D02*
X392Y1330D01*
X412Y1330D02*
X709Y1330D01*
X728Y1330D02*
X784Y1330D01*
X243Y1329D02*
X299Y1329D01*
X319Y1329D02*
X392Y1329D01*
X412Y1329D02*
X709Y1329D01*
X728Y1329D02*
X784Y1329D01*
X243Y1328D02*
X299Y1328D01*
X318Y1328D02*
X392Y1328D01*
X412Y1328D02*
X709Y1328D01*
X728Y1328D02*
X784Y1328D01*
X243Y1327D02*
X299Y1327D01*
X318Y1327D02*
X392Y1327D01*
X412Y1327D02*
X707Y1327D01*
X728Y1327D02*
X784Y1327D01*
X243Y1326D02*
X299Y1326D01*
X318Y1326D02*
X392Y1326D01*
X412Y1326D02*
X705Y1326D01*
X728Y1326D02*
X784Y1326D01*
X243Y1325D02*
X299Y1325D01*
X318Y1325D02*
X392Y1325D01*
X412Y1325D02*
X703Y1325D01*
X728Y1325D02*
X784Y1325D01*
X243Y1324D02*
X299Y1324D01*
X318Y1324D02*
X393Y1324D01*
X412Y1324D02*
X702Y1324D01*
X728Y1324D02*
X784Y1324D01*
X243Y1323D02*
X299Y1323D01*
X318Y1323D02*
X393Y1323D01*
X412Y1323D02*
X700Y1323D01*
X728Y1323D02*
X784Y1323D01*
X243Y1322D02*
X299Y1322D01*
X318Y1322D02*
X393Y1322D01*
X412Y1322D02*
X698Y1322D01*
X728Y1322D02*
X784Y1322D01*
X243Y1321D02*
X299Y1321D01*
X318Y1321D02*
X392Y1321D01*
X412Y1321D02*
X697Y1321D01*
X728Y1321D02*
X784Y1321D01*
X243Y1320D02*
X299Y1320D01*
X318Y1320D02*
X392Y1320D01*
X412Y1320D02*
X695Y1320D01*
X728Y1320D02*
X784Y1320D01*
X243Y1319D02*
X299Y1319D01*
X318Y1319D02*
X392Y1319D01*
X412Y1319D02*
X693Y1319D01*
X728Y1319D02*
X784Y1319D01*
X243Y1318D02*
X299Y1318D01*
X318Y1318D02*
X392Y1318D01*
X412Y1318D02*
X691Y1318D01*
X728Y1318D02*
X784Y1318D01*
X243Y1317D02*
X299Y1317D01*
X319Y1317D02*
X392Y1317D01*
X412Y1317D02*
X690Y1317D01*
X727Y1317D02*
X784Y1317D01*
X243Y1316D02*
X299Y1316D01*
X319Y1316D02*
X392Y1316D01*
X412Y1316D02*
X688Y1316D01*
X726Y1316D02*
X784Y1316D01*
X243Y1315D02*
X299Y1315D01*
X319Y1315D02*
X392Y1315D01*
X411Y1315D02*
X686Y1315D01*
X724Y1315D02*
X784Y1315D01*
X243Y1314D02*
X299Y1314D01*
X319Y1314D02*
X391Y1314D01*
X411Y1314D02*
X684Y1314D01*
X722Y1314D02*
X784Y1314D01*
X243Y1313D02*
X300Y1313D01*
X319Y1313D02*
X391Y1313D01*
X411Y1313D02*
X683Y1313D01*
X720Y1313D02*
X784Y1313D01*
X244Y1312D02*
X300Y1312D01*
X320Y1312D02*
X391Y1312D01*
X411Y1312D02*
X681Y1312D01*
X719Y1312D02*
X784Y1312D01*
X244Y1311D02*
X300Y1311D01*
X320Y1311D02*
X391Y1311D01*
X411Y1311D02*
X679Y1311D01*
X717Y1311D02*
X784Y1311D01*
X244Y1310D02*
X300Y1310D01*
X320Y1310D02*
X390Y1310D01*
X410Y1310D02*
X677Y1310D01*
X715Y1310D02*
X784Y1310D01*
X244Y1309D02*
X300Y1309D01*
X321Y1309D02*
X390Y1309D01*
X410Y1309D02*
X676Y1309D01*
X713Y1309D02*
X784Y1309D01*
X244Y1308D02*
X301Y1308D01*
X321Y1308D02*
X390Y1308D01*
X410Y1308D02*
X674Y1308D01*
X712Y1308D02*
X784Y1308D01*
X244Y1307D02*
X301Y1307D01*
X322Y1307D02*
X389Y1307D01*
X410Y1307D02*
X672Y1307D01*
X710Y1307D02*
X784Y1307D01*
X244Y1306D02*
X301Y1306D01*
X322Y1306D02*
X389Y1306D01*
X409Y1306D02*
X671Y1306D01*
X708Y1306D02*
X784Y1306D01*
X244Y1305D02*
X302Y1305D01*
X323Y1305D02*
X388Y1305D01*
X409Y1305D02*
X669Y1305D01*
X707Y1305D02*
X784Y1305D01*
X245Y1304D02*
X302Y1304D01*
X323Y1304D02*
X387Y1304D01*
X409Y1304D02*
X667Y1304D01*
X705Y1304D02*
X784Y1304D01*
X245Y1303D02*
X302Y1303D01*
X324Y1303D02*
X387Y1303D01*
X408Y1303D02*
X665Y1303D01*
X703Y1303D02*
X784Y1303D01*
X245Y1302D02*
X303Y1302D01*
X324Y1302D02*
X386Y1302D01*
X408Y1302D02*
X664Y1302D01*
X701Y1302D02*
X784Y1302D01*
X245Y1301D02*
X303Y1301D01*
X325Y1301D02*
X386Y1301D01*
X408Y1301D02*
X662Y1301D01*
X700Y1301D02*
X784Y1301D01*
X245Y1300D02*
X304Y1300D01*
X326Y1300D02*
X385Y1300D01*
X407Y1300D02*
X660Y1300D01*
X698Y1300D02*
X784Y1300D01*
X246Y1299D02*
X304Y1299D01*
X327Y1299D02*
X384Y1299D01*
X407Y1299D02*
X658Y1299D01*
X696Y1299D02*
X784Y1299D01*
X246Y1298D02*
X305Y1298D01*
X328Y1298D02*
X383Y1298D01*
X406Y1298D02*
X657Y1298D01*
X694Y1298D02*
X784Y1298D01*
X246Y1297D02*
X305Y1297D01*
X328Y1297D02*
X382Y1297D01*
X406Y1297D02*
X655Y1297D01*
X693Y1297D02*
X784Y1297D01*
X246Y1296D02*
X306Y1296D01*
X329Y1296D02*
X381Y1296D01*
X405Y1296D02*
X653Y1296D01*
X691Y1296D02*
X784Y1296D01*
X247Y1295D02*
X306Y1295D01*
X331Y1295D02*
X380Y1295D01*
X405Y1295D02*
X651Y1295D01*
X689Y1295D02*
X784Y1295D01*
X247Y1294D02*
X307Y1294D01*
X332Y1294D02*
X379Y1294D01*
X404Y1294D02*
X650Y1294D01*
X687Y1294D02*
X784Y1294D01*
X247Y1293D02*
X307Y1293D01*
X333Y1293D02*
X378Y1293D01*
X403Y1293D02*
X648Y1293D01*
X686Y1293D02*
X784Y1293D01*
X247Y1292D02*
X308Y1292D01*
X334Y1292D02*
X376Y1292D01*
X403Y1292D02*
X646Y1292D01*
X684Y1292D02*
X784Y1292D01*
X248Y1291D02*
X309Y1291D01*
X336Y1291D02*
X375Y1291D01*
X402Y1291D02*
X645Y1291D01*
X682Y1291D02*
X784Y1291D01*
X248Y1290D02*
X309Y1290D01*
X337Y1290D02*
X373Y1290D01*
X401Y1290D02*
X643Y1290D01*
X681Y1290D02*
X784Y1290D01*
X248Y1289D02*
X310Y1289D01*
X339Y1289D02*
X371Y1289D01*
X401Y1289D02*
X430Y1289D01*
X433Y1289D02*
X641Y1289D01*
X679Y1289D02*
X784Y1289D01*
X249Y1288D02*
X311Y1288D01*
X342Y1288D02*
X369Y1288D01*
X400Y1288D02*
X430Y1288D01*
X435Y1288D02*
X639Y1288D01*
X677Y1288D02*
X784Y1288D01*
X249Y1287D02*
X312Y1287D01*
X344Y1287D02*
X366Y1287D01*
X399Y1287D02*
X430Y1287D01*
X436Y1287D02*
X638Y1287D01*
X675Y1287D02*
X784Y1287D01*
X249Y1286D02*
X313Y1286D01*
X348Y1286D02*
X362Y1286D01*
X398Y1286D02*
X429Y1286D01*
X438Y1286D02*
X636Y1286D01*
X674Y1286D02*
X784Y1286D01*
X250Y1285D02*
X314Y1285D01*
X397Y1285D02*
X429Y1285D01*
X440Y1285D02*
X634Y1285D01*
X672Y1285D02*
X784Y1285D01*
X250Y1284D02*
X314Y1284D01*
X396Y1284D02*
X428Y1284D01*
X442Y1284D02*
X632Y1284D01*
X670Y1284D02*
X783Y1284D01*
X250Y1283D02*
X315Y1283D01*
X395Y1283D02*
X427Y1283D01*
X443Y1283D02*
X631Y1283D01*
X668Y1283D02*
X781Y1283D01*
X251Y1282D02*
X316Y1282D01*
X394Y1282D02*
X427Y1282D01*
X445Y1282D02*
X629Y1282D01*
X667Y1282D02*
X779Y1282D01*
X251Y1281D02*
X318Y1281D01*
X393Y1281D02*
X426Y1281D01*
X447Y1281D02*
X627Y1281D01*
X665Y1281D02*
X777Y1281D01*
X252Y1280D02*
X319Y1280D01*
X392Y1280D02*
X426Y1280D01*
X449Y1280D02*
X625Y1280D01*
X663Y1280D02*
X776Y1280D01*
X252Y1279D02*
X320Y1279D01*
X391Y1279D02*
X425Y1279D01*
X450Y1279D02*
X624Y1279D01*
X661Y1279D02*
X774Y1279D01*
X252Y1278D02*
X321Y1278D01*
X389Y1278D02*
X424Y1278D01*
X452Y1278D02*
X622Y1278D01*
X660Y1278D02*
X772Y1278D01*
X253Y1277D02*
X323Y1277D01*
X388Y1277D02*
X424Y1277D01*
X454Y1277D02*
X620Y1277D01*
X658Y1277D02*
X770Y1277D01*
X253Y1276D02*
X324Y1276D01*
X387Y1276D02*
X423Y1276D01*
X456Y1276D02*
X619Y1276D01*
X656Y1276D02*
X769Y1276D01*
X254Y1275D02*
X326Y1275D01*
X385Y1275D02*
X422Y1275D01*
X457Y1275D02*
X617Y1275D01*
X655Y1275D02*
X767Y1275D01*
X254Y1274D02*
X327Y1274D01*
X383Y1274D02*
X422Y1274D01*
X459Y1274D02*
X615Y1274D01*
X653Y1274D02*
X765Y1274D01*
X255Y1273D02*
X329Y1273D01*
X381Y1273D02*
X423Y1273D01*
X461Y1273D02*
X613Y1273D01*
X651Y1273D02*
X764Y1273D01*
X255Y1272D02*
X331Y1272D01*
X379Y1272D02*
X425Y1272D01*
X462Y1272D02*
X612Y1272D01*
X649Y1272D02*
X762Y1272D01*
X256Y1271D02*
X334Y1271D01*
X377Y1271D02*
X426Y1271D01*
X464Y1271D02*
X610Y1271D01*
X648Y1271D02*
X760Y1271D01*
X256Y1270D02*
X336Y1270D01*
X374Y1270D02*
X428Y1270D01*
X466Y1270D02*
X608Y1270D01*
X646Y1270D02*
X758Y1270D01*
X257Y1269D02*
X339Y1269D01*
X371Y1269D02*
X430Y1269D01*
X468Y1269D02*
X606Y1269D01*
X644Y1269D02*
X757Y1269D01*
X257Y1268D02*
X343Y1268D01*
X368Y1268D02*
X432Y1268D01*
X469Y1268D02*
X605Y1268D01*
X642Y1268D02*
X755Y1268D01*
X258Y1267D02*
X350Y1267D01*
X360Y1267D02*
X433Y1267D01*
X471Y1267D02*
X603Y1267D01*
X641Y1267D02*
X753Y1267D01*
X258Y1266D02*
X435Y1266D01*
X473Y1266D02*
X601Y1266D01*
X639Y1266D02*
X751Y1266D01*
X259Y1265D02*
X437Y1265D01*
X475Y1265D02*
X599Y1265D01*
X637Y1265D02*
X750Y1265D01*
X260Y1264D02*
X439Y1264D01*
X476Y1264D02*
X598Y1264D01*
X636Y1264D02*
X748Y1264D01*
X260Y1263D02*
X440Y1263D01*
X478Y1263D02*
X596Y1263D01*
X634Y1263D02*
X746Y1263D01*
X261Y1262D02*
X442Y1262D01*
X480Y1262D02*
X594Y1262D01*
X632Y1262D02*
X744Y1262D01*
X262Y1261D02*
X444Y1261D01*
X482Y1261D02*
X593Y1261D01*
X630Y1261D02*
X743Y1261D01*
X262Y1260D02*
X445Y1260D01*
X483Y1260D02*
X591Y1260D01*
X629Y1260D02*
X741Y1260D01*
X263Y1259D02*
X447Y1259D01*
X485Y1259D02*
X589Y1259D01*
X627Y1259D02*
X739Y1259D01*
X264Y1258D02*
X449Y1258D01*
X487Y1258D02*
X587Y1258D01*
X625Y1258D02*
X738Y1258D01*
X264Y1257D02*
X451Y1257D01*
X488Y1257D02*
X586Y1257D01*
X623Y1257D02*
X736Y1257D01*
X265Y1256D02*
X452Y1256D01*
X490Y1256D02*
X584Y1256D01*
X622Y1256D02*
X734Y1256D01*
X266Y1255D02*
X454Y1255D01*
X492Y1255D02*
X582Y1255D01*
X620Y1255D02*
X732Y1255D01*
X267Y1254D02*
X456Y1254D01*
X494Y1254D02*
X580Y1254D01*
X618Y1254D02*
X731Y1254D01*
X267Y1253D02*
X458Y1253D01*
X495Y1253D02*
X579Y1253D01*
X616Y1253D02*
X729Y1253D01*
X268Y1252D02*
X459Y1252D01*
X497Y1252D02*
X577Y1252D01*
X615Y1252D02*
X727Y1252D01*
X269Y1251D02*
X461Y1251D01*
X499Y1251D02*
X575Y1251D01*
X613Y1251D02*
X725Y1251D01*
X270Y1250D02*
X463Y1250D01*
X501Y1250D02*
X573Y1250D01*
X611Y1250D02*
X724Y1250D01*
X271Y1249D02*
X465Y1249D01*
X502Y1249D02*
X572Y1249D01*
X610Y1249D02*
X722Y1249D01*
X272Y1248D02*
X466Y1248D01*
X504Y1248D02*
X570Y1248D01*
X608Y1248D02*
X720Y1248D01*
X273Y1247D02*
X468Y1247D01*
X506Y1247D02*
X568Y1247D01*
X606Y1247D02*
X718Y1247D01*
X274Y1246D02*
X470Y1246D01*
X508Y1246D02*
X567Y1246D01*
X604Y1246D02*
X717Y1246D01*
X274Y1245D02*
X471Y1245D01*
X509Y1245D02*
X565Y1245D01*
X603Y1245D02*
X715Y1245D01*
X275Y1244D02*
X473Y1244D01*
X511Y1244D02*
X563Y1244D01*
X601Y1244D02*
X713Y1244D01*
X276Y1243D02*
X475Y1243D01*
X513Y1243D02*
X561Y1243D01*
X599Y1243D02*
X712Y1243D01*
X277Y1242D02*
X477Y1242D01*
X514Y1242D02*
X560Y1242D01*
X597Y1242D02*
X710Y1242D01*
X278Y1241D02*
X478Y1241D01*
X516Y1241D02*
X558Y1241D01*
X596Y1241D02*
X708Y1241D01*
X280Y1240D02*
X480Y1240D01*
X518Y1240D02*
X556Y1240D01*
X594Y1240D02*
X706Y1240D01*
X281Y1239D02*
X482Y1239D01*
X520Y1239D02*
X554Y1239D01*
X592Y1239D02*
X705Y1239D01*
X282Y1238D02*
X484Y1238D01*
X521Y1238D02*
X553Y1238D01*
X590Y1238D02*
X703Y1238D01*
X283Y1237D02*
X485Y1237D01*
X523Y1237D02*
X551Y1237D01*
X589Y1237D02*
X701Y1237D01*
X284Y1236D02*
X487Y1236D01*
X525Y1236D02*
X549Y1236D01*
X587Y1236D02*
X699Y1236D01*
X285Y1235D02*
X489Y1235D01*
X527Y1235D02*
X548Y1235D01*
X585Y1235D02*
X698Y1235D01*
X287Y1234D02*
X491Y1234D01*
X528Y1234D02*
X546Y1234D01*
X584Y1234D02*
X696Y1234D01*
X288Y1233D02*
X492Y1233D01*
X530Y1233D02*
X544Y1233D01*
X582Y1233D02*
X694Y1233D01*
X289Y1232D02*
X494Y1232D01*
X532Y1232D02*
X542Y1232D01*
X580Y1232D02*
X693Y1232D01*
X291Y1231D02*
X496Y1231D01*
X534Y1231D02*
X541Y1231D01*
X578Y1231D02*
X691Y1231D01*
X292Y1230D02*
X497Y1230D01*
X535Y1230D02*
X539Y1230D01*
X577Y1230D02*
X689Y1230D01*
X293Y1229D02*
X499Y1229D01*
X537Y1229D02*
X537Y1229D01*
X575Y1229D02*
X687Y1229D01*
X295Y1228D02*
X501Y1228D01*
X573Y1228D02*
X686Y1228D01*
X297Y1227D02*
X503Y1227D01*
X571Y1227D02*
X684Y1227D01*
X298Y1226D02*
X504Y1226D01*
X570Y1226D02*
X682Y1226D01*
X300Y1225D02*
X506Y1225D01*
X568Y1225D02*
X680Y1225D01*
X302Y1224D02*
X508Y1224D01*
X566Y1224D02*
X679Y1224D01*
X304Y1223D02*
X510Y1223D01*
X564Y1223D02*
X677Y1223D01*
X305Y1222D02*
X511Y1222D01*
X563Y1222D02*
X675Y1222D01*
X307Y1221D02*
X513Y1221D01*
X561Y1221D02*
X673Y1221D01*
X310Y1220D02*
X515Y1220D01*
X559Y1220D02*
X672Y1220D01*
X312Y1219D02*
X399Y1219D01*
X404Y1219D02*
X517Y1219D01*
X558Y1219D02*
X670Y1219D01*
X314Y1218D02*
X396Y1218D01*
X406Y1218D02*
X518Y1218D01*
X556Y1218D02*
X668Y1218D01*
X317Y1217D02*
X393Y1217D01*
X408Y1217D02*
X520Y1217D01*
X554Y1217D02*
X667Y1217D01*
X320Y1216D02*
X391Y1216D01*
X409Y1216D02*
X522Y1216D01*
X552Y1216D02*
X665Y1216D01*
X323Y1215D02*
X387Y1215D01*
X411Y1215D02*
X523Y1215D01*
X551Y1215D02*
X663Y1215D01*
X326Y1214D02*
X384Y1214D01*
X413Y1214D02*
X525Y1214D01*
X549Y1214D02*
X661Y1214D01*
X330Y1213D02*
X380Y1213D01*
X414Y1213D02*
X527Y1213D01*
X547Y1213D02*
X660Y1213D01*
X335Y1212D02*
X375Y1212D01*
X416Y1212D02*
X529Y1212D01*
X545Y1212D02*
X658Y1212D01*
X342Y1211D02*
X369Y1211D01*
X418Y1211D02*
X530Y1211D01*
X544Y1211D02*
X656Y1211D01*
X420Y1210D02*
X532Y1210D01*
X542Y1210D02*
X654Y1210D01*
X421Y1209D02*
X534Y1209D01*
X540Y1209D02*
X653Y1209D01*
X423Y1208D02*
X536Y1208D01*
X539Y1208D02*
X651Y1208D01*
X425Y1207D02*
X649Y1207D01*
X427Y1206D02*
X647Y1206D01*
X428Y1205D02*
X646Y1205D01*
X430Y1204D02*
X644Y1204D01*
X432Y1203D02*
X642Y1203D01*
X434Y1202D02*
X641Y1202D01*
X435Y1201D02*
X639Y1201D01*
X437Y1200D02*
X637Y1200D01*
X439Y1199D02*
X635Y1199D01*
X440Y1198D02*
X634Y1198D01*
X442Y1197D02*
X632Y1197D01*
X444Y1196D02*
X630Y1196D01*
X446Y1195D02*
X628Y1195D01*
X447Y1194D02*
X627Y1194D01*
X449Y1193D02*
X625Y1193D01*
X451Y1192D02*
X623Y1192D01*
X453Y1191D02*
X621Y1191D01*
X454Y1190D02*
X620Y1190D01*
X456Y1189D02*
X618Y1189D01*
X458Y1188D02*
X616Y1188D01*
X460Y1187D02*
X615Y1187D01*
X461Y1186D02*
X613Y1186D01*
X463Y1185D02*
X611Y1185D01*
X465Y1184D02*
X609Y1184D01*
X466Y1183D02*
X608Y1183D01*
X468Y1182D02*
X606Y1182D01*
X470Y1181D02*
X604Y1181D01*
X472Y1180D02*
X602Y1180D01*
X473Y1179D02*
X601Y1179D01*
X475Y1178D02*
X599Y1178D01*
X477Y1177D02*
X597Y1177D01*
X479Y1176D02*
X596Y1176D01*
X480Y1175D02*
X594Y1175D01*
X482Y1174D02*
X592Y1174D01*
X484Y1173D02*
X590Y1173D01*
X485Y1172D02*
X589Y1172D01*
X487Y1171D02*
X587Y1171D01*
X489Y1170D02*
X585Y1170D01*
X491Y1169D02*
X583Y1169D01*
X492Y1168D02*
X582Y1168D01*
X494Y1167D02*
X580Y1167D01*
X496Y1166D02*
X578Y1166D01*
X498Y1165D02*
X576Y1165D01*
X499Y1164D02*
X575Y1164D01*
X501Y1163D02*
X573Y1163D01*
X503Y1162D02*
X571Y1162D01*
X505Y1161D02*
X570Y1161D01*
X506Y1160D02*
X568Y1160D01*
X508Y1159D02*
X566Y1159D01*
X510Y1158D02*
X564Y1158D01*
X511Y1157D02*
X563Y1157D01*
X513Y1156D02*
X561Y1156D01*
X515Y1155D02*
X559Y1155D01*
X517Y1154D02*
X557Y1154D01*
X518Y1153D02*
X556Y1153D01*
X520Y1152D02*
X554Y1152D01*
X522Y1151D02*
X552Y1151D01*
X524Y1150D02*
X550Y1150D01*
X525Y1149D02*
X549Y1149D01*
X527Y1148D02*
X547Y1148D01*
X529Y1147D02*
X545Y1147D01*
X531Y1146D02*
X544Y1146D01*
X532Y1145D02*
X542Y1145D01*
X534Y1144D02*
X540Y1144D01*
X536Y1143D02*
X538Y1143D01*
D02*
G04 End of Copper1*
M02*